<?xml version="1.0" encoding="utf-8"?>
<!-- Generator: Adobe Illustrator 28.3.0, SVG Export Plug-In . SVG Version: 6.00 Build 0)  -->
<svg version="1.1" id="Laag_1" xmlns="http://www.w3.org/2000/svg" xmlns:xlink="http://www.w3.org/1999/xlink" x="0px" y="0px"
	 viewBox="0 0 80 80" style="enable-background:new 0 0 80 80;" xml:space="preserve">
<style type="text/css">
	.st0{fill:#A69E95;}
	.st1{fill:#EEDFD0;}
</style>
<g>
	<path class="st0" d="M42.65,35.87c2.9-9.23,8.81-12.94,17.78-11.5c7.28,1.17,11.03,8.06,11.04,16.52
		c0.01,8.49-3.75,16.12-11.05,16.52c-10.61,0.59-14.44-1.38-17.79-11.53C41.19,40.89,41.19,40.89,42.65,35.87z"/>
	<path class="st1" d="M15.04,45.69c-5.9,0-6.58-8.67,1.78-8.67c8.61,0,17.4,0.21,26.01-0.14c6.55,0,13.9-0.84,13.9,4
		c0,6.07-5.09,5.01-14.09,5.01c-8.06-0.05-16.11-0.09-24.16-0.13"/>
	<rect x="56.52" y="47.95" width="2.84" height="7.54"/>
</g>
</svg>
