<?xml version="1.0" encoding="utf-8"?>
<!-- Generator: Adobe Illustrator 28.3.0, SVG Export Plug-In . SVG Version: 6.00 Build 0)  -->
<svg version="1.1" id="Laag_1" xmlns="http://www.w3.org/2000/svg" xmlns:xlink="http://www.w3.org/1999/xlink" x="0px" y="0px"
	 viewBox="0 0 11.6 47.57" style="enable-background:new 0 0 11.6 47.57;" xml:space="preserve">
<style type="text/css">
	.st0{fill:#F3F3F3;}
</style>
<g>
	<path class="st0" d="M0.61,45.73c0.1-0.29-0.07-0.45-0.27-0.61c0,0-0.01,0-0.01-0.01v1.58c0.01,0,0.02,0,0.03,0
		c0.17-0.17,0.25-0.37,0.28-0.6C0.63,45.97,0.57,45.85,0.61,45.73z"/>
	<path class="st0" d="M10.66,5.64c-0.01-0.02-0.02-0.03-0.02-0.05c-0.05,0-0.1,0-0.15,0c-0.02-0.02-0.03-0.05-0.05-0.07
		c-0.01,0.01-0.02,0.02-0.02,0.02c0.02,0.16-0.07,0.34,0.07,0.48C10.3,6.2,10.13,6.3,10.12,5.91c0-0.14-0.1-0.28,0.04-0.41
		c0.04-0.04,0.05-0.13-0.01-0.16C9.81,5.2,9.66,4.84,9.36,4.66C9.14,4.52,8.83,4.41,9.1,4.06c0.02-0.02,0.02-0.08,0-0.11
		C8.84,3.38,9.25,3.54,9.53,3.54c0.08,0,0.15,0,0.23,0C9.69,3.46,9.59,3.48,9.54,3.4c0.08-0.01,0.18,0.03,0.27-0.09
		C9.57,3.25,9.33,3.29,9.14,3.12C9.06,3.05,8.94,3.14,8.88,3.25c-0.23,0-0.38-0.13-0.51-0.29c0,0,0,0,0,0v0
		c0.15,0,0.37,0.06,0.43-0.01C9,2.67,9.11,2.8,9.34,2.93c0.29,0.17,1.25-0.01,1.61-0.19c-0.22,0-0.47-0.08-0.51-0.2
		c-0.07-0.24-0.15-0.16-0.25-0.08c-0.26,0.2-0.53,0.1-0.8,0.06c-0.05-0.05-0.1-0.1-0.15-0.15C8.88,2.2,8.48,2.13,8.08,2.15
		c-0.2-0.14-0.47-0.06-0.66-0.22C6.87,1.61,6.3,1.52,5.7,1.71C5.67,1.69,5.65,1.66,5.61,1.65c-0.1-0.03-0.19-0.02-0.29,0.01
		C5.29,1.68,5.26,1.7,5.23,1.72c-0.06,0-0.11,0-0.15-0.02C4.69,1.49,4.26,1.52,3.84,1.48C3.59,1.46,3.32,1.43,3.1,1.27
		C3.11,1.16,3.02,1.13,2.94,1.1c-0.52-0.19-1.06-0.23-1.6-0.12l0,0c0,0-0.01,0-0.01,0.01c-0.17-0.16-0.4-0.16-0.61-0.21
		c-0.03,0-0.05,0.01-0.07,0.02c-0.08-0.1-0.19-0.15-0.31-0.18V45c0.07,0.03,0.13,0.07,0.2,0.09c0.14,0.04,0.29,0.01,0.25-0.14
		c-0.06-0.24,0.06-0.42,0.14-0.61c0.06-0.16,0.07-0.37-0.13-0.38c-0.15-0.01-0.27-0.09-0.41-0.12c0.34-0.13,0.64-0.34,1.04-0.3
		c0.13,0.01,0.12-0.15,0.08-0.26c0,0-0.01,0-0.01-0.01c0.02-0.06,0.04-0.12,0.06-0.19c0-0.05,0-0.1,0-0.14
		c0.1-0.12,0.14-0.26,0.14-0.4c0.01-0.27,0.03-0.53,0.15-0.77c0-0.07,0-0.14,0-0.22l0,0c0.03-0.07,0.05-0.15,0.08-0.22
		c-0.14-0.64-0.1-1.26,0.14-1.88c0.08-0.21,0.26-0.46,0.01-0.68c0.13-0.09,0.17-0.22,0.15-0.37c0.23-0.46,0.32-0.95,0.29-1.47
		c0.01-0.1-0.03-0.22,0.07-0.29c0.1-0.05,0.06-0.2,0.13-0.26c0,0.07,0.01,0.13,0.03,0.2c0.09,0.08-0.02,0.05-0.04,0.08
		c-0.14,0.27-0.04,0.5,0.14,0.72c0.01,0.01,0.02,0,0.03,0c0.02,0.12-0.05,0.26,0.07,0.36c0.02-0.15,0.05-0.29,0.07-0.44
		c0.01-0.05,0.02-0.09,0.03-0.14c0-0.01,0-0.01,0-0.02c0.01-0.07,0.03-0.14,0.04-0.21c0.02,0.02,0.03,0.03,0.04,0.01
		c0.21-0.15,0.1-0.43,0.25-0.6c0-0.17,0-0.34,0-0.51c0.19-0.15,0.16-0.41,0.29-0.59c0.03-0.15,0.1-0.28,0.08-0.44
		c0.02-0.02,0.05-0.05,0.07-0.07c0-0.06,0-0.13,0-0.19c0.02-0.04,0.04-0.08,0.05-0.12c0-0.01,0-0.03,0-0.04
		c0.03-0.03,0.08-0.05,0.09-0.09c0,0,0,0,0,0c0-0.12,0-0.24,0-0.37c0.13-0.03,0.11,0.23,0.28,0.14c0.05-0.03,0.07-0.07,0.05-0.11
		c-0.08-0.13-0.21-0.09-0.32-0.1C4,33.8,4.06,33.79,4.12,33.79c-0.05-0.11-0.07-0.21-0.04-0.34c0.06-0.25,0.2-0.49,0.18-0.75
		c-0.01-0.14,0.04-0.26,0.12-0.36c0.07-0.09,0.14-0.19,0.08-0.29c-0.08-0.12-0.21-0.14-0.35-0.08c0.02-0.16,0.16-0.23,0.26-0.32
		c0.16-0.15,0.29-0.31,0.25-0.55c0.03-0.13,0.23-0.13,0.22-0.29c0.12-0.07,0.24-0.15,0.37-0.22c0.07-0.03,0.07-0.09,0.08-0.15
		c0,0,0,0,0,0c-0.02-0.1-0.05-0.19-0.07-0.29c0.11-0.08,0.06-0.19,0.07-0.3c0,0,0,0,0,0c0.14-0.15,0.04-0.34,0.07-0.51c0,0,0,0,0,0
		c0.14-0.18,0.04-0.39,0.07-0.59c0-0.32,0-0.64,0-0.95c-0.08-0.25-0.04-0.51-0.03-0.77c0.01-0.38,0.11-0.78-0.12-1.14
		c0.05-0.07,0.1-0.15,0.14-0.22c0-0.03,0-0.05,0-0.08c0.05-0.27-0.07-0.53-0.07-0.8h0c0.13-0.33,0.12-0.7,0.29-1.03
		c0.02-0.12,0.05-0.24,0.07-0.37c0-0.07,0-0.15,0-0.22c0.12-0.27,0.25-0.54,0.38-0.81c0.03-0.04,0.06-0.07,0.11-0.1
		c0.17-0.1,0.27-0.27,0.33-0.45c0.08-0.33,0.42-0.52,0.46-0.87c0-0.02-0.02-0.03-0.03-0.05C7,20.85,7.02,20.8,7.05,20.76
		c-0.07,0-0.14,0-0.22,0c-0.06-0.08-0.12-0.04-0.19-0.02c-0.37,0.15-0.68,0.44-1.13,0.4c-0.07-0.01-0.17,0.05-0.17,0.19
		c0,0.12-0.06,0.23-0.1,0.39c-0.06-0.15-0.09-0.3-0.23-0.13c-0.07,0.08-0.17,0.15-0.22,0.24c-0.14,0.26-0.18,0.06-0.24-0.05
		c0.1-0.12,0.2-0.24,0.29-0.37c0.37-0.24,0.73-0.49,1.1-0.73c0.52-0.29,1.09-0.49,1.47-1.01c0.1,0.15-0.19,0.25,0,0.36
		c0.25-0.11,0.06-0.38,0.21-0.53c0.11-0.24,0.04-0.47-0.02-0.7c-0.03-0.12-0.09-0.23,0.02-0.33c-0.04-0.07-0.04-0.15,0-0.22
		c-0.11-0.05-0.16-0.01-0.15,0.11c0,0.06,0.01,0.12,0,0.18c-0.01,0.05,0.07,0.16-0.07,0.15c-0.01-0.17,0.03-0.35-0.07-0.51
		c0-0.1-0.05-0.14-0.15-0.15v0l0,0c0.37-0.14,0.39-0.49,0.48-0.8c0.02-0.08,0.07-0.15,0.11-0.22c0.15-0.11,0.15-0.27,0.15-0.44l0,0
		c0.12-0.12,0.19-0.27,0.22-0.44c0.15-0.08,0.19-0.25,0.29-0.37c0-0.07,0-0.15,0-0.22c0-0.02,0-0.05,0-0.07c0,0,0,0,0,0
		c0.11-0.1,0.15-0.24,0.22-0.37c0.01-0.23-0.37-0.24-0.29-0.51c0.1-0.04,0.15-0.11,0.14-0.22c0.05-0.15,0.1-0.29,0.15-0.44
		c0,0,0,0,0,0c0.08-0.05,0.07-0.14,0.07-0.22c0.06-0.18-0.04-0.42,0.22-0.51c0.29-0.2,0.1-0.32-0.07-0.44v0c0-0.2,0-0.39,0-0.59
		c0.1-0.16,0.13-0.34,0.15-0.51c0.12,0,0.24,0,0.36,0c0,0,0,0,0,0c0.02,0,0.05,0,0.07,0c0-0.33,0-0.66,0-0.99
		c0-0.06,0.02-0.2-0.04-0.18c-0.27,0.12-0.14-0.08-0.12-0.15c0.12-0.31,0.25-0.61,0.53-0.81c0.23-0.13,0.22-0.4,0.33-0.59
		c0.11-0.19,0.04-0.35-0.17-0.43c0.12-0.29,0.13-0.63,0.36-0.88c0.11-0.25,0.14-0.51,0.13-0.78c0-0.08-0.22-0.1-0.07-0.23
		C10.7,6.36,10.67,6,10.66,5.64z"/>
</g>
</svg>
