<?xml version="1.0" encoding="UTF-8"?>
<svg xmlns="http://www.w3.org/2000/svg" viewBox="0 0 1920 1080">
  <defs>
    <style>
      .cls-1 {
        fill: #949971;
      }

      .cls-1, .cls-2, .cls-3, .cls-4, .cls-5, .cls-6, .cls-7, .cls-8, .cls-9, .cls-10, .cls-11, .cls-12, .cls-13, .cls-14, .cls-15, .cls-16, .cls-17, .cls-18, .cls-19, .cls-20, .cls-21, .cls-22, .cls-23, .cls-24, .cls-25, .cls-26, .cls-27, .cls-28, .cls-29, .cls-30, .cls-31, .cls-32, .cls-33, .cls-34, .cls-35, .cls-36, .cls-37, .cls-38, .cls-39, .cls-40, .cls-41, .cls-42, .cls-43, .cls-44, .cls-45, .cls-46, .cls-47, .cls-48, .cls-49, .cls-50, .cls-51, .cls-52, .cls-53, .cls-54, .cls-55, .cls-56, .cls-57, .cls-58, .cls-59, .cls-60, .cls-61, .cls-62, .cls-63, .cls-64, .cls-65, .cls-66, .cls-67, .cls-68, .cls-69, .cls-70, .cls-71, .cls-72, .cls-73, .cls-74, .cls-75, .cls-76, .cls-77, .cls-78, .cls-79, .cls-80, .cls-81, .cls-82, .cls-83, .cls-84, .cls-85, .cls-86, .cls-87, .cls-88, .cls-89, .cls-90, .cls-91, .cls-92, .cls-93, .cls-94, .cls-95, .cls-96, .cls-97, .cls-98, .cls-99, .cls-100, .cls-101, .cls-102, .cls-103, .cls-104, .cls-105, .cls-106, .cls-107, .cls-108, .cls-109, .cls-110, .cls-111, .cls-112, .cls-113, .cls-114, .cls-115, .cls-116, .cls-117, .cls-118, .cls-119, .cls-120, .cls-121, .cls-122, .cls-123, .cls-124, .cls-125, .cls-126, .cls-127, .cls-128, .cls-129, .cls-130, .cls-131, .cls-132, .cls-133, .cls-134, .cls-135, .cls-136, .cls-137, .cls-138, .cls-139, .cls-140, .cls-141, .cls-142, .cls-143, .cls-144, .cls-145, .cls-146, .cls-147, .cls-148, .cls-149, .cls-150, .cls-151 {
        stroke-width: 0px;
      }

      .cls-2 {
        fill: #696f38;
      }

      .cls-3 {
        fill: #db8658;
      }

      .cls-4 {
        fill: #4a382d;
      }

      .cls-5 {
        fill: #dc711c;
      }

      .cls-6 {
        fill: #473327;
      }

      .cls-7 {
        fill: #3a2a1e;
      }

      .cls-8 {
        fill: #c8c9cb;
      }

      .cls-9 {
        fill: #f5f5f5;
      }

      .cls-10 {
        fill: #6d723b;
      }

      .cls-11 {
        fill: #f7ab68;
      }

      .cls-12 {
        fill: #496374;
      }

      .cls-13 {
        fill: #566b72;
      }

      .cls-14 {
        fill: #c4784f;
      }

      .cls-15 {
        fill: #ac9789;
      }

      .cls-16 {
        fill: #607787;
      }

      .cls-17 {
        fill: #f2d9d1;
      }

      .cls-18 {
        fill: #d2b997;
      }

      .cls-19 {
        fill: #71773e;
      }

      .cls-20 {
        fill: #ac603e;
      }

      .cls-21 {
        fill: #f8f5f3;
      }

      .cls-22 {
        fill: #928c72;
      }

      .cls-23 {
        fill: #617794;
      }

      .cls-24 {
        fill: #b6b1a4;
      }

      .cls-25 {
        fill: #5b718a;
      }

      .cls-26 {
        fill: #bacdc9;
      }

      .cls-27 {
        fill: #f78f79;
      }

      .cls-28 {
        fill: #9a401c;
      }

      .cls-29 {
        fill: #61744d;
      }

      .cls-30 {
        fill: #bd7d2c;
      }

      .cls-31 {
        fill: #3c2c1e;
      }

      .cls-32 {
        fill: #d06539;
      }

      .cls-33 {
        fill: #6e773b;
      }

      .cls-34 {
        fill: #f0937d;
      }

      .cls-35 {
        fill: #dd7b3d;
      }

      .cls-36 {
        fill: #efd8d5;
      }

      .cls-37 {
        fill: #6c703e;
      }

      .cls-38 {
        fill: #d26737;
      }

      .cls-39 {
        fill: #bec5c1;
      }

      .cls-40 {
        fill: #7f835a;
      }

      .cls-41 {
        fill: #4b6570;
      }

      .cls-42 {
        fill: #de7b2c;
      }

      .cls-43 {
        fill: #6a723a;
      }

      .cls-44 {
        fill: #5b632c;
      }

      .cls-45 {
        fill: #473326;
      }

      .cls-46 {
        fill: #7f765e;
      }

      .cls-47 {
        fill: #d4cec6;
      }

      .cls-48 {
        fill: #b9c3bd;
      }

      .cls-49 {
        fill: #95a3ab;
      }

      .cls-50 {
        fill: #738b99;
      }

      .cls-51 {
        fill: #8d8c7c;
      }

      .cls-52 {
        fill: #ead7bd;
      }

      .cls-53 {
        fill: #bd6f51;
      }

      .cls-54 {
        fill: #e4cbae;
      }

      .cls-55 {
        fill: #c3764d;
      }

      .cls-56 {
        fill: #f7f8f7;
      }

      .cls-57 {
        fill: #f9fafa;
      }

      .cls-58 {
        fill: #a69e95;
      }

      .cls-59 {
        fill: #533d30;
      }

      .cls-60 {
        fill: #be672e;
      }

      .cls-61 {
        fill: #ebd3bf;
      }

      .cls-62 {
        fill: #9a401d;
      }

      .cls-63 {
        fill: #dd8659;
      }

      .cls-64 {
        fill: #eedfd0;
      }

      .cls-65 {
        fill: #ad603e;
      }

      .cls-66 {
        fill: #493426;
      }

      .cls-67 {
        fill: #000;
      }

      .cls-68 {
        fill: #728b99;
      }

      .cls-69 {
        fill: #f0c78c;
      }

      .cls-70 {
        fill: #d5d1cf;
      }

      .cls-71 {
        fill: #b9511f;
      }

      .cls-72 {
        fill: #f6952a;
      }

      .cls-73 {
        fill: #5c6974;
      }

      .cls-74 {
        fill: #867f5f;
      }

      .cls-75 {
        fill: #c1754d;
      }

      .cls-76 {
        fill: #546d5d;
      }

      .cls-77 {
        fill: #688237;
      }

      .cls-78 {
        fill: #928f75;
      }

      .cls-79 {
        fill: #f0d3da;
      }

      .cls-80 {
        fill: #e0bd7c;
      }

      .cls-81 {
        fill: #949382;
      }

      .cls-82 {
        fill: #778550;
      }

      .cls-83 {
        fill: #4c3a2c;
      }

      .cls-84 {
        fill: #bacdcb;
      }

      .cls-85 {
        fill: #6b713a;
      }

      .cls-86 {
        fill: #6d703b;
      }

      .cls-87 {
        fill: #6c703c;
      }

      .cls-88 {
        fill: #c0672b;
      }

      .cls-89 {
        fill: #c3b69a;
      }

      .cls-90 {
        fill: #456368;
      }

      .cls-91 {
        fill: #f7ab69;
      }

      .cls-92 {
        fill: #be672d;
      }

      .cls-93 {
        fill: #523a29;
      }

      .cls-94 {
        fill: #453325;
      }

      .cls-95 {
        fill: #452d1c;
      }

      .cls-96 {
        fill: #f59429;
      }

      .cls-97 {
        fill: #44545e;
      }

      .cls-98 {
        fill: #fecf80;
      }

      .cls-99 {
        fill: #6c713a;
      }

      .cls-100 {
        fill: #c4cec9;
      }

      .cls-101 {
        fill: #3e2c21;
      }

      .cls-102 {
        fill: #5c642e;
      }

      .cls-103 {
        fill: #533e31;
      }

      .cls-104 {
        fill: #968d72;
      }

      .cls-105 {
        fill: #c2754e;
      }

      .cls-106 {
        fill: #d8cfca;
      }

      .cls-107 {
        fill: #686e3b;
      }

      .cls-108 {
        fill: #724e2b;
      }

      .cls-109 {
        fill: #c0c4c1;
      }

      .cls-110 {
        fill: #f8f8f7;
      }

      .cls-111 {
        fill: #969da2;
      }

      .cls-112 {
        fill: #633e1b;
      }

      .cls-113 {
        fill: #c3764f;
      }

      .cls-114 {
        fill: #8c9f79;
      }

      .cls-115 {
        fill: #c0d1cc;
      }

      .cls-116 {
        fill: #db8657;
      }

      .cls-117 {
        fill: #b8501e;
      }

      .cls-118 {
        fill: #617787;
      }

      .cls-119 {
        fill: #bf734c;
      }

      .cls-120 {
        fill: #dd8658;
      }

      .cls-121 {
        fill: #724d2b;
      }

      .cls-122 {
        fill: #837c60;
      }

      .cls-123 {
        fill: #f87451;
      }

      .cls-124 {
        fill: #f8a433;
      }

      .cls-125 {
        fill: #f9f8f3;
      }

      .cls-126 {
        fill: #6d773a;
      }

      .cls-127 {
        fill: #5a632c;
      }

      .cls-128 {
        fill: #d56c37;
      }

      .cls-129 {
        fill: #f1922a;
      }

      .cls-130 {
        fill: #f59629;
      }

      .cls-131 {
        fill: #f57c6d;
      }

      .cls-132 {
        fill: #92a2ac;
      }

      .cls-133 {
        fill: #d98559;
      }

      .cls-134 {
        fill: #c95d32;
      }

      .cls-135 {
        fill: #c2774d;
      }

      .cls-136 {
        fill: #f6cd82;
      }

      .cls-137 {
        fill: #80775a;
      }

      .cls-138 {
        fill: #f6ca7c;
      }

      .cls-139 {
        fill: #878965;
      }

      .cls-140 {
        fill: #b16233;
      }

      .cls-141 {
        fill: #46352e;
      }

      .cls-142 {
        fill: #8d7a70;
      }

      .cls-143 {
        fill: #5d723a;
      }

      .cls-144 {
        fill: #e6cfcb;
      }

      .cls-145 {
        fill: #f5962a;
      }

      .cls-146 {
        fill: #f5942a;
      }

      .cls-147 {
        fill: #e7e7e7;
      }

      .cls-148 {
        fill: #9a9f79;
      }

      .cls-149 {
        fill: #79919e;
      }

      .cls-150 {
        fill: #bbcfd0;
      }

      .cls-151 {
        fill: #c4c6c9;
      }
    </style>
  </defs>
  <g id="muren_pafond_grond" data-name="muren, pafond, grond">
    <polyline class="cls-53" points="111.85 145.06 0 0 0 0 1920 0 1808.15 145.06"/>
    <polygon class="cls-134" points="1920 0 1808.15 145.06 1808.15 899.19 1920 1080 1920 0"/>
    <polygon class="cls-134" points="0 0 111.85 145.06 111.85 899.19 0 1080 0 0"/>
    <rect class="cls-123" x="111.85" y="145.06" width="1696.3" height="754.13"/>
    <g>
      <path class="cls-63" d="M1003.23,955.4c9.79-4.65,20.08-2.9,30.14-1.88,7.92.81,15.81,1.36,23.76,1.36,110.11,0,220.23,0,330.34,0,7.19,0,14.37-.22,21.54-.5,5.35.16,9.64,2.8,13.67,5.99,2.14,1.68,4.65,2.75,7.07,3.98,4.58,3.02,8.67,6.86,14.13,8.43,3.71,1.78,8.73.42,11.4,4.71,7.31,8.79,18.11,6.95,27.29,7.53,28.8,1.82,57.44-1.45,85.86-6.19,10.14-1.69,19.94-4.73,28.79-10.08,8.41-5.09,7.33-6.91.59-13.8-7.92-8.1-19.29-10.65-26.76-18.94,2.52-11.09.95-26.12,5.8-36.84h45.18c5.81,6.98-6.13,16.59-7.94,23.08-.83,2.98-5.46,6.59,1.05,8.76,17.63,3.61,35.64-.22,53.26,2.95,13.12,2.15,26.29,1.22,39.36.07,8.26-.72,16.49-1.4,24.74-1.44,1.06-.37,2.15-.73,3.21-1.13,7.8-2.78,16.56-.27,24.41-4.71-9.23-1.96-19.02-.15-27.61-4.75-3.91-5.2-12.23-15.46-8.45-22.84,28.07,0,56.11-.04,84.12,0,108.49,175.35,3.36,5.46,111.85,180.81-285.58-.27-674.42,0-960,0H0l111.85-180.81c2.55-2.44,313.07-.77,316.54-.78,29.97-.12,48.07.76,99.41.76,8.16,3.82-5.25,11.89-7.87,16.7-7.06,12.94-16.01,24.74-23.34,37.52-6.23,7.26-3.02,12.15,3.98,16.2,4.95,2.86,10.3,4.78,15.77,6.04,21.96,5.06,44.03,9.46,66.76,8.93,20.61,3.4,41.59,4.05,62.21,4.08,42.68.05,85.5-1.35,127.31-12.04,5.69-1.46,10.32-4.57,14.82-8,3.75-6.99-1.8-12.11-3.74-17.88-2.6-7.7-8.52-14.41-6.77-23.38,3.14-5.72,8.94-4.76,14.02-5.47,14.19-1.97,28.47-3.5,41.76-9.57-.44-3.26-3.75-2.38-5.08-4.07-1.24-1.27-2.18-7.41-.54-9.04,27.85.12,57.88-.12,85.73,0,4.66,11.79-2.12,27.09-7.9,37-7.33,5.66-16.05,6.16-24.77,6.44-9.71.32-19.48-.32-29.9,1.98,29.45,1.74,57.99,5.2,86.73,3.79,18.2-.9,36.16,2.79,54.34,2.64,4.08-.03,9.49-.43,10.31,6"/>
      <path class="cls-75" d="M903.64,934.21c2.33,3.46-5.68,9.1,1.81,11.02,6.61,1.7,7.33-4.58,9.28-8.79.76-1.65,1.7-3.21,2.55-4.81,7.08-1.54,14.34-1.56,21.46-1.39,47.28,1.14,94.49-1.85,141.72-2.88,62.38-1.37,124.76-2.75,187.12-1.61,36.65.67,73.29,2.35,109.96,1.93,6.36-.07,13.1.78,17.37-5.7,2.26-2.14,5.36-2.77,6.24.43,3.08,11.16,9.14,20.98,13.4,31.58.41,1.03-.54,2.08-1.17,3-5.84,1.72-11.76,2.29-17.88,2.29-115.08-.09-230.16.07-345.24-.22-16.18-.04-32.31-3.03-48.58-2.12l.03.04c-1.62-1.93-3.82-2.37-6.14-2.25-21.56,1.15-42.88-3.31-64.47-2.42-29.07,1.2-57.98-2.08-86.91-4.46-3.01-.25-7.15-.13-7.04-3.88.14-4.34,4.66-2.24,7.29-2.96,19.39-5.27,40.18,1.76,59.19-6.79Z"/>
      <path class="cls-119" d="M792.54,968.72c-10.62,14.47-27.87,14.66-42.64,17.01-32.71,5.21-66.06,8.08-99.11,6.93-23.14-.8-46.89,1.2-69.65-5.82-.43-.45-.85-.89-1.28-1.33.52-19.32,8.93-36.44,15.24-54.12.64-1.8,2.61-2.65,4.75-2.17,10.98,5.73,22.84,2.77,34.33,3.41,6.37.35,12.76-.16,19.13-.11,4.67-.16,8.71,4.42,13.73,1.8,32.85.75,65.04,6.2,96.98,13.43,4.05.92,8.04,1.99,12.24,1.44,8.93,3.57,9.83,13.86,16.28,19.52Z"/>
      <path class="cls-119" d="M581.14,986.84c-1.72.65-3.56,2.08-5.15,1.84-24.77-3.75-50.23-4.05-73.75-14.22-2.08-.9-4.15-1.87-6.05-3.09-9.56-6.12-10.11-11.39-2.12-19.04,5.78-1.73,8.69-7.91,14.61-9.46,21.85-5.97,44.26-8.05,66.71-9.85,3.37-.27,6.77.2,9.72,2.2,4.78,6.97.47,13.69-.58,20.51-1.56,10.11-7.54,19.64-4.02,30.42,0,0,.62.69.62.69Z"/>
      <path class="cls-105" d="M1479.13,981.74c.92.02,1.83.04,2.75.06,9.62-6.64,20.82-5.69,31.63-6.6.82-.03,1.65-.06,2.47-.08,9.19-4.94,19.33-7.91,28.13-13.67.93-.53,1.9-.99,2.87-1.42,9.96-7.04,16.82-15.69,15.65-28.84-.26-2.93.35-5.96,2.5-8.34,10.2.23,2.8,10.13,7.38,13.46,12.86.27,19.37,11.37,29.04,17.08,10.03,5.92,9.77,11.76-.77,17.89-11.91,6.92-25,10.79-38.44,12.57-26.1,3.44-52.3,6.52-78.73,4.87-7.48-.47-14.97-1.28-22.37-2.47-4.74-.77-7.92-3.97-9.17-8.79,9.86-3.9,18.58-.65,27.04,4.29Z"/>
      <path class="cls-14" d="M1725.13,915.92c5.08,5.24,2.17,15.43,11.27,18.17-22.68,4.04-45.38,7.36-68.39,2.62.21-.53.41-1.05.61-1.58,6.5-3.63,1.56-12.41,7.34-16.38,9.83-3.65,20.05-1.59,30.09-1.93,6.36-.22,12.74-.01,19.07-.9Z"/>
      <path class="cls-113" d="M1668.08,920.33c.18,3.08.36,6.15.54,9.23,1.81,2.08,1.71,4.2.14,6.35,0,0-.76.8-.76.8-18.93-1.16-38.05,1.73-56.83-2.6-1.29-7.28.72-12.83,8.16-15.55,11.67.08,23.2-2.53,34.91-1.91,4.88.26,9.87-.03,13.82,3.67Z"/>
      <path class="cls-135" d="M778.36,927.85c-2.51-3.47-3.96-7.34-4.34-11.61,13.26-5.32,27.09-1.5,40.63-2.38,5.87-.38,11.23-.58,13.96-6.83,1.51-.02,3.02-.18,4.52-.05,2.99.26,6.97.54,7.3,3.8.33,3.27-3.4,4.27-6.39,5.21-15.06,4.71-30.22,8.74-46.14,9.3-3.19.11-6.79.11-9.52,2.57Z"/>
      <path class="cls-55" d="M1736.31,934.1c.9-4.77-1.84-8.83-2.59-13.28,11.72,2.43,24.36-.25,37.8,6.06-12.72,5.67-23.96,6.48-35.21,7.22Z"/>
      <path class="cls-3" d="M1625.56,899.19h42.45c.03,5.55.05,15.59.08,21.14-12.89,1.05-25.96-1.3-38.75,2.29-4.03,1.13-8.08-.35-11.79-2.28,2.36-5.93,5.66-15.23,8.02-21.15Z"/>
      <path class="cls-63" d="M929.36,899.19c80.63-.03,161.17,0,241.8,0,75.36,0,151.33-.03,226.69-.01.18,5.36-.33,15.79-.15,21.15.85,8.36-1.87,12.02-11.31,11.8-28.38-.64-56.9,1.43-85.14-.62-46.89-3.41-93.77-1.98-140.6-1.43-44.2.52-88.52.02-132.59,2.55-33.62,1.93-67.25-.85-100.73,2.65-3.85.4-7.63.12-10.05-3.65,3.46-9.34,6.81-23.88,12.07-32.44Z"/>
      <path class="cls-116" d="M1718.47,899.19c2.06,5.15,4.6,11.59,6.65,16.73.3,4.49-1.56,5.13-6.02,4.95-14.57-.59-29.18-.32-43.77-.37,0-5.44-.04-15.87-.04-21.3"/>
      <path class="cls-55" d="M662.53,918.55c3.32-8.45,11.08-5.14,16.61-5.27,19.62-.48,39.27.04,58.9.57,5.33.14,9.49-1.75,13.54-4.65,3.14,5.23,8.22,9.3,9.37,15.71-16.42,2.34-32.69,2.66-49.35.59-16-2-32.46.53-48.55-2.6-.17-1.45-.34-2.9-.52-4.35Z"/>
    </g>
  </g>
  <g id="Laag_3" data-name="Laag 3">
    <path class="cls-52" d="M915.47,508.9c-2.84-43.94-24.22-65.41-25.43,3.22.99-1.28-.2-40.47.61-41.76,10.01-16.08,6.17-33.16,6.29-49.42.37-49.5.13-99,.13-148.49h4.55c0,57.56.18,115.12-.18,172.67-.06,10.04,1.38,18.66,9.44,25.26.56,3.38,7.72,38.24,4.6,38.53Z"/>
    <path class="cls-96" d="M914.92,890.85c-4.68-2.06-9.66-1.45-14.54-1.56-38.2-.83-59.4-20.9-62.29-58.9-2.15-28.23-4.46-56.46-6.63-84.69-2.18-28.3,3.45-35.06,36.44-27.7,4.65,3.08,5.53,7.83,5.68,12.88.59,19.58,5.72,38.84,4.1,58.61-.23,2.84,2.36-.9,3.54.23,4.15-.56,8.26-.93,12.44-.92,100.2.1,200.39,0,300.59.11,7.07,0,14.49-1.17,20.79,3.61,3.25,16.07,1.96,32.32.75,48.4-.66,8.86-8.74,10.28-16.44,10.28-31.43,0-62.87-.61-94.28.13-62.83,1.49-125.66.72-180.56,1.01,40.61,0,89.19,1.1,137.69-.3,50.7-1.47,101.42-1.38,152.08-1.2,72.67.27,145.35-.81,217.99.83,6.08,2.21,5.01,5.66,1.17,8.96-7.9,6.79-14.23,15.26-22.81,21.32-3.59,3.61-5.34,9.33-11.52,9.94-6.73,1.68-13.59,1.15-20.39,1.15-131.54.03-263.08.13-394.63-.11-16.69-.03-33.28,1.96-49.96,1.51-6.64.11-13.61,1.92-19.21-3.59Z"/>
    <path class="cls-96" d="M1561.23,718.05c8.54-4.3,17.73-3.04,26.42-1.73,7.7,1.16,10.59,7.75,10.31,15.29-.56,15.33-1.27,30.66-1.92,45.98,1.9,4.08,3.54,8.22,2.69,12.88-.11,2.52-.1,5.05-.63,7.54-1.42,11.97-2.39,24-3.88,35.94-2.21,17.77-6.27,35.09-24.15,44.64-3.18.54-5.43-1.03-7.38-3.26-1.81-2.34-4.07-4.22-6.5-5.91-2.44-2.27-4.75-4.7-7.49-6.65-1.2-.92-2.29-1.95-3.33-3.05-2.13-3.6-8.55-4.55-6.73-10.69.03-.09-.05,0-2.05,1.4-7.99,5.61-13.41-2.23-21.01-2.91-4.07-1.26-7.79-3.92-12.4-2.94-1.8.12-3.57-.06-5.36-.22-17.1-.85-33.32,4.71-50.01,6.82-70.11.05-140.2.04-210.29.02-18.44,0-22.18-3.54-21.92-21.78.16-11.3-1.48-22.69,1.21-33.91,3.24-6.03,9.16-6.15,14.81-6.41,10.22-.48,20.45-.2,30.68-.2,88.64-.02,177.27.03,265.91-.09,6.69,0,13.62,1.39,20.02-1.84,7.73-15.12,3.94-31.88,6.71-47.71,1.29-7.39.43-15.22,6.29-21.19Z"/>
    <path class="cls-88" d="M682.13,703.98c-6.4-.02-12.9.71-19.13-1.65-3.6-1.88-4.86-4.67-3.37-8.54,2.17-3.29,5.63-3.61,9.08-3.96,1.97-.45,3.96-.49,5.94-.14,5.16.25,9.43,2.78,14.6,2.71h20.25c35.4,0,56.29.4,89.39,0,14.35,0,14.36-3.96,14.52-17.93.26-23.37-.27-46.75.23-70.12-.55-4.03.04-8.07-.2-12.11-.47-24.97.03-49.94-.29-74.91-.16-12.12-1.01-13.13-12.92-13.17-55.63-.19-111.26-.22-166.89.01-13.06.05-13.9,1.07-14.05,14.6-.25,23.83.04,47.67-.1,71.5-.64,4.73.17,9.51-.38,14.25.25,13.01.54,26.02-1.79,38.92-3.34,3.95-6.6,6.11-9.44-.45-.03-105.64.06-211.29-.29-316.93-.03-9.05,3.36-10.61,11.3-10.58,69.31.24,138.63.15,207.94.16,1.6,8.49,2.3,17.05,2.29,25.69-.01,44.87.74,89.75-.39,134.59-.42,16.53,4.23,32.77,1.36,49.25-.04,1.5-.42,2.9-1.16,4.21-1.8,5.88-1.61,11.94-1.61,17.98.02,118.89.04,237.77.06,356.66.5,1.01,1,2.01,1.51,3.02.22,8.34-5.66,9.61-11.95,10.04-14.27.99-28.55,1.25-42.83.25-3.56-1.19-5.29-4.12-6.69-7.27-4.06-9.14-1.09-14.62,8.96-15.79,9.04-1.05,18.16-.32,27.25-.52,6.33-.14,9.96-2.4,9.99-9.3.11-25.74.27-51.48-.07-77.23-.04-3.14-2.01-4.68-3.55-6.72-1.57-3.32-1.08-6.43.88-9.41,3.58-3.56,3.7-8.12,3.48-12.7-.81-16.62-.65-33.25-.43-49.88"/>
    <path class="cls-50" d="M1677.25,527.04c9.21,1.2,18.71-1.62,27.74,1.99-4.06,3.62-4.99,7.64-3.2,13.06,5.25,15.91,7.36,32.28,6.62,49.1-.49,11.14-2.13,21.76-8.73,31.47,10.05,3.25,21.37-3.15,30.23,4.89-14.09,3.12-28.4,2.05-42.58,1.64-7.77-.22-10.7,1.64-10.58,9.76.14,9.68,1.25,19.51-1.24,29.12-5.86-4.4-3.09-10.82-3.91-16.42-1.09-7.4,3-15.62-3.45-22.18-18.46-.72-36.91-1.71-55.38-2.05-8.12-.15-9.58-3.19-7.41-10.5,7.82-26.36,15.44-52.78,22.71-79.29,1.69-6.16,4.72-8.56,10.91-8.61,5.62-.05,11.34-1.97,16.84-1.38,7.66.83,10.41-3.19,12.23-9.25,3.26,2.68,6.09,5.82,9.22,8.63Z"/>
    <path class="cls-145" d="M1504.57,647.16c10.09,1.44,21.18-2.56,30.07,5.48,10.13,12.77,5.03,26.85,3.37,40.58-.21,1.74-1.6,3.35-2.06,5.17-.46.67-.91,1.34-1.37,2.01-3.83,8.13-.89,16.67-1.51,24.99.34,15.51,2.26,31.09-1.94,46.4-3.91,4.59-8.76,2.8-13.25,1.56-6.02-1.66-11.95-3.63-18.13-4.64-9.97-2.79-19.94-2.43-29.92.02-3.45.57-6.88.47-10.31-.15-4.78-1.25-9.62-1.63-14.56-1.62-58.11.05-116.22.05-174.34,0-4.93,0-9.79.24-14.56,1.55-3.37.59-6.71.59-9.89-.89-4.09-7.63-9.07-14.22-17.23-18.3-4.52-2.26-7.02-7.25-7.13-12.29-.18-8.96-3.62-16.85-6.76-24.92-1.03-8.07-.39-16.18-.59-24.25-1.4-9.96,3.26-19.38,2.63-29.29,3.35-11.56,12.9-11.03,21.97-11.04,63.98-.06,127.96,0,191.94-.07,4.48,0,9.11.87,13.43-1.24,13.59-4.76,27.55-1.6,41.33-1.9,1.21,0,2.42.01,3.63.03,1.18,0,2.37,0,3.55.02,2.92-.05,5.85-.09,8.65.99,1.04.52,2.02,1.11,2.97,1.79Z"/>
    <path class="cls-126" d="M1513.61,463.25c7.22-8.61,14.52-17.16,21.65-25.85,5.84-7.12,12.97-12.6,20.62-17.59,6.53-4.26,10.78-4.38,11.18,4.95.1,2.21.72,4.4,1.31,7.79,5.58-5.26,5.57-12.24,8.67-20.3,7.61,15.05,10.63,28.53,5.46,42.07-7.27,19.04-16.57,37.3-24.1,56.26-5.29,13.32-15.13,21.11-27.24,27.29-3.9,1.99-8.84,2.74-11.14,7.3-1.01.81-2.06.85-3.15.15-6.35-5.78-9.19-13.19-10.02-21.55,3.13-15.44,2.94-31.11,3.45-46.75.15-4.69-.46-9.84,3.3-13.78Z"/>
    <path class="cls-126" d="M1482.42,597.35c-.02-5.44-1.14-8.77-8.18-8.92-10.67-.23-19.52-5.35-25.63-14.43-13.27-19.71-26.71-39.32-39.63-59.26-6.14-9.47-9.11-19.9-4.66-31.2,1.53-3.88,2.61-8.39,8.02-8.05,5.21.33,4.76,5,5.67,8.5.47,1.81.61,3.77,3.71,5.11-.58-12.56,6.15-9.52,13.1-6.32,7.17,3.3,14.91,5.58,20.47,11.69,1.72,1.9,3.64,2.62,5.83.67,6.82,10.57,14.62,20.42,21.06,31.33,4.46,7.56,10.62,13.82,9.43,23.45.79,6.56.78,13.13.62,19.71.45,8.74-5.05,16.07-5.77,24.54-.8,1.74-1.81,3.23-4.02,3.18Z"/>
    <path class="cls-127" d="M1488.15,547.55c-3.06-14.12-11.79-25.33-20.06-36.44-3.82-5.13-6.44-9.87-6.98-15.99,4.75-28.21,11.9-55.86,19.47-83.41.2-.72.58-1.39.87-2.09,2.25-5.54,6.52-9.06,12.28-7.57,7.8,2.02,1.57,8.07,2.6,13.25,7.93-4.8,9.8-1.08,11.2,6.65,2.5,13.71,4.31,27.49,6.08,41.29-.42,20.76,2.89,41.83-5.14,61.96-3.61,10.32-7.49,20.39-20.32,22.34Z"/>
    <path class="cls-146" d="M1217.1,658.57c5.06.99,5.59,3.97,3.78,8.21-2.66,6.25-3.58,12.82-3.1,19.59-1.03.84-2.21,1.24-3.55,1.18-4.25-.9-6.68-3.85-8.5-7.5-3.75-15.07-15.41-18.75-28.65-18.97-32.95-.55-65.89-1.14-98.79,2.41-22.57,2.44-45.25,4.49-67.99,3.97-23.16-.53-46.17,1.47-69.25,2.49-16.45.73-22.38,5.5-26.45,21.13-1.05,4.03-1.69,8.18-3.83,11.83-1.74,2.41-3.74,3.45-6.76,1.8-.6-.33.49-3.31-2.05-1.2-3.19,2.64-3.62-.48-3.67-2.72-.18-7.57.03-15.14-.11-22.71-.08-4.07.63-8.04-1.27-12.19-3.41-7.46,4.92-10.7,6.87-16.33,5.21-3.36,11.05-1.94,16.6-1.95,89.43-.1,178.87.08,268.3-.22,11.39-.04,20.6,3.21,28.4,11.17Z"/>
    <path class="cls-33" d="M1504.57,647.16l-1.05.03h-1.05c-5.74-8-1.76-15.8.44-23.62.71-1.07,1.73-1.59,3.01-1.57,1.99,1.47,3.14,3.01,1.6,4.13,1.99-7.95-1.4-18.63,6.78-25.84,7.64-16.33,18.2-30.27,32.58-41.4,5.51-4.26,9.02-5.63,10.52,6.05,3.41-10.75,5.86-18.42,16.76-17.76,6.54.39,4.59,5.46,6.73,9.31,6.36-6.33,13.07-4.98,21.25-.36-29.79,12.65-41.69,40.46-58.42,64.14-7.23,10.24-18.75,15-29.86,19.92-3.64,1.61-8.52,1.56-9.29,6.98Z"/>
    <path class="cls-70" d="M1359.02,524.82c2.24.2,3.21,1.42,3.26,3.67.3,12.99-2.75,26.03.95,39,1.08,3.77-2.67,3.99-5.08,4.42-17.88,3.23-35.81,6.02-53.64-.16-.88-.3-1.52-1.54-2.13-.15-3.48,7.94-7.53,2.28-11.31.48-5.55-2.64-5.47-7.72-4.84-12.67,1.36-10.79,2.98-21.54,4.49-32.3,2.72-1.24,3.03-7.53,8.1-3.85,1.71,2.61,1.34,5.66,1.81,8.38-.45,1.61,2.41.31.89.31-.75,0-.81-.26-.78-.81.25-4.64,1.97-5.87,6.44-3.61,17.12,8.67,30.81,7.91,41.6-5.58,8.47-10.59,7.92-1.72,10.24,2.86Z"/>
    <path class="cls-15" d="M1595.33,790.83c.24-4.42.48-8.83.72-13.25,22.03-1.77,43.85-6.1,66.09-5.02,6.31.31,5.98-4.18,6.01-8.43.12-18.43.27-36.86.41-55.29,6.17,1.34,4.02,6.41,4.09,10.02.27,14.56-.04,29.13.22,43.69.06,3.35-2.11,7.6,2.44,9.98,9.01.06,18.01.11,27.02.17,8.97,5.78,18.46,6.96,28.66,3.67,3.17-1.02,6.61-.47,9.88.42,5.46,1.28,11.32,1.87,15.62,5.79,3.39,3.09,3.87,7.09.63,10.93-6.28-1.79-11.63,2.2-17.49,2.84-41.54,4.57-83.09,7.45-124.71.55-6.89-1.14-14.61,1.01-19.58-6.09Z"/>
    <path class="cls-54" d="M1001.89,604.57c-.07-64.78-.05-129.56-.34-194.34-.03-7.58,1.86-10.66,10.12-10.63,64.42.29,128.84.24,193.26.04,7.4-.02,10.81,1.51,10.77,9.98-.31,62.51-.15,125.02-.2,187.53,0,3.29.89,6.94-2.36,9.48-1.97-1.08-3.76-2.36-4.69-4.52-2.36-6.19-1.74-12.69-1.75-19.09-.07-52.99.04-105.98-.08-158.97-.03-14.83-.55-15.34-15.39-15.36-55.27-.09-110.55-.09-165.82,0-14.17.02-14.76.59-14.79,14.76-.13,53.75,0,107.49-.1,161.24-.01,6.37.78,12.94-2.73,18.85-1.67,2.02-3.64,2.34-5.9,1.04Z"/>
    <path class="cls-72" d="M903.79,649.57c-2.82,3.38,3.78,11.43-5.72,11.57-.19,0-.55,1.86-.5,1.88,13.12,4.55.59,11.65,1.52,17.46,1.11,6.93.26,14.17.26,21.74,3.96-2.31.96-6.11,3.5-8.92,2.49,3.54-1.28,10.42,5.57,11.22,4.91,7.07,3.5,15.27,3.96,23.07.94,15.98,4.66,20.37,21.12,22.31,12.4,1.46,24.94,1.51,37.4,2.21,61.26,3.42,122.55,4.16,183.77-1.38,16.39-1.49,31.98-5.79,46.8-12.83,8.24,2.3,4.33,7.22,1.92,11.05-4.62,7.36-12.27,9.09-21.46,9.39.37,3.47,8.64,6.57,1.32,10.04-16.64,3.05-33.31,1.97-50,.67-5.49-1.49-11.04-2.11-16.77-2.1-51.7.09-103.41.07-155.11.03-4.93,0-9.8.22-14.54,1.62-8.31,1.09-16.64,2.1-25.05,1.33-6.99-4.19-11.53-11.42-19.12-15.1-5.23-2.53-3.28-7.5-2.44-11.94,1.83-9.68,3.6-19.42-1.05-28.89-3.97-17.69-1.6-35.8-3.49-53.65-.54-5.09,2.73-9.18,8.11-10.77Z"/>
    <path class="cls-97" d="M1729.91,627.56h-37.73c22.6-32.89,10.61-65.08,2.75-97.52,3.43-.34,6.75-.68,10.07-1.01,5.97-.36,9.5,1.64,11.45,8.07,7.66,25.24,16.04,50.26,24.02,75.41,4.49,14.15,4.38,14.19-10.55,15.06Z"/>
    <path class="cls-44" d="M1488.39,647.06c-14.67.34-29.35,1.81-43.96-.84-15.32-18.22-30.3-36.76-46.14-54.52-6.21-6.97-5.7-14.38-5.17-22.25.24-3.51,3.42-6.81,5.91-3.84,14.61,17.47,31.82,32.38,47.27,48.99,1.17,1.25,1.29,3.48,2.07,5.79,3.61-4.02,6.84-5.33,11.24-1.02,7,6.86,14.65,13.05,22.02,19.53,1.71.81,3.87.01,5.42,1.48,1.66,1.99,2.69,4.1,1.34,6.69Z"/>
    <path class="cls-20" d="M878.71,791.1c-7.7,1.36-3.94-4.69-4.22-7.25-2.42-21.92-4.45-43.89-6.6-65.85,10.47.26,19.76,5.02,29.57,7.76,3.39,1.1,5.36,4.14,4.6,6.93-3.5,12.85,1.45,25.09,2.09,37.6-5.3,10.8-15.85,15.22-25.44,20.82Z"/>
    <path class="cls-65" d="M1529.18,772.77c1.49-15.81-2.02-31.89,2.62-47.53.5-1.47,1.3-1.65,2.38-.54,9.24-1.33,17.43-6.89,27.06-6.65-1.89,19.47-4.42,38.89-4.82,58.5-.09,4.41-.73,9.07-4.34,12.46-9.51-2.76-18-6.98-22.89-16.24Z"/>
    <path class="cls-29" d="M828.64,529.38c.09-.58.15-1.16.18-1.74,3.19-22.59,26.66-36.95,52.13-31.47-7.5-5.11-14.95-4.7-22.69-2.25-3.55,1.12-6.88,3.24-10.85,2.74-1.7-.52-3.02-1.32-2.48-3.44,20.2-12.43,29.24-12.54,43.24-.57,2.57,1.69,5.8,1.51,8.46,2.98.88,1.95,1.13,4.33,5.05,5.73-.3-9.22,2.23-17.55,4.89-25.85,1.43-1.71,2.87-3.43,4.3-5.14,5.52,3.07-1.61,5.96-.12,8.97-.97,9.37,4.92,5.47,9.17,4.74,4.25-.24,8.81-.15,12,2.55,11.71,9.9,25.36,17.63,35.78,30.77-6.3-.61-7.89-6.35-13.12-7.52.7,5.83,1.37,11.47,2.05,17.1.55,2.32,1.81,5.03-2.58,4.55-.51-7.27-2.45-14.28-6.08-20.43-5.52-9.36-14.05-9.91-24.06-2.33-5.21,2.7-9.46-.48-13.94-2.27,1.36-10.07,4.26-12.19,18.58-13.55-12.08-1.22-16.22,1.58-20.42,13.82-1.23,3.26-4.04,4.22-7.05,4.16-6.53-.13-10.85,3.56-14.84,7.97-4.14.55-8.01,1.9-11.58,4.11-1.97,4.44-3.94,8.88-7.22,16.27.6-14.83,8.02-23.78,10.86-34.62-11.39-5.89-19.4-5.23-30.01,4.49-6.92,6.34-13.12,13.46-19.64,20.23Z"/>
    <path class="cls-142" d="M1595.33,790.83c10.09,3.75,20.88,3.13,31.27,4.31,37.25,4.21,74.54,2.03,111.7-2.12,4.42-.49,8.86-2.07,12.95-3.9,5.28-2.37,5.77.49,5.86,4.42-10.55,6.96-22.87,6.89-34.69,8.35-11.95,1.47-24.03,1.85-36.06,2.7-1.35,1.34-2.51,2.92-4.41,3.57-2.76.85-5.71,1.37-7.33,4.25-1.84,34.35-.19,68.68-.91,102.98-.11,5.22,2.18,11.72-5.03,14.71-3.31-2.19-3.87-5.54-3.84-9.13-.71-5.38-.82-10.78-.11-16.17-1.05-27.34-.08-54.7-.57-82.05-.07-3.88,1.72-8.3-1.95-11.63-1.7-2.92-4.23-3.66-7.41-2.69-15.68-1.83-31.49-2.21-47.07-4.76-4.78-.78-9.88-.97-12.55-6.11.05-2.25.1-4.5.16-6.75Z"/>
    <path class="cls-77" d="M1704.4,743.49c-7.53-9.09-5.4-21.16-9.99-31.26,3.88-1.45,5.94,3.16,9.32,2.4,2.28-3.56-2.65-6.33-.44-10.48,4.73,1.13,6.26,6.68,10.57,8.61,3.63-4.79,0-11.29,4.22-16.33,6.92,6.45,2.98,16.1,7.49,23.82,5.15-7.13,7.81-15.5,16-19.65-1.35,14.51-.29,29.04-7.94,41.93-9.52,7.23-19.3,6.39-29.23.96Z"/>
    <path class="cls-115" d="M1704.4,743.49c9.74-.32,19.49-.64,29.23-.96,7.38,6.65,5.47,14.66,3.43,22.76-1.15,4.57-.75,5.74-.12,10.76-2.22,1.33-11.39,3.72-20.25,3.05-7.44-.56-11.42-1.92-14.36-6.39-.89-9.85-6-20,2.07-29.22Z"/>
    <path class="cls-102" d="M1535.95,698.4c-2.27-9.69,1.08-19.32.32-29.02-.44-5.59.96-11.35-1.63-16.74,4.76-1.13,9.5-2.3,14.27-3.38,1.69-.38,4.81-1.69,4.83.46.12,12.83,6.93,4.59,11.3,3.65,2.49,15.44-10.27,35.08-29.08,45.03Z"/>
    <path class="cls-83" d="M1675.31,772.54c-.85,2.74.59,6.1-4.08,9.77-2.59-25.28.89-49.59-2.67-73.46-.14-26.45-.28-52.91-.42-79.36,5.86-1.1,6.93,2.08,6.91,7.08-.06,10.51.28,21.02.46,31.52-.06,34.81-.13,69.63-.19,104.45Z"/>
    <path class="cls-151" d="M1360.75,501.91c.4,3.34,1.14,6.73-1.45,9.61-3.86,1.05-6.32,3.92-8.61,6.87-13.73,17.69-34.97,18.44-50.78,2.89-2.6-2.56-4.75-6.1-9.26-5.57-3.7-3.32-1.98-7.59-2.02-11.55,5.12-3.41,9.65.08,13.72,1.96,15.28,7.07,29.91,4.12,44.53-1.69,4.48-1.78,8.72-4.62,13.89-2.54Z"/>
    <path class="cls-141" d="M914.92,890.85c6.23-.94,12.46-.98,18.69.02,3.6,5.51-1.05,9.75-2.18,14.54-4.2,9.42-7.53,19.2-11.87,28.57-1.17,2.38-1.77,5-3.24,7.23-3.15,4.76-7.31,8.74-13.06,5.52-6.64-3.71-1.33-8.35.39-12.53,3.03-9.78,5.96-19.58,7.01-29.83,1.42-4.51,2.85-9.02,4.27-13.54Z"/>
    <path class="cls-103" d="M1681.55,807.15c.89-2.19,2.67-2.71,4.81-2.57,13.19,33.53,25.91,67.25,41.13,99.94,2.08,5.43,4.16,10.87,6.23,16.3,4.41,3.73,6.7,7.88,2.59,13.28l.08-.02c-5.64,2.95-7.19-1.76-9.12-5.13-2.05-3.59-2.59-7.85-4.46-11.55-2.63-5.64-4.59-11.56-7.37-17.13-10.71-27.23-22.25-54.14-32.88-81.4-1.45-3.71-3.83-7.55-1.02-11.72Z"/>
    <path class="cls-49" d="M1290.63,515.72c1.21-1.36-2.87-8.58,3.91-3.67,2.7,1.96,5.07,4.51,7.2,7.11,13.77,16.85,36.18,12.25,48.19-3.57,4.99-6.57,5.05-6.52,9.37-4.07-.09,4.43-.18,8.86-.27,13.29-4.55.79-.82-5.8-5.84-5.32-1.13,14.11-18.07,10.16-23.76,20.01-7.6-6.28-20.31-.77-26.35-13.59-1.11,5.62-1.8,9.08-2.49,12.55-.7-5.49-2.34-10.64-3.12-15.93-3.79-.74-5.04-4.03-6.83-6.78v-.03Z"/>
    <path class="cls-24" d="M1288.42,497.63c-2.52-.58-5.17-.88-7.45-3.73,3.91-3.53,8.58-2.98,13.24-3.13,20.94-.68,41.92,1.44,62.84-1.28,3.68-.48,9.63-.73,3.99,5.91-1.24,1.05-2.46,2.14-4.03,2.68-17.63,5.81-35.79,3.35-53.78,3.28-2.76-.01-5.09.63-7.51,1.61-4.2.63-5.52-2.68-7.3-5.35Z"/>
    <path class="cls-146" d="M901.35,772.54c-3.63-15.4.27-31.43-3.89-46.78,2.34-3.67.74-7.9,1.71-11.77,1.32-4.12,4.15-5.94,4.3-.24.26,9.93,3.87,19.89.07,29.96-1.05,2.78-6.95,9.5,4.23,7.7,1.82-.29,7.55,9.23,12.43,13.41.46.39-.23,2.14-.39,3.25-5.38,4.69-10.79,9.24-18.47,4.48Z"/>
    <path class="cls-25" d="M919.99,527.3c-3.15,6.51-4.56,14.41-14.88,13.75-9.8-.63-20.89,2.51-24.32-11.36-.98-2.86.9-4.87,2.98-5.07,11.84-1.14,23.74-3.68,35.59-.19,1.09.32,1.09,1.76.63,2.87Z"/>
    <path class="cls-18" d="M1001.89,604.57c1.54-.09,3.09-.19,4.63-.28,4.52-4.46,10.36-4.13,15.98-4.14,57.39-.12,114.77-.11,172.16,0,5.61.01,11.46-.38,16,4.08.83.8,1.67,1.6,2.5,2.4-67.65.06-135.3.12-202.95.14-2.9,0-6.16.83-8.31-2.2Z"/>
    <path class="cls-111" d="M919.99,527.3c-13.19-1.28-26.36-2.19-39.2,2.39-2.53-1.78-2.06-6.32-6.13-6.68,2.15-4.53,5.88-5.87,10.59-5.25,8.15-4.18,16.94-3.62,25.67-3.44,4.14,2.36,8.79-.88,12.96,1.16-1.3,3.94-2.6,7.88-3.89,11.82Z"/>
    <path class="cls-132" d="M1288.42,497.63c2.21,1.5,4.41,3.01,6.62,4.51,2.75-2.42,5.67-1.38,8.53-.33,18.68,6.87,36.06,3.2,52.72-6.44,1.58,0,3.16.02,4.74.03-.1,2.17-.19,4.34-.29,6.52-23.65,13.43-47.64,15.79-72.14,2.26-.06-2.18-.13-4.36-.2-6.54Z"/>
    <path class="cls-104" d="M1518.04,545.31c.66-.13,1.32-.17,1.98-.13-4.29,16.3-9.21,32.49-9.01,49.61-.72,1.18-1.77,1.71-3.15,1.57-1.3-.36-2.22-1.15-2.79-2.37-1.52-14.62,2.42-28.47,6.3-42.27.87-3.07,2.07-6.75,6.66-6.41Z"/>
    <path class="cls-12" d="M923.89,515.48c-4.36.84-8.63,5.64-13.15.34-3.92-1.14-4.24-1.99-3.22-8.58.54-.91,1.33-1.29,2.38-1.12,5.41-3.04,9.59.48,14.02,2.65-.01,2.24-.02,4.47-.03,6.71Z"/>
    <path class="cls-106" d="M1326.09,440.28c7.7,9.27,27.28,37,30.95,49.21-7.53-9.44-27.16-36.95-30.95-49.21Z"/>
    <path class="cls-106" d="M1326.09,440.28c-5.04,10.95-24.51,44.59-33.94,53.16,5.27-10.87,24.51-44.45,33.94-53.16Z"/>
    <path class="cls-137" d="M1485.93,640.96c-1.68-.17-3.44-.18-4.3-2.06,4.96-13.76,1.94-27.67.79-41.55.45-.35.92-.68,1.39-1,1.51-.94,3.43-.8,3.71.78,2.55,14.7,4.93,29.44-1.58,43.83Z"/>
    <path class="cls-4" d="M1677.25,527.04c-6.95,1.26-10.16-1.48-9.22-8.64,9.61-4.1,9.2,2.5,9.22,8.64Z"/>
    <path class="cls-151" d="M1290.64,515.75c2.86,1.68,5.25,3.81,6.83,6.78-2.89.58-1.32,7.74-6.75,4.58-.03-3.79-.05-7.57-.08-11.36Z"/>
    <path class="cls-124" d="M1534.18,724.7c-.79.18-1.59.36-2.38.53,1.17-8.25-2.96-17.1,2.79-24.83-.13,8.1-.27,16.2-.4,24.3Z"/>
    <path class="cls-128" d="M1547.48,859.19c.81.75,1.63,1.49,2.44,2.24-5.91,5.39-13.36,2.65-18.56,3.99,7.67-1.04,16.05,5.69,25.47,2.69,3.19.11,6.35.28,6.76,4.54-2.07,7.49-11.01,10.79-11.7,19.14-5.95.91-11.76,1.59-14.73,8.3-1.5,3.39-5.44,3.53-8.94,3.54-8.24.02-10.69,5.05-9.07,12,2.5,10.71,2.72,21.64,3.82,32.45,1,9.88,1.95,20.43-7.47,27.83-1.3.06-2.32-.43-3.09-1.47-2.74-9.71.31-19.48-.28-29.25-.48-7.94-.73-15.84-2.63-23.6-1.63-6.67-5.39-11.16-12.58-10.56-7.06.59-10.56,5.56-11.03,12.3-.97,13.96-.15,27.96-.46,41.94-.12,5.59.8,11.43-2.89,16.42-1.04.87-2.2,1.06-3.47.58-3.82-3.97-3.3-9.05-3.37-13.89-.19-12.07.06-24.15-.1-36.23-.26-19.45-3.55-22.55-22.16-21.22-1.81-.38-3.34-1.28-4.66-2.52-8.76-10.42-18.67-9.02-22.76,4.16-4.18,13.5-3.66,27.38,1.1,40.93,1.42,4.06,4.82,7.92,1.95,12.68-2.42-.11-4.94.04-6.54-2.36-12.84-18.23-10.37-37.93-5.15-57.69,1.86-7.06,5.7-13.59-5.37-16.64-4.21-1.16-3.74-6.03-3.07-9.91,8.67-8.74,16.9-17.95,27.18-24.94.85-9.74,9.66-3.38,13.66-6.74,16.36-4.69,32.84-8.47,50.06-6.82,1.7,2.27-1.76,4.51-.15,6.86,3.34-1.19,3.33-4.53,4.77-6.88,4.46-.28,8.32,1,11.38,4.37,1.8,5.34-3.62,6.51-6.36,10.53,12.77,4.26,26.36-5.12,38.01,3.21Z"/>
    <path class="cls-117" d="M1479.13,981.74c-9.34.64-18.08-2.48-27.04-4.29-2.51-2.52-6.87,1.9-8.91-2.37-.26-6.23-3.19-12.18-1.98-18.59,2.03-12.83-1.23-26.27,4.75-38.66,1.6-3.31,1.75-7.39,6.15-8.62,20.68-6.84,27.22-1.86,27.2,20.81-.01,17.24-.12,34.48-.18,51.72Z"/>
    <path class="cls-28" d="M1443.1,959.04c-1.48,5.35,7.98,10.65.08,16.03-5.8-1.22-10.79-3.73-14.12-8.88-8.85-14.11-9.93-29.68-8.79-45.74.47-6.61,2.46-12.61,6.64-17.64,8.55-10.29,18.29-8.45,22.99,4.15-5.12,16.99-5.97,34.54-6.8,52.08Z"/>
    <path class="cls-61" d="M533.92,484.01c-5.3-5.39-11.53-53.79-13.52-58.38-5.21,3.09-9.68,51.29-14.79,54.6-.28-10.73,11.64-61.95,12.29-72.19.65-10.19.25-20.04-.07-30.17-1.05-32.8-.39-65.65-.39-99.59,6.07,3.63,4.14,8.58,4.16,12.51.19,34.04-.17,68.08.3,102.11.21,15.13,7.31,73.92,12.02,91.11Z"/>
    <path class="cls-62" d="M1408.94,879.6c2.47,4.3,2.46,11.84,11.16,7.56,3.15-1.55,4.77,1.24,4.69,4.35-.07,2.61.22,5.55-.85,7.75-10.42,21.36-7.97,42.9-1.41,64.57-3.04-2.28-6.09-4.57-9.13-6.86-7.83-11.1-13.39-23.18-15.69-36.65-4.61-4-3.73-9.24-3.29-14.39,1.24-6.03,1.79-12.37,7.19-16.6,3.72-2.28,2.66-8.17,7.34-9.73Z"/>
    <path class="cls-28" d="M1572.52,936.3c-1.48.29-3.3,5.76-4.36-.17-.79-4.48,1.45-9.45-2.19-13.48-6.32-9.69-7.72-21.42-13.1-31.5-3.39-7.55-5.32-14.29,6.87-14.78,1.33-.05,2.57-2.42,3.85-3.71,1.61,1.63,3.22,3.27,4.83,4.91,3.31,8.17,8.02,15.84,8.87,24.89.19,11.53,1.06,23.16-4.78,33.85Z"/>
    <path class="cls-59" d="M1617.53,920.34c-2.12,4.59-4.24,9.18-6.36,13.77-7.2-1.66-3.54-6.02-2.08-9.39,2.81-6.45,6.32-12.62,7.12-19.79,13.32-25.42,21.86-52.86,33.4-79.03,2.74-6.21,5.06-12.6,7.58-18.9,3.24-2.43,4.29-.81,4.46,2.42,3.22,5.55-.45,10.22-2.26,14.9-10.21,26.32-21.23,52.31-31.76,78.5-3.42,5.81-3.49,13.56-10.11,17.52Z"/>
    <path class="cls-97" d="M482.67,777.63c.03-8.03,2.83-12.38,12.1-12.19,5.84.12,11.97-1.15,17.89-2.01,27.78-4,41.61,12.68,52.49,34.2,11.58,22.89,21.58,46.44,30.96,70.33,5.59,14.23,15.51,25.79,30.39,31.9-4.83,5.29-10.94,3.79-16.88,3.22-4.71-1.69-9.77-1.49-14.6-2.54-15.32-3.81-31.05-6.05-45.84-11.94-3.37-4.79-7.38-7.68-13.41-4.45-.29-1.9-.74-3.65-2.85-4.44-32.77-12.15-44.04-38.71-47.27-70.62-1.06-10.49-2-20.98-2.99-31.48Z"/>
    <path class="cls-143" d="M510.29,454.26c10.81-2.49,9.49,7.8,13.37,13.41,2.51-2.73,4.67-5.08,6.82-7.43,4.06,3.15,3.93,7.94,4.84,12.31.22,1.68.23,3.38-.3,5.07,1.55-2.32,3.67-3.99,4.95-6.29.67-.79,1.5-1.35,2.46-1.73,2.74,3.45,5.68.72,8.55.27,2.38-.76,2.97.28,2.45,2.44-7.89,2.55-8.55,6.46-2.22,11.7.21,4.26-2.05,3.5-4.56,2.25-5.23-1.8-8.95.75-11.58,4.72-1.47,2.21,2.35,2.2,2.8,3.91,2.56,4.39-1.16,7.07-2.81,10.32-9.6,2.1-3.72,9.37-4.76,14.33-.91,3.31,1.01,8.37-5.17,8.46-2.96-1.27-3.72-3.91-4.21-6.73-.02-3.22-.9-6.28-1.77-9.34-.74-1.95-.08-4.9-2.96-5.36-2.14-.34-2.87,1.95-3.93,3.42-1.18,1.84-2.43,3.59-4.48,4.56-6.16.86-7.5-3.48-8.69-8.01-2.35-6.84,1.75-13.2,1.54-19.89,1.39-1.65,2.75-3.32,1.43-5.68-.2-1.52.12-2.89,1.09-4.1,1.69-.72,7,1.22,2.7-3.87-1.42-1.68-1.84-3.95-1.19-6.23.47-1,1.26-1.59,2.34-1.8,6.57,1.09,8.21,6.92,10.99,11.5-1.97-6.73-3.69-13.68-8.41-19.31-.31-1.09-.04-2.05.7-2.89Z"/>
    <path class="cls-139" d="M503.58,476.81c.04,1.52.07,3.05.11,4.57-.85,1.67-2.39,3.04-2.28,5.14,1.98,2.25,3.96,8.74,2.09,9.52-6.01,2.51,1.02,6.72-2.08,8.88-4.11,7.92,4.36,12.32,5.27,18.85-1.05,2.81-2.46,5.04-6.05,3.67-9.29-4.51-5.7-13.4-6.76-20.66-4.95-.83-5.89,4.45-10.07,5.86-.88-7.37,7.36-8.69,9.02-14.76-9.89.89-14.19,8.87-21.47,16.56,2.66-10.52,8.35-15.45,14.94-19.83,2.21-1.47,6.75-1.42,5.53-5.78-1.08-3.88-4.96-2.56-7.71-2.93-2.58-.35-5.24-.07-8.68-.07,3.45-4.26,7.67-4.14,11.87-4.14,2.25,0,5,.25,5.66-2.48.93-3.81-2.53-3.98-4.9-4.66-3.95-1.12-7.96-1.99-12.3-3.06,3.57-3.34,7.86-.71,11.61-2.05-1.51-4.46-6.92-3.99-9.34-7.31.6-.32,1.43-1.02,1.65-.86,12.9,9.31,21.63.61,30.6-7.01.03.91.06,1.83.1,2.74,1.38,4.47-1.78,6.57-4.62,8.83l.18-.15c-4.6,2.9,1.57,8.09-2.37,11.12Z"/>
    <path class="cls-40" d="M542.43,469.61l-.1,2.77c-2.77,1.57-5.47,3.35-8.9,2.84-3.58-4.48-2.46-9.89-2.94-14.98,1.99-14.08,7.69-18.4,22.06-15.79-10.1.31-16.19,5.35-18.68,14.8.35-.11,5.49,1.71,5.59,1.9.89,1.67.93,1.72,4.62-.36,5.85-3.3,11.53-7.08,19.21-5.73-7.32,4.83-16.99,5.57-20.86,14.56Z"/>
    <path class="cls-82" d="M535.31,504.42c-2.66-4.12,3.25-5.93,2.56-9.52,7.58.16,13.55,3.4,18.06,9.44.85,2.37-.2,2.89-2.31,2.38-1.4-.04-4.57-2.17-3.77-.78,3.55,6.17-3.49,8.12-3.86,12.42-.33-.11-.81-.11-.96-.33-.4-.6-.65-1.3-.97-1.95-1.19-2.28-4.26-2.04-5.58-4.13-1.58-2.28-2.25-4.94-3.16-7.51Z"/>
    <path class="cls-51" d="M515,533.74c-2.33.16-4.67.33-7,.49-3.87-.73-7.18-2.07-7.36-6.79,2.39-1,4.26-2.53,5.14-5.06-1.61-3.67,2.45-5.86,2.38-9.12.08-1.84.43-3.54,2.27-4.5,4.17-1.48,7.72.64,11.42,1.95.68,3.3,1.36,6.61,2.04,9.91-6.3,2.12-8.8,6.81-8.89,13.13Z"/>
    <path class="cls-114" d="M896.63,495.63c-5.42,6.38-6.5.47-8.46-2.98-.96-10.16-7.61-16.9-14.32-23.52-2.37-2.34-5.23-4.19-8.52-6.79,13.47,1.14,23.98,12.66,31.3,33.29Z"/>
    <path class="cls-81" d="M528.73,534.56c-2.37-.26-4.73-.52-7.1-.78-1.25-4.19,1.91-5.28,4.66-6.66,2.46-1.74-1.44-5.54,2.24-6.89,1.19-1.31,2.64-1.42,4.22-.9.88.57,1.53,1.34,1.96,2.3,1.49,3.69-1.68,6.67-1.55,10.16-1.48.92-2.95,1.85-4.43,2.77Z"/>
    <path class="cls-1" d="M553.42,472.31c-.82-.81-1.63-1.62-2.45-2.43,9.76-4.63,13.33,1.59,15.95,9.55-3.99-3.43-7.58-7.62-13.5-7.11Z"/>
    <path class="cls-148" d="M847.26,495.55c-4.42,3.71-8.84,7.41-13.26,11.12-.47-.36-.95-.72-1.42-1.08,1.8-2.66,3.61-5.32,5.41-7.98,2.32-1.46,4.63-2.92,6.95-4.38.77.77,1.55,1.55,2.32,2.32Z"/>
    <path class="cls-73" d="M533.16,531.79c-3.01-.39-3.89-1.66-1.73-4.18,1.84-2.14,2.09-4.64,1.67-7.3,2.52-1.74,5.05-2.06,7.59-.05-1.46,4.53-3.14,8.92-7.54,11.53Z"/>
    <path class="cls-81" d="M540.7,520.26c-2.52.83-5.05,1.83-7.59.05,0,0,0,.01,0,.01-1.1-5.61,2.15-7.82,6.93-8.83,2.27.7,3.8,2.07,4.01,4.57-4.03-.93-1.45,3.42-3.35,4.2Z"/>
    <path class="cls-78" d="M546.64,486.27c1.83-.13,3.56-.45,4.56-2.25,3.77,1.23,6.17,3.55,6.73,11.5-2.99-7.77-10.6-1.74-11.29-9.25Z"/>
    <path class="cls-22" d="M553.61,506.71c.77-.79,1.54-1.59,2.31-2.38,4.02,3.58,6.29,8.01,6.87,15.82-3.86-5.65-6.53-9.55-9.19-13.44Z"/>
    <path class="cls-91" d="M901.35,772.54c6.81,1.2,11.55-6.11,18.47-4.48,8.17-2.78,16.66-2,25.06-2.24,2.43-1.49,5.13-1,7.74-1,57.75-.02,115.5-.02,173.26,0,2.6,0,5.31-.49,7.73,1.02,17.46.05,34.92.09,52.37.14,5.19-2.72,10.25-1.25,15.31.46,4.98,4.47,10.72,8.22,13.89,14.45,1.56,3.62,3.48,7.22,1.36,11.28-.44.35-.88.71-1.32,1.06-108.59.01-217.18.04-325.77,0-3.67,0-7.66,1.03-10.75-2.13,5.22-9.02,15.14-12.31,22.64-18.56Z"/>
    <path class="cls-5" d="M1449.77,847.92c-3.95,3.47-10.71,1.23-13.66,6.74-177.55,0-355.1,0-534.94,0,5.03-6.1,9.05-4.47,12.46-4.51,16.66-.19,33.32-.31,49.98-.04,78.32,1.25,156.58-3.76,234.91-2.35,13.65.25,14.36-1.21,14.88-15.07.49-13.16-2.09-26.47,1.83-39.46,0,0,.2-.11.2-.11.72-.76,1.55-.88,2.49-.45.49.52.68,1.07.57,1.64-.11.58-.24.87-.39.87-.09,11.73-.27,23.46-.24,35.2.03,14.25,3.08,17.41,17.24,17.43,66.26.06,132.51.02,198.77.02,5.3,0,10.6.07,15.9.11Z"/>
    <path class="cls-11" d="M1218.11,795.17c-.16-.62-.31-1.25-.47-1.87-1.45-3.44-1.26-7.14-1.71-10.74,6.75-12.96,16.43-18.47,29.18-16.62,3.05-.04,6.09-.07,9.14-.11,2.43-1.5,5.13-1.01,7.74-1.01,63.82-.02,127.63-.02,191.45,0,2.61,0,5.31-.49,7.74,1.01,3.06,0,6.11,0,9.17,0,9.82-1.67,19.65-1.62,29.48-.04,10.52-.76,19.34,5.64,29.36,6.97,7.63,5.41,16.76,8.71,22.89,16.24-2.71,7.34-9.05,4.11-13.68,4.12-101.56.19-203.12.12-304.68.14-5.26,0-10.65-.75-15.61,1.9Z"/>
    <path class="cls-38" d="M1547.48,859.19c-10.86.12-22.02-1.62-32.36,2.48-5.54,2.19-5.96-6.84-11.34-3.19,1.58-7.17,7.56-9.37,10.01-14.88,10.25.2,11.84.82,24.76,4.42,3.71,6.64,6.82,5.96,8.93,11.17Z"/>
    <path class="cls-38" d="M1556.84,868.12c-2.21,3.75-4.2,6.81-9.78,4.57-7.65-3.07-15.72-5.09-25.41-8.13,10.48-1.36,19.13-3.98,28.28-3.13,4.19.28,6.54,2.47,6.91,6.69Z"/>
    <path class="cls-38" d="M1504.45,841.08c2.01,2.16,4.59,4.18.77,7.07-2.88,2.19-4.66,6.3-8.98,5.91-2.88-.26-3.09-2.63-2.44-5.1.92-3.48,3.82-5.4,6.03-7.87,1.54,0,3.08-.01,4.62-.02Z"/>
    <path class="cls-45" d="M746.99,418.62c-21.11,0-37.66-.1-56.38.48-7.08.22-5.92-.74-5.74-4.54-4.56-5.91-1.98-12.33-1.14-18.53,1.09-8.12.22-14.94-8.43-18.79-9.8-4.36-7.41-12.63-5.98-20.46-.62-2.79-.49-6.72-4.23-6.7-3.85.03-3.45,3.98-3.84,6.8,2.57,9.45,2.52,17.76-7.67,23.31-5.18,2.82-3.67,8.45-3.54,13.38.22,8.12,9.94,25.68-.93,25.68-11.76,0-18.42.15-28.13.34-5.11.1-5.58-4.17-5.58-8.17,0-26.5.08-53-.07-79.51-.03-5.63,2.63-7.09,7.66-7.08,62.86.08,125.73.09,188.59,0,4.68,0,6.31,1.07,6.23,6.36-.4,26.5-.11,53-.11,79.5,0,7.93-1.89,7.93-9.03,7.93-17.31,0-18.67-.23-30.35-.23"/>
    <path class="cls-45" d="M615.2,592.73c.06-26.84.41-53.68.02-80.51-.13-9.05,2.22-12.57,12.04-12.51,59.74.41,119.48.33,179.21.04,7.94-.04,11.5,1.37,11.31,10.43-.61,28.34-.32,56.69-.38,85.04-4.62,3.28-9.28,4.36-14.03.28-2.98-4.3-1.56-8.84-.02-12.99,5.16-13.88-4.12-22.77-10.88-32.48-2.19-3.13-4.59-1.38-6.35,1-7.21,9.71-15.31,19.09-9.85,32.72,1.26,3.14,1.18,6.67-.26,9.98-6.65,7.25-13.73,6.7-21.08,1.22-4.82-10.81-2.5-22.28-2.44-33.42.07-12.21-1.86-23.57-7.86-33.38-9.87,14.89-7.36,32.14-7.57,49-.05,4.51.31,9.05-.78,13.53-.79,3.63-2.87,6.95-6.4,7.16-11.85.69-23.92,3.58-35.43-1.94-5.22-7.46-.48-14.4,1.35-21.41,2.79-10.68,2.23-11.54-8.87-11.86-6.73-.2-13.53.68-20.14-1.23-4.26-.46-6.57-8.76-10.83-4.71-3.75,3.57,2.85,7.32,3.92,11.35.27,1.03,1.01,1.95,1.53,2.95,2.9,7.99,9.27,15.43,3.97,24.74-14.59,6.06-29.68,2.45-44.57,2.14-2.6-.05-4.54-2.54-5.6-5.15Z"/>
    <path class="cls-6" d="M621.43,640.75c-1.61,1.73-2.64,4.79-5.97,2.64-.05-13.5-.1-27.01-.15-40.51,3.64-4.25,8.59-4.11,13.55-4.12,58.18-.07,116.35.1,174.53-.1,4.98-.02,9.84.27,13.9,3.68.1,25.37.22,50.73.28,76.1.04,16.03-.99,13.98-21.67,13.98-2.99-2.49-.49-7.62-1.44-11.04-.67-3.53-.71-7.03.85-10.38,1.57-2.92,4.58-4.83,5.66-8.09,2.69-5.74.63-8.85-5.45-9.01-19.65-.52-39.3-.46-58.95-.03-5.59.12-8.84,3.69-11.5,8.05-3.32,6.38-5.45,13.27-8.45,19.79-2.66,3.23-3.34,7.66-6.23,10.72h-21.13c-.76-.9-.96-1.27-1.53-2.29-2.92-16.1-.67-32.36-1.38-48.53-.15-3.38.63-6.97-.87-10.07-1.8-3.72-3.52-.24-5.24.56-.89.77-1.87,1.34-2.94,1.77-2.19.77-4.42.83-6.65.34-4.84,0-4.19-6.79-8.77-7.06-1.23,1.96,2.39,63.72.58,65.28-18.27,0-6.11-58.38-7.16-58.05-3.42.82-6.79.59-10.13-.38-4.37-2.15-9-3.46-13.82-4.09-2.98-.76-4.94.02-5.9,3.25-.82,2.76-.86,6.04-4.01,7.61Z"/>
    <path class="cls-66" d="M694.99,491.35c-7.31.73-9.22.73-16.06-.27-5.46-5.6-4.2-12.5-3.79-19.27,1.55-25.6-.27-27.53-25.66-27.7-4.88-.03-7.16,1.53-11.99,0-2.85,13.06,7.81,30.72,7.5,43.85-.16,6.57-12.92,3.58-21.14,3.57-7.86,0-8.77-1.29-8.62-8.27.37-16.25.31-32.52.08-48.78-.1-6.76,2.48-9.4,9.35-9.39,61.28.15,122.56.15,183.83-.03,7.46-.02,9.77,2.59,9.08,11.19-1.24,15.52-.09,31.05-.09,46.61,0,8.54.21,8.12-9.31,8.12-3.86-4-3.14-9.05-3.19-13.91-.05-4.53.03-9.06-.02-13.59-.21-17.57-9.33-23.84-26.04-18.25-4.78,1.6-4.65,5.26-5.11,8.99-1.53,12.36,1.55,24.88-1.34,37.19h-14.33c-8.18,0-3.58-15.72-3.85-22.6-.28-6.96-2.72-10.28-10.07-10.39-11.7-.18-23.36-.56-35.08-.09-7.93.32-10.51,3.68-10.52,11.12,0,7.42,1.41,15.25-3.64,21.89Z"/>
    <path class="cls-45" d="M674.54,745.82c-5.54-14.92-9.1-30.37-12.22-45.94,47.9-.06,95.8-.18,143.69-.04,9.01,0,10.99-.06,10.99,4.09,0,26.42-6.92,4.14-10.93,5.39-1.38.43.44,3.96-.88,4.55,2.08,4.82-4.34,3.76-7.84,5.17-3.35,1.35-6.8,2.48-10.21,3.68-7.36,2.1-13.09.02-17.04-6.55-3.44.58-2.8,5.09-5.81,5.99-3.18,1.49-6.37,1.49-9.56.1-3.66-.49-3.7-9.27-9.74-4.19-3.26,9.19-.82,18.64-1.66,27.9-.68,7.43-3.08,11.83-11.38,7.4-3.27-4.05-7.98-3.57-12.37-3.74-10.82-.41-21.65,0-32.47-.24-4.47-.1-9.04-.08-12.57-3.57Z"/>
    <path class="cls-110" d="M772.48,491.42c-4.33-15.43-1.13-31.18-1.89-46.76-.14-2.85,1.8-3.83,4.34-3.91,1.13-.03,2.26,0,3.38-.06q30.32-1.36,30.35,28.92c0,7.13-.32,14.26-.49,21.39-11.9.14-23.8.28-35.7.43Z"/>
    <path class="cls-21" d="M694.99,491.35c-.1-10.2-.03-20.4-.37-30.59-.16-4.85,1.5-6.69,6.47-6.63,17.01.21,34.02.24,51.02,0,4.91-.07,6.67,1.5,6.55,6.45-.22,9.44.1,18.89.19,28.34,0,.99-.05,2.51-.05,2.51-2.61-.06-6.28.04-8.39.01-18.69-.26-36.73.14-55.43-.1Z"/>
    <path class="cls-26" d="M671.91,355.8c3.34.91,6.12,2.15,2.13,5.68-7,6.19-4.37,10.68,2.95,12.86,9.6,2.85,11.87,8.96,10.49,17.93-1.13,7.38-1.2,18.94-2.06,26.38-14.06,0-14.87.81-23.19.81-9.88,0-7.42-.28-12.13-.28-1.45-9.6-2.64-20.51-4.47-30.04-1.29-6.73,1.22-11.08,7.17-13.34,8.5-3.24,12.72-7.02,3.9-14.78-2.26-1.99-.84-3.97,1.53-5.14,4.54-3.25,9.1-3.2,13.68-.09Z"/>
    <path class="cls-125" d="M634.86,443.52c13.15-4.55,26.69-1.26,40.03-1.88,5.26-.25,3.99,4.48,4.01,7.59.1,13.95.04,27.9.04,41.85-12.57,2.99-25.32.73-37.97,1.38-2.37.12-3.39.05-5.32-.24,0,0-.37-4.87-.38-7.18-.07-13.84-.26-27.68-.41-41.51Z"/>
    <path class="cls-140" d="M817.29,602.34c-65.08-.06-130.15-.12-195.23-.14-2.25,0-4.5.44-6.75.68-.04-3.38-.07-6.76-.11-10.14,44.82,0,12.46.5,50.62.5,10.15,0,14.07-.2,28.08-.2,39.2,0,19.78.04,35.49.04,3.74.2,3.7-.07,5.57-.07,7.21,1.77,13.37-1.3,20.62.25,6.81,2.43,13.65,5.11,19.52-1.94,9.48.85,19.15-.95,28.46,2.14,4.28,3.21,9.21,1.3,13.84,1.77-1.3,2.35-1.21,4.72-.1,7.11Z"/>
    <path class="cls-149" d="M782.72,388.55c.77,10.27-1.86,20.04-4.39,29.83-11.35,0-6.99.23-31.33.23-4.41-9.75-8.96-19.47-4.3-30.5,13.36-1.67,26.71-2.17,40.03.44Z"/>
    <path class="cls-124" d="M1290.34,656.73c32.91-.67,65.39,5.04,98.13,6.55,22.31,1.03,44.71.36,67.07.28,14.01-.05,27.73,2.55,41.58,3.82,15.43,1.41,23.01,9.42,24.57,24.18,1.65,15.67,5.24,31.24.65,47.09-2.36,8.14-6.17,12.84-15.36,13.76-54.57,5.5-109.34,7.67-164.06,6.2-32.22-.87-64.84-1.4-96.5-9.97-9.67-2.62-15.06-7.23-18.04-17.3-4.88-16.54-7.25-33.03-6.04-50.16.79-11.18,6.15-17.7,17.28-20.82,16.77-4.68,33.76-3.3,50.72-3.64Z"/>
    <path class="cls-130" d="M1245.1,765.94c-10.75,2.43-20.05,7.32-27.15,15.95-.55-.52-1.49-.99-1.58-1.58-3.07-21.7-3.06-43.41,0-65.11.08-.59,1.03-1.06,1.57-1.58,4.55,4.99,6.56,11.23,6.49,17.6-.1,9.51,3.29,16,12.41,19.19,7.54,2.63,10.96,7.46,8.26,15.54Z"/>
    <path class="cls-124" d="M1461.17,765.83c-68.98,0-137.95,0-206.92,0,3.1-3.18,7.09-2.13,10.77-2.13,61.8-.05,123.59-.05,185.39,0,3.68,0,7.67-1.04,10.77,2.14Z"/>
    <path class="cls-35" d="M1217.94,713.62c0,22.76,0,45.51.01,68.27-.1,3.8-.21,7.61-.31,11.41-.74-.03-1.47-.09-2.2-.18-.71-3.83-1.43-7.67-2.14-11.5-1.58-2.41-1.7-5.31-2.73-7.91-1.48-19.73-.21-39.49-.66-59.24.56-9.63-1.86-19.87,5.66-28.1.74-.02,1.48-.02,2.22,0,.05,9.08.11,18.17.16,27.25Z"/>
    <path class="cls-74" d="M1490.41,647.03c2.52-12.04-3.09-23.75-1.43-35.76.47,0,.95,0,1.42,0,.09,11.97,3.83,23.65,2.89,35.7-.96.02-1.91.03-2.87.05Z"/>
    <path class="cls-124" d="M1499.82,765.8c-9.83.01-19.65.02-29.48.04,9.82-3.55,19.65-3.5,29.48-.04Z"/>
    <path class="cls-124" d="M1204.15,738.61c-12.67,12-29.22,14.12-45.13,15.62-41.32,3.89-82.82,5.64-124.33,4.71-33.52-.75-67.04-2.51-100.51-4.6-21.23-1.33-25.89-6.95-25.59-28.64.1-7.07-3.14-14.12-.16-21.18.98-6.32,1.45-12.77,3.05-18.93,3.57-13.77,12.1-18.72,26.65-19.75,31.33-2.21,62.81-.75,94.05-2.74,46.71-2.97,93.28-7.8,140.19-6.42,6.1.18,12,.74,17.91,2.25,14.05,3.59,17.24,7.37,18.46,22.85,6.97,16.9,1.45,33.49-1.2,50.17-.39,2.6-1,5.09-3.39,6.66Z"/>
    <path class="cls-72" d="M1204.17,731.82c4.01-16.45,7.22-32.97,4.56-50.03,2.28,1.53,4.56,3.05,6.84,4.58-.49,9.11-3.51,18-2.3,27.25-5.6,12,1.26,24.75-2.23,36.92-.87,3.05.7,8.46-3.52,8.23-4.34-.23-4.74-5.49-3.84-9.25,1.42-5.93,2.82-11.72.48-17.69Z"/>
    <path class="cls-46" d="M1504.75,622.76c.75-9.11,1.51-18.22,2.26-27.33.74,0,1.48,0,2.22,0,.1,9.18-.2,18.33-2.67,27.26-.6.01-1.21.04-1.81.07Z"/>
    <path class="cls-9" d="M1210.65,604.22c-68.05.02-136.09.04-204.14.06-.09-63.63-.1-127.27-.38-190.9-.03-6.9,2.26-9.21,9.17-9.19,62.14.2,124.28.19,186.41.04,6.68-.02,9.39,2.02,9.35,9.1-.3,63.63-.32,127.27-.42,190.9Z"/>
    <path class="cls-146" d="M1204.17,731.82c5.08,7.59.18,16.58,3.73,24.47.13-9.83,4.67-19.28,1.1-29.5-1.6-4.59.12-9.65,4.27-13.17,0,20.47-.02,40.93-.03,61.4-5.44.48-7.67-4.64-11.67-6.68-5.29-.18-10.74.71-15.59-2.36-3.01-3.9-12.18-1.38-11.22-7.24,1.01-6.13,8.61-3.62,13.54-4.2,9.5-1.11,14.94-6.27,15.85-15.92,0-2.26.02-4.53.02-6.79Z"/>
    <path class="cls-124" d="M1133.61,765.84c-62.91,0-125.82-.01-188.73-.02,3.1-3.16,7.1-2.12,10.78-2.13,55.73-.06,111.46-.06,167.19,0,3.68,0,7.67-1.04,10.77,2.14Z"/>
    <path class="cls-23" d="M906.5,506.31c.63.12,1.25.26,1.87.42.79,3.03,1.58,6.06,2.37,9.09-8.4,1.85-16.9,2.42-25.48,1.94.94-8.79,7.83-9.55,14.38-10.25,2.35-.25,5.01,1.95,6.87-1.21Z"/>
    <path class="cls-93" d="M1674.67,809.27c.22,31.64.44,63.28.66,94.92,3.84,5.44,4.35,10.87,0,16.31-3.53,4.57,6.12,14.76-6.57,15.42-.05-2.12-.1-4.23-.14-6.35,3.14-11.47,1.7-23.23,1.9-34.83.47-27.57.14-55.16.35-82.74,0-.95-3.08-9.9,3.8-2.73Z"/>
    <path class="cls-8" d="M1356.29,495.37c-12.36,12.89-27.8,15.49-44.48,12.55-5.75-1.01-11.19-3.8-16.77-5.78.46-4.98,4.24-4.63,7.6-4.51,17.95.64,35.92,2.12,53.66-2.26Z"/>
    <path class="cls-3" d="M760.94,924.92c6.47,7.7,10.49,16.89,15.46,25.49-1.81,5.44-6.5,3.03-9.14,2.31-28.45-7.8-57.4-12.2-86.8-14.04-5.22-.33-10.38-1.42-15.57-2.16-6.12-3.74-5.89-8.7-2.75-14.22,2.87-2.36,6.26-2.18,9.71-2.13,26.1.39,52.1,4,78.26,2.2,3.82-.26,7.6.12,10.84,2.54Z"/>
    <path class="cls-133" d="M656.35,933.76c-5.87,5.16-12.92,2.27-19.41,2.59-9.72.49-19.48-.02-29.22.2-5.19.11-8.98-.85-8.76-7.11-3.36-8.92-.27-16.2,5.76-22.73,15.48,6.62,32.59,2.39,48.38,7.16,5.25,5.96,8.09,12.3,3.26,19.89Z"/>
    <path class="cls-71" d="M1552.88,891.15c10.25,8.06,11.87,19.7,13.1,31.5,1.85,17.17-1.51,32.03-18.19,40.99-3.43-11.67.76-23.97-3.17-35.75-1.38-4.14-2.77-8.51-3.19-12.16,4.77,15.16,7.07,31.34,3.88,47.99-8.95,5.92-17.7,12.35-29.31,11.39,7.34-19.21,2.88-38.46-.35-57.52-2.31-13.62,1.18-18.69,14.27-17.01,3.1.4,5.71.36,5.98-2.95,1.17-14.36,9.86-8.24,17-6.49Z"/>
    <path class="cls-117" d="M1513.51,975.2c-9.37,7.84-21.08,4.47-31.63,6.6-.05-19.66.15-39.32-.26-58.97-.21-9.9,6.2-14.63,13.65-17.06,7.27-2.37,16.36,5.9,18.07,14.43,3.68,18.33,3.55,36.66.16,55Z"/>
    <path class="cls-38" d="M1482.54,859.14c11.61.2,21.27,1.41,27.74,10.31,1.54,2.12.02,4-1.75,5.8-6.64,6.75-24.8,11.94-32.64,7.67-5.65-3.09-16.33-3.69-14.11-13.36,2.61-11.38,13.6-9.6,20.76-10.41Z"/>
    <path class="cls-38" d="M1483.38,886.38c5.81,1.33,9.25,5.75,9.18,11.02-.09,7.07-7.48,9.41-12.39,10.86-4.33,1.28-8.22-4.05-7.19-9.06,1.15-5.56,2.31-12.11,10.4-12.82Z"/>
    <path class="cls-38" d="M1505.69,902.59c-7,1.09-10.75-2.87-11.01-10.74-.24-7.05,6.11-6.61,9.56-6.56,5.81.09,11.08,3.48,11.23,10.25.12,5.14-2.66,8.51-9.78,7.05Z"/>
    <path class="cls-38" d="M1471.82,888.65c-.44,6.53-10.41,15.23-15.27,14.21-3.73-.78-4.32-4.07-3.96-7.04.94-7.72,5.76-12.33,13.29-12.92,3.55-.28,5.53,3.21,5.94,5.75Z"/>
    <path class="cls-38" d="M1533.58,891.49c-.18,1.54-.47,2.86-2.46,3.14-2.99.43-18.66-10.1-19.24-13.04-.34-1.74.38-2.91,1.91-3.58,5.57-2.42,20.18,7.55,19.79,13.48Z"/>
    <path class="cls-38" d="M1517.8,870.94c9.67-1.06,18.14-.36,25.59,5.25,2.11,1.59,5.09,3.13,3.12,6.18-1.66,2.58-4.8,2.13-7.18.7-6.73-4.05-14.62-5.93-21.53-12.13Z"/>
    <path class="cls-38" d="M1443.1,959.04c-.61-17.74-1.45-35.51,6.8-52.09.74.75,1.47,1.5,2.21,2.26-4.42,12.34-7.97,24.79-6.86,38.18.32,3.88,1.44,8.31-2.15,11.65Z"/>
    <path class="cls-92" d="M662.53,918.55c-3.26-5.91-1.39-12.52-2.58-18.71,10.55-3.81,21.52-1.29,32.27-2.08,14.92.08,29.85.61,44.75.09,8.7-.3,58.79,5.78,59.94,14.34-2.67,7.57-54.5,5.24-61.03,5.37-15.81.33-31.63.4-47.43-.02-8.69-.23-17.3.39-25.93,1.01Z"/>
    <path class="cls-120" d="M592.01,899.19c.09,11.21-3.99,26.63-6.77,37.24-19.75.93-39.38,2.18-58.82,6.8-5.74,1.36-12.49,2.22-18.88,1.73,10.13-14.7,21.58-32.39,33.17-45.99,17.41,0,30.28.23,51.3.23Z"/>
    <path class="cls-42" d="M1545.29,963.73c.53-15.8.21-31.53-3.98-46.95,8.65,14.73,5.75,31.05,6.46,46.86-.83.03-1.66.06-2.49.09Z"/>
    <path class="cls-144" d="M733.49,752.29c-13.18,5.24-27.49,3.83-41.02,6.98-9.57.3-19.07.51-17.92-13.46,16.81-.03,33.61-.02,50.42-.12,4.68-.03,9.31-.31,8.53,6.59Z"/>
    <path class="cls-16" d="M669.61,812.06c1.02,3.85,4.11,3.84,7.18,3.85,19.5.08,38.8,2.92,58.2,4.19,12.95.85,23.6,6.21,34.6,11.64-8.4,34.18-4.42,32.67-42.96,34.4-30.47,1.37-60.87,4.12-91.3,6.27-.38.03-.77.24-1.12.17-17.04-3.23-11.62-20.54-18.56-30.23-3.12-4.35.65-8.49,6.59-8.57,19.59,1.04,34.27-8.61,47.37-21.72Z"/>
    <path class="cls-60" d="M649.19,900.28c.7,4.47,1.41,8.95,2.11,13.42-3.83,5.41-8.99,1.56-13,1.01-6.05-.84-12.27-1.92-17.9-.4-7.57,2.04-11.38-.67-14.02-7.06.6-2.46,1.2-4.92,1.8-7.39,6.11,0,12.22,0,18.33,0,7.56.14,15.12.28,22.68.41Z"/>
    <path class="cls-13" d="M540.04,511.49c-2.31,2.94-4.62,5.89-6.93,8.83-1.53-.03-3.05-.06-4.58-.09-3.07-5.84-2.55-11.96-1.68-18.55,3.05.99,5.75,1.86,8.45,2.73,5.13-.02,2.63,5.06,4.73,7.07Z"/>
    <path class="cls-41" d="M526.3,527.12c-1.55,2.22-3.11,4.44-4.66,6.66-2.21-.01-4.43-.03-6.64-.04-.94-3.15-6.68-4.84-2.71-9.51,3.17-3.72,6.57-6.14,11.6-3.62.23,2.38.02,4.93,2.41,6.51Z"/>
    <path class="cls-76" d="M508.17,513.26c9.85,5.81-4.02,5.45-2.38,9.12-9.18-3.89-10.29-9.8-4.37-17.46.82,3.94,1.48,8.01,6.75,8.34Z"/>
    <path class="cls-90" d="M521.85,510.7c-4.7,4.59-7.84.07-11.42-1.94-.68-6.46,4.31-8.3,8.51-7.63,5,.8,2.02,6.25,2.91,9.57Z"/>
    <path class="cls-72" d="M1201.57,768.33c6.14-1.71,7.56,4.84,11.67,6.68.02,2.2.03,4.4.05,6.6-2.86-5.36-10.38-6.59-11.72-13.28Z"/>
    <path class="cls-19" d="M782.72,388.55c-13.35-.14-26.69-.29-40.03-.44,1.73-.6,3.43-1.31,5.2-1.78,3.04-.79,8.29,1.55,8.7-2.58.5-5.02-5.08-6.09-9.01-6.6-7.34-.97-14.77-.53-23.27,2.14,3.03-9,8.09-11.55,15.23-11.6,2.8-.02,6.79,1.63,8.18-1.79,1.37-3.37-2.8-4.8-4.44-7.15-1.88-2.69-6.01-3.32-6.93-8.5,12.33-1.32,15.02,9.27,20.85,15.8,4.2-11.81,9.6-22.07,25.55-22.64-6.74,9.21-15.58,15.85-16.7,27.62,10.18-2.89,20.08-6.71,29.19,1.02,2.12,1.8,5.98,3.46,4.41,7-1.61,3.64-4.99,1.64-7.97,1.19-8.69-1.33-17.55-2.87-26.14,3.02,5.38,5.83,12.97-.38,17.18,5.3Z"/>
    <path class="cls-80" d="M671.91,355.8c-4.57.03-9.13.07-13.69.1.89-4.21-3.64-10.48,6.15-10.89,9.97-.42,7.31,5.66,7.54,10.8Z"/>
    <path class="cls-57" d="M803.56,593.47c-9.69,1.84-19.5,5.41-28.47-2.15-5.49-13.79-7.83-27.02,5.83-38.01,1.49-1.19,1.58-4.06,2.46-6.08,2.82-6.46,9.05-5.4,11.43-1.96,10.03,14.51,19.99,29.6,8.75,48.19Z"/>
    <path class="cls-56" d="M755.58,593.27c-7.84,1.71-16.38,7.21-21.86-3.99-.16-10.57-.11-21.16-.54-31.74-.35-8.86.16-17.42,5.62-24.88,3.19-4.36,2.42-9.35,2.71-14.21.13-2.24.06-4.83,3.38-4.63,2.37.14,2.4,2.24,3.08,3.99,9.49,24.46,8.39,49.97,7.6,75.45Z"/>
    <path class="cls-84" d="M693.9,593.04c-9.33,4.19-18.7,3.61-28.08.19-2.63-7.66-5.26-15.33-7.89-23-1.59-6.27-1.16-11.29,7.08-11.52,10.08.07,20.17.49,30.22.08,7.1-.3,8.49,2.53,6.55,8.63-2.7,8.52-5.27,17.08-7.89,25.62Z"/>
    <path class="cls-43" d="M638.73,531.73c5.14-.19,8.55.54,7.8,5.31-1.12,7.07-5.73,11.67-12.65,12.05-4.41.24-7.56-3.82-7.12-8.43.76-7.93,7.43-8.15,11.97-8.93Z"/>
    <path class="cls-37" d="M665.01,558.72c-4.29,2.65-7.82,5.78-7.08,11.52-1.08-1.9-1.87-4.07-3.32-5.62-2.43-2.59-6.71-4.28-4.48-8.89,1.74-3.6,5.45-5.42,9.1-5.37,5.03.07,3.35,5.85,5.78,8.36Z"/>
    <path class="cls-85" d="M680.2,541.46c-.27,4.83-2.72,7.42-6.92,8.06-4.57.7-6.07-2.08-5.92-6.13.17-4.72,2.45-8.25,7.17-8.78,5.02-.57,3.86,4.67,5.68,6.85Z"/>
    <path class="cls-99" d="M698.79,538.23c-5.53-.01-7.12-4.23-7.85-8.13-.69-3.69,2.52-5.12,5.83-5.04,4.66.1,8.09,2.55,8.65,7.16.54,4.47-3.7,4.86-6.64,6.01Z"/>
    <path class="cls-107" d="M656.01,536.25c.73-2.49,1.65-4.95,2.14-7.49.75-3.92,2.93-5.94,6.91-5.94,2.89,0,5.34,1.11,6.06,4.01,1.16,4.71-3.04,5.26-5.85,6.81-1.61.88-3.23,1.74-4.84,2.61-1.47,1.18-2.95,1.18-4.42,0Z"/>
    <path class="cls-86" d="M656.01,536.25c1.48,0,2.95,0,4.43,0,3.98,4.47,3.18,8.4-2.07,10.68-2.92,1.27-7.27,2.02-8.59-2.29-1.47-4.83,1.08-7.87,6.24-8.39Z"/>
    <path class="cls-87" d="M714.99,536.34c4.52,0,6.91,2.66,7.55,6.72.55,3.54-2.26,4.4-5,4.44-4.17.06-7.55-2.13-8.32-6.05-.72-3.68,2.5-4.88,5.77-5.1Z"/>
    <path class="cls-2" d="M684.01,527.07c-4.23-.16-7.21-1.41-6.58-5.16.58-3.46,3.3-5.98,7.14-5.83,2.84.11,4.96,2,5.1,4.98.2,4.35-3.01,5.43-5.66,6.01Z"/>
    <path class="cls-10" d="M703.62,545.63c-.06,3.43-1.58,5.79-5.14,6.05-3.55.26-5.52-1.84-5.97-5.24-.49-3.69,1.28-5.56,5.01-5.64,3.39-.07,5.84.96,6.09,4.82Z"/>
    <g>
      <rect class="cls-27" x="707.94" y="681.04" width="90.96" height="11.37"/>
      <rect class="cls-79" x="714.44" y="669.27" width="82.03" height="11.78"/>
      <rect class="cls-98" x="719.31" y="660.74" width="83.65" height="8.53"/>
      <rect class="cls-27" x="723.78" y="653.83" width="86.49" height="6.9"/>
      <rect class="cls-150" x="726.62" y="648.96" width="78.37" height="4.87"/>
      <rect class="cls-27" x="677.48" y="622.16" width="11.78" height="70.25"/>
      <rect class="cls-98" x="666.93" y="631.09" width="10.56" height="61.32"/>
      <rect class="cls-36" x="657.99" y="620.13" width="8.93" height="72.28"/>
      <rect class="cls-27" x="644.18" y="631.09" width="11.37" height="61.32"/>
      <rect class="cls-150" x="629.97" y="627.03" width="14.21" height="65.38"/>
      <rect class="cls-98" x="621.44" y="623.79" width="8.53" height="68.63"/>
    </g>
    <path class="cls-100" d="M777.38,465.28c4.82-.52,7.73,1.71,9.54,5.39.14.28-1.27,1.87-2.1,2.01-5.51.89-4.11-5.66-7.44-7.39Z"/>
    <path class="cls-109" d="M794.14,478.06c3.01.32,6.02.64,9.97,1.06-4.43,6.29-7.53,3.98-9.97-1.06Z"/>
    <path class="cls-39" d="M794.77,457.52c3.2,2.56,7.36.68,8.39,4.64.17.65-1.81,2.57-2.95,2.73-3.83.52-5.06-2.02-5.44-7.37Z"/>
    <path class="cls-48" d="M804,470.35c-4.74,5.46-7.94,5.74-11.48,0h11.48Z"/>
    <path class="cls-131" d="M710.48,483.96c-5.45,2.88-4.58-1.2-4.19-4.04,1.51-11.12,10.44-19.36,20.45-19.1,10.94.28,19.01,9.86,19.57,23.21-6.46,1.93-8.21-3.51-11.01-7.15-7.45-9.68-11.67-9.7-18.76.42-1.77,2.53-3.94,4.52-6.05,6.65Z"/>
    <path class="cls-69" d="M710.48,483.96c1.14-2.73,2.64-5.38,3.35-8.22,1.51-6.05,6.45-8.57,11.38-9.23,5.53-.75,9.76,3.1,12.6,7.98,2.18,3.74,2.77,8.94,8.5,9.54-2.87,3.77-5.71.72-8.56-.02q-10.11-8.5-22.45.09c-1.6-.05-3.21-.09-4.81-.14Z"/>
    <path class="cls-47" d="M715.29,484.1c3.12-3.46,2.81-9.9,7.99-11.2,8.89-2.23,12.65,3.47,14.46,11.11-7.48.03-14.97.06-22.45.09Z"/>
    <path class="cls-138" d="M666.89,404.45c-9.12-.43-12.37-6.68-12.05-13.63.28-6.2,5.86-9.05,12.15-9.08,8.19-.04,11.48,5.49,11.46,12.27-.02,6.97-4.94,10.4-11.56,10.44Z"/>
    <path class="cls-17" d="M657.93,452.27c3.26,1.46,2.49,7.12,7.28,6.97,1.26,7.83-5.32,12.98-6.81,19.88-3.45,2.38-2.96,12.06-10.87,6.12-5.61-4.21-8.06-9.17-1.3-14.61,1.97-1.59,1.12-3.25.69-5,5.45-2.98,7.79-8.53,11.01-13.36Z"/>
    <path class="cls-34" d="M657.93,452.27c1.31,8.55,1.06,15.83-11.01,13.36-.9-1.2-2.03-2.29-2.67-3.61-2.08-4.31-5.6-9.76-1.01-13.19,4.82-3.59,10.73-1.88,14.68,3.44Z"/>
    <path class="cls-136" d="M658.41,479.12c-4.91-9.08,4.89-13.13,6.81-19.88,4.25-1.01,8.41-.19,8.27,4.67-.18,6.04-2.59,11.88-8.43,14.97-1.76.93-4.4.21-6.64.24Z"/>
    <path class="cls-122" d="M1490.39,611.28c-.47,0-.95,0-1.42,0,.34-8.91-2.42-17.97,1.39-26.7.3,8.9,1.44,17.8.03,26.7Z"/>
    <path class="cls-147" d="M1022.41,543.59c-2.38-4.1-2.54-8.59-2.54-13.18.06-35.19.31-70.39-.16-105.58-.12-9.01,2.65-11.64,11.61-11.57,50.72.38,101.45.43,152.17-.02,10.65-.09,14.16,3.95,13.91,13.94-1,40.42,1.63,80.88-1.41,121.28-.11,1.44.64,2.93.99,4.4-4.56,2.13-8-.88-11.63-2.64-14.09-6.82-28.11-7.52-42.76-1.23-10.07,4.32-19.85,9.32-30.34,12.78-14.38,4.75-26.82,1.3-38.48-7.2-3.67-2.68-7.06-5.73-10.49-8.7-10.27-8.89-21.16-11.26-33.33-4-2.28,1.36-4.73,2.46-7.54,1.72Z"/>
    <path class="cls-7" d="M1022.41,543.59c18.23-14.33,27.41-15.29,43.38.44,19.56,19.26,39.78,19.91,62.61,7.78,15.48-8.22,31.33-14.83,49.6-8.67,6.91,2.33,12.67,6.47,18.99,9.72.21,11.31.25,22.63.71,33.94.21,5.16-2.03,6.34-6.72,6.33-54.8-.11-109.6-.06-164.4-.12-2.74,0-6.99,1.16-6.73-3.56.86-15.28-3.28-30.86,2.56-45.86Z"/>
    <path class="cls-30" d="M610.17,776.19c-.46,3.14-2.12,5.28-5.16,5.2-3.77-.09-5.07-3.25-5.17-6.31-.09-2.56.88-5.92,4.1-5.74,3.78.21,5.63,3.32,6.23,6.85Z"/>
    <path class="cls-32" d="M1090.04,438.35c19.14.41,34.64,16.15,34.47,35.01-.18,19.26-17.02,35.78-35.84,35.15-19.34-.64-35.09-17.35-34.42-36.51.67-19.01,16.67-34.05,35.79-33.64Z"/>
    <path class="cls-54" d="M1145.13,375.42c-.07-64.78-.05-129.56-.34-194.34-.03-7.58,1.86-10.66,10.12-10.63,64.42.29,128.84.24,193.26.04,7.4-.02,10.81,1.51,10.77,9.98-.31,62.51-.15,125.02-.2,187.53,0,3.29.89,6.94-2.36,9.48-1.97-1.08-3.76-2.36-4.69-4.52-2.36-6.19-1.74-12.69-1.75-19.09-.07-52.99.04-105.98-.08-158.97-.03-14.83-.55-15.34-15.39-15.36-55.27-.09-110.55-.09-165.82,0-14.17.02-14.76.59-14.79,14.76-.13,53.75,0,107.49-.1,161.24-.01,6.37.78,12.94-2.73,18.85-1.67,2.02-3.64,2.34-5.9,1.04Z"/>
    <path class="cls-9" d="M1353.89,375.07c-68.05.02-136.09.04-204.14.06-.09-63.63-.1-127.27-.38-190.9-.03-6.9,2.26-9.21,9.17-9.19,62.14.2,124.28.19,186.41.04,6.68-.02,9.39,2.02,9.35,9.1-.3,63.63-.32,127.27-.42,190.9Z"/>
    <path class="cls-147" d="M1165.65,314.44c-2.38-4.1-2.54-8.59-2.54-13.18.06-35.19.31-70.39-.16-105.58-.12-9.01,2.65-11.64,11.61-11.57,50.72.38,101.45.43,152.17-.02,10.65-.09,14.16,3.95,13.91,13.94-1,40.42,1.63,80.88-1.41,121.28-.11,1.44.64,2.93.99,4.4-4.56,2.13-8-.88-11.63-2.64-14.09-6.82-28.11-7.52-42.76-1.23-10.07,4.32-19.85,9.32-30.34,12.78-14.38,4.75-26.82,1.3-38.48-7.2-3.67-2.68-7.06-5.73-10.49-8.7-10.27-8.89-21.16-11.26-33.33-4-2.28,1.36-4.73,2.46-7.54,1.72Z"/>
    <path class="cls-7" d="M1165.65,314.44c18.23-14.33,27.41-15.29,43.38.44,19.56,19.26,39.78,19.91,62.61,7.78,15.48-8.22,31.33-14.83,49.6-8.67,6.91,2.33,12.67,6.47,18.99,9.72.21,11.31.25,22.63.71,33.94.21,5.16-2.03,6.34-6.72,6.33-54.8-.11-109.6-.06-164.4-.12-2.74,0-6.99,1.16-6.73-3.56.86-15.28-3.28-30.86,2.56-45.86Z"/>
    <path class="cls-32" d="M1233.28,209.2c19.14.41,34.64,16.15,34.47,35.01-.18,19.26-17.02,35.78-35.84,35.15-19.34-.64-35.09-17.35-34.42-36.51.67-19.01,16.67-34.05,35.79-33.64Z"/>
    <g>
      <rect class="cls-98" x="804.17" y="707.81" width="12.84" height="84.6"/>
      <rect class="cls-79" x="787.76" y="715.24" width="16.41" height="77.17"/>
      <rect class="cls-27" x="776.08" y="718.45" width="11.69" height="73.97"/>
      <rect class="cls-98" x="764.7" y="709.18" width="11.37" height="83.24"/>
      <rect class="cls-150" x="753.68" y="720.67" width="11.02" height="71.74"/>
      <rect class="cls-27" x="741.86" y="709.96" width="11.82" height="82.46"/>
    </g>
    <path class="cls-94" d="M817.54,805.73c0-4.13-.44-7.99-6.32-6.3-4.45,1.75-5.63,5.93-6.97,9.79-7.34,21.13-18.4,40.63-26.66,61.33-3.65,9.14-9,14.71-16.38,17.29,2.72,5.69,5.5,9.79,6.97,16.15-1.89-8.15-4.81-10.81-6.97-16.15-3.61,1.26-7.69,1.81-12.31,1.7-15.52-.39-30.82,3.07-46.39,2.68-3.99-.1-24.82-.21-24.03,7.65,3.59,2.68,22.25,1.61,26.39,1.69,9.46.18,18.91.03,28.37.11,5.94.05,11.35.98,14.49,6.86,3.2,5.98,7.77,11.1,10.8,17.19,6.52,7.83,8.09,19.23,17.88,24.69,5.97,5.59,4.84,17.42,16.14,18.31,2.2-4.47-.96-7.94-2.37-11.61-3.76-9.82-7.85-19.51-11.81-29.26-.7-4.15.49-9.01-4.34-11.61-1.13-2.36-2.09-4.83-3.44-7.06-5.63-9.29-2.03-11.7,7.53-11.21,10.58.53,21.22,0,31.82.15,5.09.08,7.68-1.61,7.66-7.15-.12-28.41-.04-56.83-.06-85.24ZM739.6,889.7c0,5.42,4.18,13.15,7.43,17.48-3.25-4.34-7.43-12.06-7.43-17.48Z"/>
    <path class="cls-101" d="M507.53,944.96c-5.15,1.25-4.48,13.12-13.46,7.37,7.83-12.94,15.7-25.86,23.46-38.84,1.69-2.83,3.01-5.87,4.5-8.82,4.58-6.83,9.16-13.66,13.75-20.5,7.19-8.05,10.96-2.37,14.65,3.64.09,6.89-4.83,11.16-8.44,16.13-8.84,10.29-15.77,22.04-24.62,32.32-2.87,3.33-5.01,7.56-9.84,8.7Z"/>
    <path class="cls-118" d="M660.54,693.44c-.68,2.5-.18,4.67,1.77,6.44,8.05,8.43,7.44,20,10.86,30.1,1.56,4.6,2.41,9.41,3.48,14.13.15,10.54,9.69,10.92,16.04,14.75-3.31,8.16-14.33,6.73-18,14.46,15.75,9.74,20.47,22.98,17.37,19.09-11.5-14.43,14.24,51.73-3.91,46.41-31.2-9.15-39.15-3.92-59.31,22.15-3.06,2.51-92.8-101.04-96.59-101.08-13.48-.15-26.81.38-39.53,5.71-3.95,1.65-8.09,1.41-11.39-2.04-2.49-32.5-3.64-65.06-2.98-97.65.36-18.1,3.51-21.07,21.31-21.34,35.98-.53,71.96-1.06,107.95-1.58,2.52,2.21,5.13,2.62,7.88.4,1.87-1.86,3.73-3.73,6.74-3.24,3.33,1.12,6.67,2.26,10.28,2.19,3.9.38,7.53,1.52,10.75,3.81,8.5,8.87,9.36,21.23,14.43,31.66,1.02,2.83,1.13,5.88,2.06,8.74.55,1.79,1.04,3.6.93,5.51-.03.46-.07.92-.1,1.38Z"/>
    <path class="cls-68" d="M481.32,763.57c15.33,0,29.07-9.09,44.88-7.39,5.13.55,11.18,2.22,16.23-1.6,26.99,4.5,46.03,20,58.57,43.6,6.44,12.12,9.27,26.3,21.29,35.03.41.3.07,1.41-.15,2.16-4.11,11.85,2.7,20.99,7.78,30.45,1.37,2.56,4.57,2.08,7.25,1.97,34.65-1.5,69.21-4.5,103.86-6.09,15.29-.7,17.82-3.57,21.82-18.13,1.1-4,2.09-8.03,3.42-11.97,3.78-16.84,8.26-33.55,14.91-49.41,4.15-9.91,8.4-21.72,23.22-20.45,10.63,8.27,12.9,16.14,8.85,30.62-2,1.98-2.3,4.45-2.05,7.08-8.25,27.92-22.09,53.47-33.99,79.85-3.56,7.88-8.4,12.45-17.82,12.78-18.41.66-36.78,2.4-55.16,3.8-4.04.31-8.36-.9-12.02,1.9-5.42,5.57-12.49,3.51-18.97,4.04-4.07.33-8.16.44-12.19,1.12-3.94.81-7.91.95-11.91.6-7.05.65-14.1.74-21.1-.51-19.02-5.14-29.14-19.46-36.02-36.35-9.4-23.07-18.82-46.1-30.29-68.24-.7-1.35.2.33-.51-1.01-13.64-26.15-26.92-33.01-56.95-29.92-8.52.88-16.16,3.02-21.62,10.14-2.35-4.51-1.72-9.3-1.35-14.06Z"/>
    <path class="cls-31" d="M606.38,907.26c-4.13,6.84-4.97,14.78-7.42,22.19-6.15,18.9-12.29,37.81-18.44,56.71-5.49.89-6.23-1.38-5.03-6.34,3.49-14.4,6.53-28.92,9.74-43.39-4.01-11.21,3.3-20.91,4.16-31.47.96-3.02,2.26-5.78,5.52-6.98,4.46.35,9.28-1.81,13.26,1.9,1.81,3.05.45,5.33-1.8,7.39Z"/>
    <path class="cls-95" d="M656.35,933.76c-.41-7.01-2.36-13.63-5.06-20.06-4.29-3.91-5.83-8.25-2.11-13.42,3.59-.15,7.17-.3,10.76-.44,6.43,4.6,2.87,11.87,4.76,17.69.14,2-.47,3.77-1.66,5.37-.52,4.7-.32,9.29,1.84,13.63-6.41,10.09-6.05-.71-8.53-2.76Z"/>
    <path class="cls-129" d="M622.24,833.78c-10.42-.02-13.22-7.86-16.12-15.64-7.99-21.5-19.25-40.28-40.11-52.14-7.67-4.36-17.48-4.08-23.59-11.42,9.29-20.49,37.5-32.67,64.64-28.79,28.19,4.03,48.31,19.26,62.95,42.89.96,1.56,2.52,2.75,3.79,4.11,9.88,12.07,9.29,24.17-1.95,40.28-9.95,11.69-21.71,20.51-37.28,23.12-4.37.73-8.95,2.03-12.35-2.41Z"/>
    <path class="cls-97" d="M764.76,746.72c2.29-.1,4.57-.27,6.86-.03,1.76.03,3.52.06,5.28.15,3.8.06,6.98,1.45,9.39,4.44,5.8,3.33,11.59,6.65,17.39,9.98,2.19,1.15.8,1.89.46,2.37-4.21.72-16.86,12.03-20.4,21.52-5.66,15.18-9.52,31.02-14.15,46.58-1.95,1.78-4.27,1.65-6.33.66-25.37-12.15-53.02-9.66-79.82-12.53-4.81-.52-9.95.24-13.76-3.74-1.17-1.22-1-2.7-.06-4.07,9.08-12.26,9.5-25.45,4.21-39.26.76-12.02,11.24-10.65,18.64-13.52,12.59-8.68,26.78-7.98,41.02-6.98"/>
    <path class="cls-89" d="M460.53,898.56c-9.68.03-19.36.07-29.05.11-6.9-8.33-6.47-18.99-6.38-29.28.77-85.61.75-171.25.76-256.83,0-88.35-.02-176.75-.82-265.12-.13-14.88-5-21.01-17.92-20.98-73.31.17-146.62.32-219.93-.08-16.03-.09-18.22,9.76-18.2,24.91.14,82.89.09,165.78.07,248.66-.02,88.41.08,176.83-.09,265.24-.02,11.57,1.38,23.76-6.38,33.42-9.69,0-19.38.01-29.07.01,0-36.02.15-29.46.15-49.16,0-179.56.35-359.12-.46-538.67-.1-21.71,5.49-26.22,22.96-26.04,95.16.96,190.33.8,285.5.08,14.72-.11,19.01,4.87,18.96,22.08-.49,173.34-.35,346.69-.2,520.03"/>
    <path class="cls-121" d="M162.6,898.6c-.12-187.97-.16-375.94-.51-563.91-.02-12.52,3.42-16.62,14.29-16.56,80.44.44,160.89.67,241.33-.15,16.69-.17,14.15,11.55,14.15,23,0,170.7-.05,341.39-.1,512.09,0,15.2-.18,30.4-.27,45.6-89.63-.02-179.26-.05-268.89-.07Z"/>
    <path class="cls-112" d="M372.37,617.01c-7.49,21.96-14.85,30.15-35.4,32.96-26.41,3.61-53.22,1.01-79.79,0-22.36-.85-38.19-21.12-38.25-47.24-.15-60.78-.15-121.56,0-182.34.07-28.97,13.2-43.91,38.09-43.97,26.6-.06,53.2-.06,79.81,0,25.74.06,38.3,14.95,38.37,45.75.1,42.82-.16,85.65.14,128.47.09,12.34.71,24.91.71,37.25,0,8.76-2.18,37.15-9.54,37.55-7.81.42-.76-19.47-.86-37.31-.29-53.79-.81-107.59-1.09-161.38-.14-28.24-5.13-38.17-28.02-40.39-28.66-2.77-57.64-4.51-86.42,1.79-14.45,3.16-20.26,13.89-20.35,28.96-.4,62.85-.34,125.7-.07,188.55.09,20.38,11.56,30.55,27.16,31.42,27.13,1.53,54.37,1.14,81.55.4,13.67-.37,21.87-12.33,25.08-26.38,1.17-1.44,7.78,4.42,8.91,5.91Z"/>
    <path class="cls-112" d="M295.97,841.18c-14.19,0-28.37.1-42.56-.03-20.02-.19-33.93-16.04-34.46-39.85-.4-17.94-.22-35.91-.05-53.86.24-25.93,16.11-46.25,38.42-47.06,26.57-.97,53.21-1.03,79.78.03,22.4.89,37.84,21.12,38.07,47.44.15,16.57.15,33.15,0,49.72-.25,27.99-13.32,43.48-36.65,43.6-14.19.07-28.37.01-42.56,0Z"/>
    <path class="cls-58" d="M395.71,603.79c2.9-9.23,8.81-12.94,17.78-11.5,7.28,1.17,11.03,8.06,11.04,16.52.01,8.49-3.75,16.12-11.05,16.52-10.61.59-14.44-1.38-17.79-11.53q-1.45-5,0-10.02Z"/>
    <path class="cls-64" d="M368.11,613.61c-5.9,0-6.58-8.67,1.78-8.67s17.4.21,26.01-.14c6.55,0,13.9-.84,13.9,4,0,6.07-5.09,5.01-14.09,5.01-8.06-.05-16.11-.09-24.16-.13"/>
    <path class="cls-108" d="M297.37,712.65c12.41,0,24.87-.79,37.23.18,20.91,1.64,29.53,12.76,29.89,37.07.2,13.12.06,26.24.03,39.37-.07,30.24-7.3,41.26-32.39,43.03-23.56,1.67-47.35,1.75-70.89-.1-24.37-1.92-31.61-12.99-31.71-41.65-.05-13.12-.13-26.25.02-39.37.29-26.41,9.34-37.38,32.35-38.5,11.8-.57,23.64-.1,35.47-.1,0,.02,0,.05,0,.07Z"/>
    <rect class="cls-67" x="404.82" y="419.24" width="61.66" height="19.89"/>
    <rect class="cls-67" x="404.82" y="778.3" width="61.66" height="19.89"/>
  </g>
</svg>