<?xml version="1.0" encoding="utf-8"?>
<!-- Generator: Adobe Illustrator 28.3.0, SVG Export Plug-In . SVG Version: 6.00 Build 0)  -->
<svg version="1.1" id="Laag_1" xmlns="http://www.w3.org/2000/svg" xmlns:xlink="http://www.w3.org/1999/xlink" x="0px" y="0px"
	 viewBox="0 0 80 80" style="enable-background:new 0 0 80 80;" xml:space="preserve">
<g>
	<path d="M7.94,32.91c0.46-1.56,1.27-2.85,2.69-3.71c0.86-0.52,1.79-0.82,2.79-0.83c3.55-0.02,7.1,0,10.65-0.02
		c0.51,0,0.71,0.17,0.7,0.69c-0.12,5.68-0.23,11.36-0.33,17.04c-0.03,1.63-0.05,3.26-0.03,4.89c0.01,0.63-0.21,0.82-0.84,0.82
		c-3.22-0.03-6.43-0.01-9.65-0.01c-2.92,0-4.96-1.48-5.87-4.26c-0.03-0.1-0.07-0.19-0.11-0.29C7.94,42.45,7.94,37.68,7.94,32.91z"/>
	<path d="M46.23,40.07c0,7.5,0,15.01,0,22.51c0,0.95-0.28,1.74-1.19,2.16c-0.85,0.4-1.58,0.11-2.26-0.44
		c-2.61-2.1-5.22-4.19-7.82-6.28c-2.17-1.74-4.33-3.48-6.51-5.21c-0.35-0.28-0.48-0.57-0.48-1.01c0.11-6.44,0.18-12.87,0.31-19.31
		c0.03-1.5,0.06-3.01,0.07-4.51c0-0.44,0.16-0.74,0.5-1.01c4.65-3.72,9.3-7.44,13.95-11.17c0.7-0.56,1.45-0.84,2.32-0.4
		c0.85,0.43,1.12,1.18,1.12,2.08C46.23,25.02,46.23,32.54,46.23,40.07z"/>
	<path d="M72.24,40.42c-0.01,6.49-1.66,12.87-4.88,18.86c-0.37,0.69-0.82,1.27-1.66,1.38c-0.77,0.1-1.41-0.16-1.86-0.8
		c-0.46-0.66-0.48-1.37-0.11-2.07c0.83-1.57,1.62-3.16,2.24-4.83c1.37-3.65,2.15-7.41,2.32-11.31c0.29-6.7-1.18-12.98-4.33-18.89
		c-0.19-0.35-0.4-0.69-0.45-1.09c-0.13-0.94,0.4-1.82,1.28-2.13c0.9-0.31,1.86,0.04,2.36,0.93c0.77,1.37,1.46,2.78,2.05,4.23
		c1.6,3.92,2.6,7.97,2.92,12.2C72.2,37.97,72.2,39.03,72.24,40.42z"/>
	<path d="M63.71,39.64c0.03,5.37-1.07,10.03-3.26,14.42c-0.73,1.46-2.43,1.71-3.36,0.48c-0.51-0.66-0.51-1.39-0.15-2.13
		c1.01-2.12,1.83-4.31,2.29-6.62c1.26-6.21,0.54-12.17-2.19-17.89c-0.13-0.28-0.28-0.56-0.32-0.88c-0.11-0.97,0.42-1.86,1.27-2.14
		c0.94-0.31,1.91,0.08,2.38,1.01c1,1.94,1.76,3.97,2.32,6.08C63.38,34.65,63.76,37.35,63.71,39.64z"/>
	<path d="M55.17,39.9c0.06,3.13-0.51,5.96-1.59,8.68c-0.37,0.92-1.08,1.37-1.99,1.31c-0.79-0.05-1.47-0.6-1.7-1.37
		c-0.19-0.64,0.01-1.23,0.23-1.83c0.82-2.17,1.2-4.43,1.18-6.75c-0.02-2.22-0.38-4.4-1.17-6.5c-0.08-0.21-0.16-0.43-0.23-0.65
		c-0.31-1.06,0.18-2.09,1.17-2.45c0.98-0.36,2.04,0.1,2.47,1.12c0.66,1.57,1.09,3.2,1.36,4.87C55.11,37.58,55.21,38.83,55.17,39.9z"
		/>
</g>
</svg>
