<?xml version="1.0" encoding="utf-8"?>
<!-- Generator: Adobe Illustrator 28.3.0, SVG Export Plug-In . SVG Version: 6.00 Build 0)  -->
<svg version="1.1" id="Laag_1" xmlns="http://www.w3.org/2000/svg" xmlns:xlink="http://www.w3.org/1999/xlink" x="0px" y="0px"
	 viewBox="0 0 202.11 93.74" style="enable-background:new 0 0 202.11 93.74;" xml:space="preserve">
<style type="text/css">
	.st0{fill:#473327;}
	.st1{fill:#F78F79;}
	.st2{fill:#F0D3DA;}
	.st3{fill:#FECF80;}
	.st4{fill:#BBCFD0;}
	.st5{fill:#EFD8D5;}
	.st6{fill:#617787;}
</style>
<g>
	<path class="st0" d="M5.97,41.99C4.35,43.72,3.33,46.78,0,44.63c-0.05-13.5-0.1-27.01-0.15-40.51C3.49-0.13,8.44,0.01,13.4,0
		c58.18-0.07,116.35,0.1,174.53-0.1c4.98-0.02,9.84,0.27,13.9,3.68c0.1,25.37,0.22,50.73,0.28,76.1
		c0.04,16.03-0.99,13.98-21.67,13.98c-2.99-2.49-0.49-7.62-1.44-11.04c-0.67-3.53-0.71-7.03,0.85-10.38
		c1.57-2.92,4.58-4.83,5.66-8.09c2.69-5.74,0.63-8.85-5.45-9.01c-19.65-0.52-39.3-0.46-58.95-0.03c-5.59,0.12-8.84,3.69-11.5,8.05
		c-3.32,6.38-5.45,13.27-8.45,19.79c-2.66,3.23-3.34,7.66-6.23,10.72c-8.06,0-12.42,0-21.13,0c-0.76-0.9-0.96-1.27-1.53-2.29
		c-2.92-16.1-0.67-32.36-1.38-48.53c-0.15-3.38,0.63-6.97-0.87-10.07c-1.8-3.72-3.52-0.24-5.24,0.56c-0.89,0.77-1.87,1.34-2.94,1.77
		c-2.19,0.77-4.42,0.83-6.65,0.34c-4.84,0-4.19-6.79-8.77-7.06c-1.23,1.96,2.39,63.72,0.58,65.28c-18.27,0-6.11-58.38-7.16-58.05
		c-3.42,0.82-6.79,0.59-10.13-0.38c-4.37-2.15-9-3.46-13.82-4.09c-2.98-0.76-4.94,0.02-5.9,3.25C9.16,37.13,9.12,40.42,5.97,41.99z"
		/>
	<g>
		<rect x="92.47" y="82.28" class="st1" width="90.96" height="11.37"/>
		<rect x="98.97" y="70.5" class="st2" width="82.03" height="11.78"/>
		<rect x="103.84" y="61.98" class="st3" width="83.65" height="8.53"/>
		<rect x="108.31" y="55.07" class="st1" width="86.49" height="6.9"/>
		<rect x="111.15" y="50.2" class="st4" width="78.37" height="4.87"/>
		<rect x="62.02" y="23.4" class="st1" width="11.78" height="70.25"/>
		<rect x="51.46" y="32.33" class="st3" width="10.56" height="61.32"/>
		<rect x="42.53" y="21.37" class="st5" width="8.93" height="72.28"/>
		<rect x="28.72" y="32.33" class="st1" width="11.37" height="61.32"/>
		<rect x="14.51" y="28.27" class="st4" width="14.21" height="65.38"/>
		<rect x="5.98" y="25.02" class="st3" width="8.53" height="68.63"/>
	</g>
</g>
<path class="st6" d="M-0.15,93.74c13.3,0,25.45-0.09,45.29,0c0.09-1.88-0.35-4.27-0.89-6.04c-0.93-2.86-1.04-5.91-2.06-8.74
	c-5.07-10.43-5.93-22.79-14.43-31.66c-3.22-2.28-6.85-3.43-10.75-3.81c-3.61,0.07-6.94-1.07-10.28-2.19
	C4.07,40.86,1.68,42.91,0,44.54C-0.15,67.49-0.06,62.9-0.15,93.74z"/>
</svg>
