<?xml version="1.0" encoding="utf-8"?>
<!-- Generator: Adobe Illustrator 28.3.0, SVG Export Plug-In . SVG Version: 6.00 Build 0)  -->
<svg version="1.1" xmlns="http://www.w3.org/2000/svg" xmlns:xlink="http://www.w3.org/1999/xlink" x="0px" y="0px"
	 viewBox="0 0 202.11 93.74" style="enable-background:new 0 0 202.11 93.74;" xml:space="preserve">
<style type="text/css">
	.st0{fill:#473327;}
	.st1{fill:#F78F79;}
	.st2{fill:#F0D3DA;}
	.st3{fill:#FECF80;}
	.st4{fill:#BBCFD0;}
	.st5{fill:#EFD8D5;}
	.st6{font-family:'Superclarendon-Regular';}
	.st7{font-size:6.585px;}
	.st8{fill:#ED1C24;}
	.st9{font-family:'Futura-Medium';}
	.st10{font-size:7.2696px;}
	.st11{font-family:'BaiJamjuree-Regular';}
	.st12{font-family:'BalooTamma2-Regular';}
	.st13{font-size:14.8596px;}
	.st14{font-family:'Didot';}
	.st15{font-size:7.3329px;}
	.st16{font-family:'KohinoorTelugu-Regular';}
	.st17{font-size:7.029px;}
	.st18{font-family:'ArialMT';}
	.st19{font-size:7.441px;}
	.st20{font-family:'DINCondensed-Bold';}
	.st21{font-size:5.4235px;}
	.st22{fill:#617787;}
</style>
<g id="boekenkast">
	<g>
		<path class="st0" d="M5.97,41.99C4.35,43.72,3.33,46.78,0,44.63C-0.05,31.13,0.67,9.72,2.94,3.04c4.1-1.47,6.49-2.14,11.56-2.14
			C74,0.9,73.63,0,182.68,0c5.29,0,12.69,1.31,15.76,3.58c2.27,12.95,3.54,50.73,3.67,76.1c0.03,6.64,0,14.06,0,14.06
			s-9.3,0-21.68-0.09c-2.99-2.49-0.49-7.62-1.44-11.04c-0.67-3.53-0.71-7.03,0.85-10.38c1.57-2.92,4.58-4.83,5.66-8.09
			c2.69-5.74,0.63-8.85-5.45-9.01c-19.65-0.52-39.3-0.46-58.95-0.03c-5.59,0.12-8.84,3.69-11.5,8.05
			c-3.32,6.38-5.45,13.27-8.45,19.79c-2.66,3.23-3.34,7.66-6.23,10.72c-8.06,0-12.42,0-21.13,0c-0.76-0.9-0.96-1.27-1.53-2.29
			c-2.92-16.1-0.67-32.36-1.38-48.53c-0.15-3.38,0.63-6.97-0.87-10.07c-1.8-3.72-3.52-0.24-5.24,0.56
			c-0.89,0.77-1.87,1.34-2.94,1.77c-2.19,0.77-4.42,0.83-6.65,0.34c-4.84,0-4.19-6.79-8.77-7.06c-1.23,1.96,2.39,63.72,0.58,65.28
			c-18.27,0-6.11-58.38-7.16-58.05c-3.42,0.82-6.79,0.59-10.13-0.38c-4.37-2.15-9-3.46-13.82-4.09c-2.98-0.76-4.94,0.02-5.9,3.25
			C9.16,37.13,9.12,40.42,5.97,41.99z"/>
		<g>
			<rect x="92.47" y="82.28" class="st1" width="90.96" height="11.37"/>
			<rect x="98.97" y="70.5" class="st2" width="82.03" height="11.78"/>
			<rect x="103.84" y="61.98" class="st3" width="83.65" height="8.53"/>
			<rect x="108.31" y="55.07" class="st1" width="86.49" height="6.9"/>
			<rect x="111.15" y="50.2" class="st4" width="78.37" height="4.87"/>
			<rect x="62.02" y="23.4" class="st1" width="11.78" height="70.25"/>
			<rect x="51.46" y="32.33" class="st3" width="10.56" height="61.32"/>
			<rect x="42.53" y="21.37" class="st5" width="8.93" height="72.28"/>
			<rect x="28.72" y="32.33" class="st1" width="11.37" height="61.32"/>
			<rect x="14.51" y="28.27" class="st4" width="14.21" height="65.38"/>
			<rect x="5.98" y="25.02" class="st3" width="8.53" height="68.63"/>
		</g>
	</g>
</g>
<g id="titels">
	<text transform="matrix(0.8789 0 0 1 93.8145 90.6746)"><tspan x="0" y="0" class="st6 st7">Echoe</tspan><tspan x="22.05" y="0" class="st8 st6 st7">s</tspan><tspan x="25.65" y="0" class="st6 st7"> of Eternity</tspan></text>
	<text transform="matrix(5.381688e-17 -0.7203 1 5.018081e-17 70.0884 92.1765)" class="st9 st10">Chrimson Dawn Chronicles</text>
	<text transform="matrix(5.381688e-17 -0.8789 1 6.123234e-17 59.1245 91.9622)" class="st11 st7">The Last Ember</text>
	<text transform="matrix(5.381689e-17 -0.5028 1 3.502693e-17 26.3516 90.6746)" class="st12 st13">Lost and Beyond</text>
	<text transform="matrix(5.381688e-17 -0.7227 1 5.034874e-17 36.0098 91.9627)"><tspan x="0" y="0" class="st14 st15">Aurora’s Awaken</tspan><tspan x="57.03" y="0" class="st8 st14 st15">i</tspan><tspan x="59.2" y="0" class="st14 st15">ng</tspan></text>
	<text transform="matrix(5.381687e-17 -0.8244 1 5.743377e-17 49.6321 92.7196)"><tspan x="0" y="0" class="st16 st17">Lost in Lumi</tspan><tspan x="39.24" y="0" class="st8 st16 st17">n</tspan><tspan x="43.27" y="0" class="st16 st17">iscence</tspan></text>
	<text transform="matrix(2.489710e-16 -1.3137 1 4.234313e-16 12.4654 91.7488)"><tspan x="0" y="0" class="st18 st19">Sands of Ti</tspan><tspan x="37.64" y="0" class="st8 st18 st19">m</tspan><tspan x="43.84" y="0" class="st18 st19">e</tspan></text>
	<g>
		<g>
			<path d="M106.23,74.23c-0.28,1.29-0.55,2.56-0.79,3.81c-0.24,1.24-0.37,1.89-0.38,1.95h-0.35c-0.01-0.06-0.1-0.52-0.27-1.39
				s-0.4-1.96-0.68-3.26h0c-0.25,1.08-0.47,2.11-0.68,3.09c-0.21,0.98-0.32,1.5-0.33,1.57h-0.36c-0.01-0.08-0.12-0.66-0.32-1.72
				c-0.2-1.06-0.47-2.39-0.81-3.98l0.41-0.28c0.01,0.04,0.1,0.55,0.29,1.54c0.19,0.99,0.41,2.09,0.65,3.32l0,0
				c0.26-1.13,0.48-2.17,0.68-3.11c0.19-0.94,0.29-1.44,0.3-1.48h0.39c0.01,0.05,0.11,0.58,0.31,1.6c0.2,1.02,0.4,2.02,0.6,2.99
				l0-0.01c0.27-1.27,0.5-2.39,0.68-3.35c0.18-0.96,0.28-1.46,0.29-1.51L106.23,74.23z"/>
			<path d="M108.98,79.96h-0.4c0-0.09,0-0.35,0.01-0.79s0-0.73,0-0.87c0-0.15,0-0.38,0-0.67c0-0.3,0-0.51,0-0.65
				c0-0.34-0.04-0.58-0.11-0.72c-0.07-0.15-0.19-0.22-0.36-0.22c-0.1,0-0.22,0.05-0.37,0.15c-0.15,0.1-0.31,0.24-0.47,0.41
				l0.01,3.37h-0.4c0-0.11,0-0.57,0.01-1.38s0-1.47,0-1.99c0-0.34,0-0.77,0-1.28c0-0.51,0-1.11-0.01-1.78h0.4l-0.01,2.49l0,0
				c0.24-0.23,0.44-0.4,0.59-0.49c0.15-0.09,0.28-0.14,0.39-0.14c0.21,0,0.39,0.12,0.52,0.35c0.13,0.24,0.19,0.56,0.19,0.97
				c0,0.37,0,0.68,0,0.95c0,0.27,0,0.48,0,0.65c0,0.27,0,0.57,0,0.92C108.98,79.6,108.98,79.84,108.98,79.96z"/>
			<path d="M110.34,74.68h-0.44v-0.75h0.44V74.68z M110.31,79.96h-0.4c0-0.05,0-0.33,0.01-0.86s0-0.96,0-1.31c0-0.3,0-0.63,0-0.99
				s0-0.78-0.01-1.27h0.4c0,0.42-0.01,0.81-0.01,1.18c0,0.37,0,0.69,0,0.98c0,0.68,0,1.23,0.01,1.64
				C110.31,79.74,110.31,79.95,110.31,79.96z"/>
			<path d="M112.64,78.68c0,0.22-0.03,0.41-0.09,0.58c-0.06,0.17-0.14,0.31-0.24,0.41c-0.1,0.11-0.22,0.19-0.36,0.25
				c-0.14,0.06-0.29,0.09-0.46,0.09c-0.08,0-0.17-0.01-0.26-0.02c-0.09-0.01-0.14-0.02-0.15-0.02l-0.02-0.57
				c0.02,0,0.07,0.01,0.17,0.02c0.1,0.01,0.2,0.02,0.3,0.02c0.06,0,0.13-0.01,0.23-0.03s0.17-0.05,0.23-0.1
				c0.08-0.06,0.15-0.14,0.19-0.24c0.04-0.09,0.06-0.21,0.06-0.34c0-0.12-0.02-0.22-0.05-0.29c-0.04-0.08-0.08-0.15-0.15-0.22
				c-0.07-0.08-0.16-0.16-0.28-0.25c-0.12-0.09-0.21-0.17-0.29-0.26c-0.11-0.12-0.2-0.26-0.26-0.42c-0.06-0.16-0.09-0.35-0.09-0.57
				s0.03-0.41,0.1-0.58c0.07-0.17,0.16-0.31,0.27-0.42c0.1-0.09,0.21-0.16,0.33-0.19s0.24-0.05,0.35-0.05c0.1,0,0.19,0,0.25,0.01
				s0.1,0.01,0.11,0.01l0.03,0.58c-0.01,0-0.06-0.01-0.16-0.02c-0.09-0.01-0.19-0.02-0.3-0.02c-0.08,0-0.15,0.01-0.22,0.04
				s-0.13,0.06-0.18,0.1c-0.07,0.06-0.12,0.14-0.15,0.23c-0.03,0.09-0.05,0.18-0.05,0.26c0,0.12,0.02,0.22,0.07,0.3
				c0.04,0.08,0.1,0.16,0.15,0.21c0.07,0.07,0.16,0.15,0.28,0.25c0.12,0.1,0.21,0.17,0.26,0.23c0.12,0.13,0.21,0.27,0.27,0.43
				C112.61,78.28,112.64,78.46,112.64,78.68z"/>
			<path d="M115.53,77.61c0,0.45-0.06,0.84-0.17,1.15c-0.12,0.32-0.27,0.57-0.47,0.75c-0.17,0.16-0.36,0.27-0.56,0.33
				c-0.2,0.06-0.4,0.1-0.58,0.1l0.01,2.01h-0.4c0-0.05,0-0.45,0.01-1.21c0-0.76,0-1.52,0-2.28c0-0.38,0-0.83,0-1.33
				c0-0.51,0-1.05-0.01-1.64c0.05,0,0.11,0,0.16,0s0.09,0,0.12,0c0.35,0,0.63,0.03,0.82,0.1s0.37,0.18,0.53,0.34
				c0.17,0.17,0.3,0.4,0.4,0.69S115.53,77.24,115.53,77.61z M115.13,77.64c0-0.29-0.04-0.54-0.12-0.75s-0.18-0.39-0.3-0.51
				c-0.11-0.11-0.24-0.19-0.38-0.24c-0.14-0.05-0.3-0.08-0.47-0.08c-0.02,0-0.04,0-0.06,0s-0.04,0-0.06,0c0,0.05,0,0.22,0,0.52
				s0,0.81,0,1.53c0,0.15,0,0.36,0,0.64s0,0.49,0,0.66c0.16,0,0.31-0.03,0.47-0.08c0.16-0.05,0.29-0.12,0.39-0.21
				c0.17-0.15,0.3-0.34,0.39-0.58S115.13,77.99,115.13,77.64z"/>
			<path d="M118.17,77.59h-1.82c0,0.31,0.04,0.59,0.11,0.85c0.07,0.26,0.19,0.47,0.34,0.64c0.1,0.11,0.21,0.19,0.33,0.24
				c0.12,0.05,0.27,0.08,0.45,0.08c0.1,0,0.18,0,0.26-0.01s0.13-0.01,0.15-0.02l-0.05,0.58c-0.01,0-0.06,0.01-0.13,0.02
				c-0.08,0.01-0.16,0.01-0.27,0.01c-0.27,0-0.5-0.06-0.7-0.18s-0.36-0.29-0.49-0.5c-0.11-0.18-0.2-0.41-0.28-0.68
				s-0.11-0.58-0.11-0.92c0-0.33,0.03-0.63,0.09-0.9s0.14-0.52,0.26-0.75c0.1-0.2,0.22-0.35,0.37-0.46c0.15-0.11,0.3-0.16,0.46-0.16
				c0.16,0,0.29,0.04,0.42,0.12s0.23,0.21,0.31,0.37c0.1,0.19,0.17,0.42,0.23,0.69C118.14,76.88,118.17,77.2,118.17,77.59z
				 M117.78,77.1c-0.03-0.36-0.1-0.65-0.21-0.85c-0.12-0.21-0.27-0.31-0.45-0.31c-0.19,0-0.34,0.1-0.47,0.31
				c-0.13,0.21-0.21,0.49-0.26,0.85H117.78z"/>
			<path d="M120.31,76.05c-0.09,0.04-0.23,0.12-0.42,0.24c-0.19,0.12-0.41,0.29-0.66,0.49c0,0.03,0,0.18,0,0.44c0,0.26,0,0.5,0,0.73
				c0,0.34,0,0.75,0.01,1.23s0.01,0.74,0.01,0.79h-0.4c0-0.05,0-0.21,0.01-0.49c0-0.28,0-0.75,0-1.42c0-0.27,0-0.65,0-1.14
				c0-0.49,0-0.95-0.01-1.38h0.39v0.67l0,0c0.19-0.19,0.38-0.35,0.56-0.49c0.18-0.14,0.33-0.23,0.44-0.28L120.31,76.05z"/>
			<path d="M122.2,78.68c0,0.22-0.03,0.41-0.09,0.58c-0.06,0.17-0.14,0.31-0.24,0.41c-0.1,0.11-0.22,0.19-0.36,0.25
				c-0.14,0.06-0.29,0.09-0.46,0.09c-0.08,0-0.17-0.01-0.26-0.02c-0.09-0.01-0.14-0.02-0.15-0.02l-0.02-0.57
				c0.02,0,0.07,0.01,0.17,0.02c0.1,0.01,0.2,0.02,0.3,0.02c0.06,0,0.13-0.01,0.23-0.03s0.17-0.05,0.23-0.1
				c0.08-0.06,0.15-0.14,0.19-0.24c0.04-0.09,0.06-0.21,0.06-0.34c0-0.12-0.02-0.22-0.05-0.29c-0.04-0.08-0.08-0.15-0.15-0.22
				c-0.07-0.08-0.16-0.16-0.28-0.25c-0.12-0.09-0.21-0.17-0.29-0.26c-0.11-0.12-0.2-0.26-0.26-0.42c-0.06-0.16-0.09-0.35-0.09-0.57
				s0.03-0.41,0.1-0.58c0.07-0.17,0.16-0.31,0.27-0.42c0.1-0.09,0.21-0.16,0.33-0.19s0.24-0.05,0.35-0.05c0.1,0,0.19,0,0.25,0.01
				s0.1,0.01,0.11,0.01l0.03,0.58c-0.01,0-0.06-0.01-0.16-0.02c-0.09-0.01-0.19-0.02-0.3-0.02c-0.08,0-0.15,0.01-0.22,0.04
				s-0.13,0.06-0.18,0.1c-0.07,0.06-0.12,0.14-0.15,0.23c-0.03,0.09-0.05,0.18-0.05,0.26c0,0.12,0.02,0.22,0.07,0.3
				c0.04,0.08,0.1,0.16,0.15,0.21c0.07,0.07,0.16,0.15,0.28,0.25c0.12,0.1,0.21,0.17,0.26,0.23c0.12,0.13,0.21,0.27,0.27,0.43
				C122.17,78.28,122.2,78.46,122.2,78.68z"/>
			<path d="M124.65,74.68h-0.44v-0.75h0.44V74.68z M124.62,79.96h-0.4c0-0.05,0-0.33,0.01-0.86s0-0.96,0-1.31c0-0.3,0-0.63,0-0.99
				s0-0.78-0.01-1.27h0.4c0,0.42-0.01,0.81-0.01,1.18c0,0.37,0,0.69,0,0.98c0,0.68,0,1.23,0.01,1.64
				C124.62,79.74,124.62,79.95,124.62,79.96z"/>
			<path d="M127.65,79.96h-0.4c0-0.08,0-0.35,0.01-0.81c0-0.46,0-0.74,0-0.85c0-0.15,0-0.38,0-0.67c0-0.3,0-0.51,0-0.65
				c0-0.34-0.04-0.58-0.11-0.72c-0.07-0.15-0.19-0.22-0.36-0.22c-0.1,0-0.23,0.05-0.38,0.16c-0.15,0.11-0.3,0.24-0.46,0.4
				c0,0.03,0,0.21,0,0.52c0,0.32,0,0.6,0,0.86c0,0.34,0,0.75,0.01,1.23s0.01,0.73,0.01,0.75h-0.4c0-0.02,0-0.2,0.01-0.54
				c0-0.34,0-0.84,0-1.5c0-0.31,0-0.67,0-1.08c0-0.41,0-0.85-0.01-1.31h0.39l0,0.5l0,0.01c0.23-0.23,0.43-0.4,0.59-0.49
				c0.16-0.09,0.29-0.14,0.39-0.14c0.21,0,0.39,0.12,0.52,0.35c0.13,0.24,0.19,0.56,0.19,0.97c0,0.37,0,0.68,0,0.95
				c0,0.27,0,0.48,0,0.65c0,0.27,0,0.6,0.01,1C127.65,79.73,127.65,79.94,127.65,79.96z"/>
			<path d="M131.23,79.42l-0.05,0.56c-0.01,0-0.04,0.01-0.09,0.01c-0.05,0-0.09,0-0.12,0c-0.34,0-0.6-0.12-0.78-0.37
				c-0.18-0.25-0.26-0.63-0.26-1.15c0-0.32,0-0.67,0-1.04c0-0.37,0-0.83,0-1.38h-0.42v-0.51h0.44v-1.04h0.36v1.04h0.9v0.51h-0.9
				c0,0.06,0,0.24,0,0.55s0,0.53,0,0.67c0,0.12,0,0.27,0,0.45s0,0.39,0,0.63c0,0.38,0.06,0.65,0.18,0.82s0.3,0.25,0.54,0.25
				c0.03,0,0.07,0,0.11,0C131.19,79.42,131.22,79.42,131.23,79.42z"/>
			<path d="M133.95,79.96h-0.4c0-0.09,0-0.35,0.01-0.79s0-0.73,0-0.87c0-0.15,0-0.38,0-0.67c0-0.3,0-0.51,0-0.65
				c0-0.34-0.04-0.58-0.11-0.72c-0.07-0.15-0.19-0.22-0.36-0.22c-0.1,0-0.22,0.05-0.37,0.15c-0.15,0.1-0.31,0.24-0.47,0.41
				l0.01,3.37h-0.4c0-0.11,0-0.57,0.01-1.38s0-1.47,0-1.99c0-0.34,0-0.77,0-1.28c0-0.51,0-1.11-0.01-1.78h0.4l-0.01,2.49l0,0
				c0.24-0.23,0.44-0.4,0.59-0.49c0.15-0.09,0.28-0.14,0.39-0.14c0.21,0,0.39,0.12,0.52,0.35c0.13,0.24,0.19,0.56,0.19,0.97
				c0,0.37,0,0.68,0,0.95c0,0.27,0,0.48,0,0.65c0,0.27,0,0.57,0,0.92C133.95,79.6,133.95,79.84,133.95,79.96z"/>
			<path class="st8" d="M136.82,77.59H135c0,0.31,0.04,0.59,0.11,0.85c0.07,0.26,0.19,0.47,0.34,0.64c0.1,0.11,0.21,0.19,0.33,0.24
				c0.12,0.05,0.27,0.08,0.45,0.08c0.1,0,0.18,0,0.26-0.01s0.13-0.01,0.15-0.02l-0.05,0.58c-0.01,0-0.06,0.01-0.13,0.02
				c-0.08,0.01-0.16,0.01-0.27,0.01c-0.27,0-0.5-0.06-0.7-0.18s-0.36-0.29-0.49-0.5c-0.11-0.18-0.2-0.41-0.28-0.68
				s-0.11-0.58-0.11-0.92c0-0.33,0.03-0.63,0.09-0.9s0.14-0.52,0.26-0.75c0.1-0.2,0.22-0.35,0.37-0.46c0.15-0.11,0.3-0.16,0.46-0.16
				c0.16,0,0.29,0.04,0.42,0.12s0.23,0.21,0.31,0.37c0.1,0.19,0.17,0.42,0.23,0.69C136.79,76.88,136.82,77.2,136.82,77.59z
				 M136.43,77.1c-0.03-0.36-0.1-0.65-0.21-0.85c-0.12-0.21-0.27-0.31-0.45-0.31c-0.19,0-0.34,0.1-0.47,0.31
				c-0.13,0.21-0.21,0.49-0.26,0.85H136.43z"/>
			<path d="M141.71,77.07c0,0.51-0.07,0.96-0.22,1.35c-0.14,0.39-0.33,0.7-0.56,0.94c-0.2,0.21-0.42,0.36-0.67,0.47
				s-0.52,0.16-0.83,0.16c-0.12,0-0.23,0-0.34-0.01c-0.11-0.01-0.17-0.01-0.19-0.01c0-0.01,0-0.35,0.01-1.01
				c0-0.66,0.01-1.28,0.01-1.87c0-0.31,0-0.71,0-1.2s0-1.09-0.01-1.79c0.02,0,0.09,0,0.23,0c0.14,0,0.21,0,0.22,0
				c0.35,0,0.65,0.05,0.92,0.16c0.27,0.11,0.51,0.28,0.72,0.51c0.24,0.27,0.43,0.6,0.54,0.98
				C141.65,76.13,141.71,76.57,141.71,77.07z M141.29,77.06c0-0.38-0.05-0.72-0.14-1.03c-0.09-0.31-0.24-0.57-0.44-0.8
				c-0.19-0.21-0.4-0.35-0.63-0.43c-0.23-0.08-0.44-0.12-0.63-0.12c-0.02,0-0.05,0-0.08,0c-0.03,0-0.05,0-0.05,0
				c0,0.46-0.01,0.84-0.01,1.15c0,0.3,0,0.55,0,0.73c0,0.13,0,0.43,0,0.9c0,0.47,0,1.12,0,1.96c0.02,0,0.04,0,0.06,0
				c0.02,0,0.04,0,0.06,0c0.22,0,0.44-0.04,0.66-0.13s0.4-0.21,0.56-0.37c0.19-0.2,0.34-0.45,0.46-0.75
				C141.23,77.84,141.29,77.48,141.29,77.06z"/>
			<path d="M144.28,77.47c0,0.72,0,1.31,0,1.77s0,0.7,0,0.74c-0.02,0-0.09,0.01-0.23,0.03c-0.14,0.02-0.32,0.03-0.54,0.03
				c-0.14,0-0.28-0.02-0.42-0.07c-0.14-0.04-0.26-0.11-0.36-0.19c-0.13-0.11-0.24-0.26-0.33-0.44s-0.12-0.41-0.12-0.67
				c0-0.28,0.05-0.52,0.15-0.72c0.1-0.2,0.23-0.37,0.41-0.49c0.11-0.08,0.25-0.15,0.44-0.21c0.18-0.06,0.39-0.11,0.62-0.14
				c-0.01-0.23-0.04-0.41-0.1-0.56c-0.06-0.15-0.14-0.26-0.24-0.33c-0.07-0.05-0.16-0.09-0.25-0.11c-0.09-0.02-0.2-0.03-0.32-0.03
				c-0.08,0-0.14,0-0.19,0.01c-0.05,0.01-0.12,0.01-0.21,0.02l0.04-0.58c0.02,0,0.07-0.01,0.15-0.02c0.07-0.01,0.18-0.01,0.31-0.01
				c0.2,0,0.37,0.04,0.53,0.11c0.15,0.07,0.28,0.19,0.39,0.35c0.1,0.15,0.17,0.34,0.22,0.56C144.26,76.72,144.28,77.04,144.28,77.47
				z M143.9,78.52c0-0.1,0-0.22,0-0.38c0-0.15,0-0.33,0-0.53c-0.07,0.01-0.2,0.03-0.39,0.08c-0.18,0.04-0.34,0.11-0.46,0.19
				c-0.09,0.06-0.18,0.15-0.25,0.28c-0.07,0.12-0.11,0.27-0.11,0.46c0,0.2,0.03,0.36,0.09,0.48s0.15,0.21,0.25,0.28
				c0.08,0.05,0.17,0.08,0.27,0.11c0.1,0.02,0.2,0.03,0.32,0.03c0.03,0,0.07,0,0.12,0c0.05,0,0.1-0.01,0.15-0.01
				c0-0.02,0-0.12,0-0.29S143.9,78.82,143.9,78.52z"/>
			<path d="M146.65,76.05c-0.09,0.04-0.23,0.12-0.42,0.24c-0.19,0.12-0.41,0.29-0.66,0.49c0,0.03,0,0.18,0,0.44c0,0.26,0,0.5,0,0.73
				c0,0.34,0,0.75,0.01,1.23s0.01,0.74,0.01,0.79h-0.4c0-0.05,0-0.21,0.01-0.49c0-0.28,0-0.75,0-1.42c0-0.27,0-0.65,0-1.14
				c0-0.49,0-0.95-0.01-1.38h0.39v0.67l0,0c0.19-0.19,0.38-0.35,0.56-0.49c0.18-0.14,0.33-0.23,0.44-0.28L146.65,76.05z"/>
			<path d="M147.56,79.96h-0.4c0-0.05,0-0.45,0.01-1.18c0-0.74,0-1.49,0-2.26c0-0.33,0-0.75,0-1.25s0-1.08-0.01-1.73h0.4
				c0,0.52-0.01,1.12-0.01,1.8s0,1.09,0,1.22c0,0.3,0,0.93,0,1.89C147.56,79.41,147.56,79.91,147.56,79.96z M149.36,79.88
				l-0.24,0.38c-0.37-0.66-0.7-1.23-0.99-1.72s-0.45-0.76-0.48-0.81v-0.01c0.04-0.06,0.22-0.37,0.53-0.93
				c0.31-0.56,0.56-1.01,0.76-1.37l0.24,0.44c-0.2,0.33-0.41,0.69-0.63,1.06s-0.36,0.6-0.41,0.7v0
				C148.63,78.53,149.04,79.28,149.36,79.88z"/>
		</g>
	</g>
	<text transform="matrix(0.8553 0 0 1 105.2815 68.1463)" class="st20 st21">The Forgotten Symphony</text>
	<g>
		<g>
			<path d="M110.1,61.05h-0.17l-0.05-1.24h0.17c0.06,0.26,0.14,0.47,0.22,0.61c0.09,0.14,0.19,0.24,0.32,0.29
				c0.13,0.05,0.28,0.08,0.46,0.08c0.14,0,0.25-0.02,0.35-0.06c0.1-0.04,0.17-0.11,0.23-0.2c0.05-0.09,0.08-0.21,0.08-0.35
				c0-0.17-0.04-0.31-0.13-0.42c-0.09-0.11-0.2-0.21-0.33-0.3c-0.14-0.09-0.28-0.17-0.42-0.26c-0.14-0.09-0.28-0.18-0.41-0.28
				c-0.13-0.1-0.24-0.22-0.32-0.36c-0.08-0.14-0.13-0.31-0.13-0.51c0-0.2,0.05-0.37,0.14-0.51c0.09-0.14,0.22-0.24,0.37-0.31
				s0.32-0.11,0.51-0.11c0.16,0,0.29,0.01,0.38,0.04c0.09,0.03,0.16,0.06,0.21,0.09c0.05,0.03,0.1,0.05,0.14,0.05
				s0.08-0.01,0.1-0.04c0.03-0.02,0.05-0.07,0.06-0.13h0.14l0.04,1.15h-0.16c-0.08-0.32-0.17-0.55-0.3-0.71s-0.32-0.23-0.59-0.22
				c-0.18,0-0.32,0.05-0.42,0.14c-0.1,0.09-0.15,0.22-0.15,0.4c0,0.14,0.04,0.26,0.11,0.37c0.08,0.1,0.17,0.19,0.29,0.27
				c0.12,0.08,0.25,0.16,0.38,0.25c0.12,0.07,0.24,0.15,0.36,0.22c0.12,0.07,0.23,0.16,0.33,0.25c0.1,0.09,0.18,0.2,0.24,0.32
				c0.06,0.12,0.09,0.27,0.09,0.44c0,0.22-0.05,0.41-0.14,0.56c-0.09,0.15-0.22,0.27-0.39,0.35s-0.35,0.12-0.56,0.12
				c-0.19,0-0.34-0.01-0.45-0.04c-0.12-0.03-0.21-0.06-0.27-0.09c-0.07-0.03-0.12-0.04-0.16-0.04c-0.04,0-0.07,0.02-0.1,0.05
				C110.12,60.95,110.1,60.99,110.1,61.05z"/>
			<path d="M113.77,60.96h-1.21V60.8c0.14,0,0.24-0.02,0.29-0.06c0.06-0.04,0.08-0.14,0.08-0.3v-2.94c0-0.1-0.03-0.16-0.08-0.19
				c-0.05-0.03-0.11-0.04-0.18-0.04c-0.04,0-0.09,0-0.16,0.01V57.1l0.72-0.2h0.14v3.5c0,0.1,0.01,0.18,0.02,0.24s0.05,0.1,0.11,0.12
				c0.06,0.02,0.15,0.03,0.27,0.03V60.96z M115.37,60.96h-1.23V60.8c0.12,0,0.21-0.01,0.27-0.04c0.05-0.03,0.09-0.07,0.1-0.13
				c0.01-0.06,0.02-0.13,0.02-0.22v-1c0-0.16-0.01-0.3-0.03-0.43c-0.02-0.13-0.07-0.24-0.14-0.32c-0.07-0.08-0.18-0.12-0.32-0.12
				c-0.11,0-0.22,0.03-0.34,0.09c-0.11,0.06-0.24,0.17-0.39,0.33l0.01-0.32h0.07c0.17-0.17,0.32-0.29,0.45-0.36s0.27-0.11,0.41-0.11
				c0.15,0,0.28,0.03,0.37,0.1c0.09,0.07,0.17,0.15,0.22,0.26c0.05,0.11,0.08,0.22,0.1,0.35c0.02,0.12,0.03,0.25,0.03,0.36v1.14
				c0,0.15,0.02,0.26,0.07,0.32c0.05,0.06,0.16,0.09,0.32,0.09V60.96z"/>
			<path d="M116.32,61c-0.21,0-0.36-0.06-0.47-0.18c-0.11-0.12-0.16-0.28-0.16-0.46c0-0.15,0.03-0.28,0.1-0.39s0.15-0.19,0.26-0.27
				c0.11-0.07,0.23-0.13,0.35-0.18s0.25-0.09,0.37-0.13c0.12-0.03,0.23-0.07,0.32-0.1v-0.25c0-0.25-0.04-0.43-0.12-0.53
				c-0.08-0.11-0.2-0.16-0.36-0.16c-0.15,0-0.25,0.03-0.29,0.1c-0.04,0.07-0.06,0.19-0.06,0.36c0,0.09-0.02,0.15-0.06,0.2
				s-0.1,0.07-0.17,0.07c-0.05,0-0.1-0.02-0.15-0.07c-0.05-0.04-0.07-0.11-0.07-0.21c0-0.11,0.04-0.21,0.11-0.3s0.19-0.17,0.33-0.24
				c0.14-0.06,0.31-0.09,0.5-0.09c0.29,0,0.5,0.07,0.62,0.22s0.18,0.37,0.18,0.67v1.31c0,0.12,0.01,0.2,0.04,0.23
				s0.07,0.05,0.12,0.05c0.05,0,0.1-0.01,0.14-0.04c0.04-0.03,0.08-0.06,0.11-0.1l0.08,0.09c-0.09,0.14-0.17,0.24-0.25,0.3
				c-0.08,0.06-0.19,0.09-0.32,0.09c-0.12,0-0.21-0.04-0.24-0.11c-0.04-0.08-0.07-0.19-0.08-0.33l-0.03-0.07v-0.99
				c-0.16,0.04-0.31,0.09-0.45,0.15s-0.26,0.13-0.35,0.22c-0.09,0.09-0.13,0.21-0.13,0.36c0,0.14,0.04,0.26,0.11,0.34
				s0.16,0.13,0.28,0.13c0.09,0,0.19-0.02,0.29-0.07s0.2-0.12,0.3-0.21l0.04,0.21h-0.06c-0.08,0.08-0.16,0.15-0.24,0.21
				s-0.16,0.11-0.25,0.14S116.43,61,116.32,61z"/>
			<path d="M119.14,61.01c-0.2,0-0.37-0.06-0.51-0.17c-0.14-0.11-0.24-0.27-0.31-0.47c-0.07-0.2-0.1-0.42-0.1-0.67
				c0-0.32,0.06-0.59,0.17-0.82c0.11-0.23,0.26-0.4,0.45-0.53c0.19-0.12,0.39-0.18,0.62-0.18c0.09,0,0.17,0.01,0.25,0.03
				c0.08,0.02,0.17,0.06,0.24,0.1h0.02v-0.75c0-0.13-0.01-0.21-0.04-0.25c-0.03-0.04-0.09-0.06-0.2-0.06c-0.03,0-0.07,0-0.14,0.01
				V57.1l0.67-0.2h0.14v3.44c0,0.15,0.02,0.25,0.06,0.29c0.04,0.04,0.11,0.07,0.21,0.07h0.11v0.16l-0.68,0.13h-0.12v-0.4h-0.02
				c-0.1,0.1-0.22,0.19-0.36,0.28S119.32,61.01,119.14,61.01z M119.39,60.59c0.12,0,0.23-0.02,0.32-0.05
				c0.09-0.04,0.17-0.09,0.27-0.16v-1.52c-0.02-0.12-0.07-0.23-0.16-0.32s-0.21-0.14-0.37-0.14c-0.22,0-0.41,0.09-0.55,0.26
				c-0.14,0.18-0.21,0.45-0.21,0.81c0,0.39,0.06,0.68,0.18,0.85C118.99,60.51,119.16,60.59,119.39,60.59z"/>
			<path d="M122.31,61.02c-0.37,0-0.67-0.13-0.88-0.38c-0.21-0.25-0.32-0.61-0.32-1.07c0-0.28,0.05-0.52,0.15-0.73
				c0.1-0.21,0.24-0.37,0.42-0.49c0.18-0.12,0.39-0.18,0.63-0.18c0.37,0,0.66,0.12,0.87,0.37c0.21,0.25,0.32,0.58,0.32,1.01
				c0,0.32-0.05,0.59-0.15,0.81c-0.1,0.22-0.24,0.38-0.42,0.49S122.54,61.02,122.31,61.02z M122.33,60.79
				c0.15,0,0.27-0.04,0.37-0.11c0.1-0.07,0.18-0.2,0.23-0.37c0.05-0.18,0.08-0.42,0.08-0.73c0-0.35-0.06-0.64-0.18-0.86
				c-0.12-0.22-0.3-0.33-0.54-0.33c-0.2,0-0.37,0.09-0.49,0.28c-0.12,0.18-0.19,0.46-0.19,0.83c0,0.46,0.06,0.79,0.19,0.99
				C121.93,60.69,122.1,60.79,122.33,60.79z"/>
			<path d="M125.09,61h-0.25l-0.8-2.17c-0.05-0.12-0.09-0.21-0.13-0.27c-0.04-0.06-0.08-0.1-0.13-0.12s-0.11-0.03-0.19-0.03v-0.17
				h1.15v0.17c-0.11,0-0.18,0.01-0.22,0.04c-0.04,0.02-0.06,0.06-0.06,0.11c0,0.04,0.01,0.07,0.02,0.11
				c0.01,0.03,0.03,0.07,0.04,0.11l0.47,1.27l0.1,0.33h0.04l0.11-0.33l0.41-1.1l0.18,0.38h-0.09L125.09,61z M126.56,61h-0.26
				l-0.59-1.75l-0.08-0.16l-0.09-0.25c-0.04-0.13-0.08-0.22-0.12-0.28c-0.04-0.06-0.08-0.1-0.13-0.12s-0.11-0.03-0.19-0.03v-0.17
				h1.12v0.17c-0.1,0-0.17,0.01-0.21,0.04c-0.04,0.02-0.06,0.06-0.06,0.11c0,0.03,0,0.07,0.01,0.11c0.01,0.04,0.02,0.08,0.04,0.12
				l0.43,1.26l0.1,0.33h0.03l0.11-0.33l0.42-1.29c0-0.02,0.01-0.04,0.02-0.08c0.01-0.04,0.01-0.08,0.01-0.13
				c0-0.05-0.03-0.09-0.08-0.11s-0.12-0.03-0.22-0.03v-0.17h0.93v0.17c-0.1,0-0.18,0.03-0.24,0.08c-0.05,0.05-0.11,0.15-0.16,0.3
				L126.56,61z"/>
			<path d="M127.91,61.01l-0.02-0.99h0.14c0.06,0.3,0.14,0.5,0.25,0.62c0.11,0.12,0.26,0.18,0.46,0.18c0.14,0,0.25-0.03,0.33-0.09
				s0.13-0.16,0.13-0.29c0-0.09-0.02-0.17-0.05-0.23s-0.09-0.12-0.17-0.19c-0.09-0.06-0.21-0.14-0.38-0.23
				c-0.16-0.09-0.3-0.17-0.4-0.26c-0.1-0.08-0.18-0.17-0.23-0.27c-0.05-0.1-0.08-0.22-0.08-0.36c0-0.24,0.08-0.42,0.24-0.54
				c0.16-0.12,0.35-0.18,0.58-0.18c0.14,0,0.25,0.02,0.33,0.05c0.09,0.03,0.16,0.07,0.23,0.1h0.01l0.09-0.12h0.11l0.02,0.88h-0.14
				c-0.06-0.27-0.14-0.46-0.24-0.56c-0.1-0.1-0.24-0.15-0.4-0.15c-0.12,0-0.22,0.03-0.31,0.09c-0.08,0.06-0.13,0.16-0.13,0.29
				c0,0.11,0.05,0.21,0.14,0.3c0.1,0.09,0.26,0.19,0.48,0.32c0.16,0.09,0.3,0.18,0.41,0.27c0.11,0.09,0.19,0.18,0.25,0.28
				s0.09,0.22,0.09,0.37c0,0.18-0.04,0.33-0.12,0.43s-0.19,0.19-0.33,0.24c-0.14,0.05-0.29,0.08-0.45,0.08
				c-0.15,0-0.28-0.02-0.37-0.05c-0.09-0.04-0.17-0.07-0.24-0.1h-0.01l-0.11,0.13H127.91z"/>
			<path d="M132.44,61.02c-0.37,0-0.67-0.13-0.88-0.38c-0.21-0.25-0.32-0.61-0.32-1.07c0-0.28,0.05-0.52,0.15-0.73
				c0.1-0.21,0.24-0.37,0.42-0.49c0.18-0.12,0.39-0.18,0.63-0.18c0.37,0,0.66,0.12,0.87,0.37c0.21,0.25,0.32,0.58,0.32,1.01
				c0,0.32-0.05,0.59-0.15,0.81c-0.1,0.22-0.24,0.38-0.42,0.49S132.67,61.02,132.44,61.02z M132.46,60.79
				c0.15,0,0.27-0.04,0.37-0.11c0.1-0.07,0.18-0.2,0.23-0.37c0.05-0.18,0.08-0.42,0.08-0.73c0-0.35-0.06-0.64-0.18-0.86
				c-0.12-0.22-0.3-0.33-0.54-0.33c-0.2,0-0.37,0.09-0.49,0.28c-0.12,0.18-0.19,0.46-0.19,0.83c0,0.46,0.06,0.79,0.19,0.99
				C132.05,60.69,132.23,60.79,132.46,60.79z"/>
			<path d="M135.34,60.96h-1.44V60.8c0.13,0,0.23-0.01,0.29-0.04c0.06-0.03,0.1-0.07,0.13-0.15c0.02-0.07,0.03-0.18,0.03-0.33v-1.83
				c0-0.22,0-0.4,0.01-0.54c0.01-0.14,0.03-0.26,0.05-0.35s0.06-0.19,0.11-0.28c0.07-0.13,0.16-0.24,0.27-0.31
				c0.11-0.07,0.26-0.11,0.44-0.11c0.12,0,0.22,0.02,0.31,0.05c0.09,0.03,0.16,0.08,0.21,0.14s0.08,0.13,0.08,0.22
				c0,0.08-0.02,0.15-0.06,0.19c-0.04,0.04-0.09,0.06-0.15,0.06c-0.07,0-0.12-0.02-0.17-0.07c-0.04-0.05-0.08-0.1-0.12-0.15
				c-0.04-0.05-0.07-0.1-0.12-0.15c-0.04-0.04-0.09-0.07-0.16-0.07c-0.1,0-0.17,0.05-0.2,0.15s-0.05,0.27-0.05,0.51v2.55
				c0,0.15,0.01,0.26,0.04,0.33c0.03,0.07,0.08,0.12,0.16,0.15c0.08,0.03,0.19,0.04,0.34,0.04V60.96z M135.45,58.51h-1.5v-0.24h1.5
				V58.51z"/>
			<path class="st8" d="M139.1,60.96h-1.55v-0.17c0.15,0,0.26-0.01,0.34-0.04c0.07-0.02,0.12-0.08,0.15-0.16
				c0.02-0.08,0.04-0.21,0.04-0.38v-2.77h-0.34c-0.2,0-0.34,0.02-0.44,0.06c-0.1,0.04-0.17,0.12-0.21,0.23
				c-0.04,0.11-0.08,0.27-0.12,0.48h-0.17l0.06-1.04h2.96l0.04,1.04h-0.17c-0.04-0.21-0.08-0.37-0.12-0.48
				c-0.04-0.11-0.11-0.19-0.21-0.23c-0.1-0.04-0.24-0.06-0.44-0.06h-0.34v2.77c0,0.17,0.01,0.3,0.04,0.38
				c0.02,0.08,0.07,0.14,0.15,0.16c0.07,0.03,0.19,0.04,0.34,0.04V60.96z"/>
			<path d="M141.32,61.02c-0.37,0-0.67-0.13-0.88-0.38c-0.21-0.25-0.32-0.61-0.32-1.07c0-0.28,0.05-0.52,0.15-0.73
				c0.1-0.21,0.24-0.37,0.42-0.49c0.18-0.12,0.39-0.18,0.63-0.18c0.37,0,0.66,0.12,0.87,0.37c0.21,0.25,0.32,0.58,0.32,1.01
				c0,0.32-0.05,0.59-0.15,0.81c-0.1,0.22-0.24,0.38-0.42,0.49S141.55,61.02,141.32,61.02z M141.34,60.79
				c0.15,0,0.27-0.04,0.37-0.11c0.1-0.07,0.18-0.2,0.23-0.37c0.05-0.18,0.08-0.42,0.08-0.73c0-0.35-0.06-0.64-0.18-0.86
				c-0.12-0.22-0.3-0.33-0.54-0.33c-0.2,0-0.37,0.09-0.49,0.28c-0.12,0.18-0.19,0.46-0.19,0.83c0,0.46,0.06,0.79,0.19,0.99
				C140.93,60.69,141.11,60.79,141.34,60.79z"/>
			<path d="M144.08,60.96h-1.22V60.8c0.11,0,0.2-0.01,0.25-0.03c0.05-0.02,0.09-0.06,0.1-0.12s0.02-0.15,0.02-0.26v-1.61
				c0-0.1-0.02-0.17-0.06-0.21c-0.04-0.04-0.09-0.05-0.17-0.05c-0.04,0-0.09,0-0.14,0.01v-0.17l0.67-0.17h0.13v0.53l0.02,0.13v1.56
				c0,0.11,0.01,0.19,0.03,0.24s0.06,0.09,0.12,0.12c0.06,0.02,0.14,0.03,0.25,0.03V60.96z M145.63,60.96h-1.27V60.8
				c0.13,0,0.22-0.01,0.28-0.04c0.06-0.03,0.09-0.08,0.11-0.15s0.02-0.18,0.02-0.31v-1.14c0-0.25-0.04-0.41-0.12-0.49
				c-0.08-0.08-0.18-0.12-0.31-0.12c-0.1,0-0.19,0.02-0.28,0.07c-0.09,0.05-0.17,0.1-0.24,0.16c-0.07,0.06-0.13,0.12-0.18,0.17
				l-0.04-0.29h0.08c0.15-0.13,0.29-0.25,0.42-0.34c0.14-0.09,0.29-0.14,0.48-0.14c0.16,0,0.29,0.05,0.39,0.15s0.17,0.22,0.22,0.37
				c0.01,0.01,0.01,0.02,0.02,0.04c0,0.01,0.01,0.03,0.01,0.04v1.52c0,0.13,0.01,0.23,0.02,0.3c0.02,0.07,0.05,0.12,0.11,0.15
				c0.06,0.03,0.15,0.04,0.28,0.04V60.96z M147.12,60.96h-1.21V60.8c0.12,0,0.21-0.02,0.26-0.05c0.05-0.03,0.09-0.09,0.1-0.16
				c0.01-0.07,0.02-0.17,0.02-0.28v-1.1c0-0.18-0.02-0.31-0.06-0.4s-0.1-0.16-0.17-0.19c-0.07-0.04-0.15-0.05-0.23-0.05
				c-0.12,0-0.23,0.04-0.35,0.13c-0.11,0.09-0.22,0.18-0.31,0.26l-0.06-0.29h0.08c0.15-0.16,0.29-0.28,0.43-0.36
				c0.14-0.08,0.28-0.12,0.42-0.12c0.21,0,0.38,0.07,0.5,0.21c0.12,0.14,0.19,0.39,0.19,0.74v1.17c0,0.12,0.01,0.22,0.02,0.29
				c0.01,0.08,0.05,0.13,0.1,0.16c0.06,0.03,0.14,0.05,0.26,0.05V60.96z"/>
			<path d="M148.62,61.02c-0.38,0-0.67-0.13-0.88-0.38c-0.21-0.25-0.32-0.61-0.32-1.07c0-0.28,0.05-0.52,0.15-0.73
				c0.1-0.21,0.24-0.37,0.42-0.49c0.18-0.12,0.39-0.18,0.63-0.18c0.37,0,0.66,0.12,0.87,0.37c0.21,0.25,0.32,0.58,0.32,1.01
				c0,0.32-0.05,0.59-0.15,0.81c-0.1,0.22-0.24,0.38-0.42,0.49C149.06,60.96,148.86,61.02,148.62,61.02z M148.64,60.79
				c0.15,0,0.27-0.04,0.37-0.11c0.1-0.07,0.18-0.2,0.23-0.37c0.05-0.18,0.08-0.42,0.08-0.73c0-0.35-0.06-0.64-0.18-0.86
				c-0.12-0.22-0.3-0.33-0.54-0.33c-0.2,0-0.37,0.09-0.49,0.28c-0.12,0.18-0.19,0.46-0.19,0.83c0,0.46,0.06,0.79,0.19,0.99
				C148.24,60.69,148.42,60.79,148.64,60.79z"/>
			<path d="M151.49,60.96h-1.34V60.8c0.12,0,0.2-0.01,0.26-0.03c0.05-0.02,0.09-0.06,0.11-0.12c0.02-0.06,0.02-0.14,0.02-0.24v-1.58
				c0-0.1-0.01-0.18-0.02-0.23c-0.02-0.05-0.07-0.08-0.17-0.08c-0.05,0-0.11,0-0.17,0.01v-0.16l0.66-0.17h0.13v0.59h0.02
				c0.09-0.14,0.17-0.26,0.25-0.35s0.14-0.16,0.21-0.21c0.07-0.05,0.15-0.07,0.23-0.07c0.1,0,0.18,0.03,0.23,0.09
				s0.08,0.14,0.08,0.24c0,0.11-0.02,0.19-0.07,0.24c-0.05,0.05-0.1,0.07-0.16,0.07c-0.06,0-0.11-0.02-0.15-0.05
				c-0.04-0.03-0.08-0.07-0.11-0.1c-0.03-0.03-0.06-0.05-0.08-0.05c-0.06,0-0.13,0.05-0.21,0.15c-0.08,0.1-0.15,0.21-0.21,0.32v1.31
				c0,0.12,0.01,0.21,0.04,0.27c0.03,0.06,0.08,0.1,0.15,0.12c0.07,0.02,0.17,0.03,0.31,0.03V60.96z"/>
			<path d="M153.52,60.96h-1.34V60.8c0.12,0,0.2-0.01,0.26-0.03c0.05-0.02,0.09-0.06,0.11-0.12c0.02-0.06,0.02-0.14,0.02-0.24v-1.58
				c0-0.1-0.01-0.18-0.02-0.23c-0.02-0.05-0.07-0.08-0.17-0.08c-0.05,0-0.11,0-0.17,0.01v-0.16l0.66-0.17h0.13v0.59h0.02
				c0.09-0.14,0.17-0.26,0.25-0.35s0.14-0.16,0.21-0.21c0.07-0.05,0.15-0.07,0.23-0.07c0.1,0,0.18,0.03,0.23,0.09
				s0.08,0.14,0.08,0.24c0,0.11-0.02,0.19-0.07,0.24c-0.05,0.05-0.1,0.07-0.16,0.07c-0.06,0-0.11-0.02-0.15-0.05
				c-0.04-0.03-0.08-0.07-0.11-0.1c-0.03-0.03-0.06-0.05-0.08-0.05c-0.06,0-0.13,0.05-0.21,0.15c-0.08,0.1-0.15,0.21-0.21,0.32v1.31
				c0,0.12,0.01,0.21,0.04,0.27c0.03,0.06,0.08,0.1,0.15,0.12c0.07,0.02,0.17,0.03,0.31,0.03V60.96z"/>
			<path d="M155.44,61.02c-0.38,0-0.67-0.13-0.88-0.38c-0.21-0.25-0.32-0.61-0.32-1.07c0-0.28,0.05-0.52,0.15-0.73
				c0.1-0.21,0.24-0.37,0.42-0.49c0.18-0.12,0.39-0.18,0.63-0.18c0.37,0,0.66,0.12,0.87,0.37c0.21,0.25,0.32,0.58,0.32,1.01
				c0,0.32-0.05,0.59-0.15,0.81c-0.1,0.22-0.24,0.38-0.42,0.49C155.88,60.96,155.67,61.02,155.44,61.02z M155.46,60.79
				c0.15,0,0.27-0.04,0.37-0.11c0.1-0.07,0.18-0.2,0.23-0.37c0.05-0.18,0.08-0.42,0.08-0.73c0-0.35-0.06-0.64-0.18-0.86
				c-0.12-0.22-0.3-0.33-0.54-0.33c-0.2,0-0.37,0.09-0.49,0.28c-0.12,0.18-0.19,0.46-0.19,0.83c0,0.46,0.06,0.79,0.19,0.99
				C155.06,60.69,155.23,60.79,155.46,60.79z"/>
			<path d="M158.22,61h-0.25l-0.8-2.17c-0.05-0.12-0.09-0.21-0.13-0.27c-0.04-0.06-0.08-0.1-0.13-0.12s-0.11-0.03-0.19-0.03v-0.17
				h1.15v0.17c-0.11,0-0.18,0.01-0.22,0.04c-0.04,0.02-0.06,0.06-0.06,0.11c0,0.04,0.01,0.07,0.02,0.11
				c0.01,0.03,0.03,0.07,0.04,0.11l0.46,1.27l0.1,0.33h0.04l0.11-0.33l0.41-1.1l0.18,0.38h-0.09L158.22,61z M159.69,61h-0.26
				l-0.59-1.75l-0.08-0.16l-0.08-0.25c-0.04-0.13-0.08-0.22-0.12-0.28c-0.04-0.06-0.08-0.1-0.13-0.12s-0.11-0.03-0.19-0.03v-0.17
				h1.12v0.17c-0.1,0-0.17,0.01-0.21,0.04c-0.04,0.02-0.06,0.06-0.06,0.11c0,0.03,0,0.07,0.01,0.11c0.01,0.04,0.02,0.08,0.03,0.12
				l0.43,1.26l0.1,0.33h0.03l0.11-0.33l0.42-1.29c0-0.02,0.01-0.04,0.02-0.08c0.01-0.04,0.01-0.08,0.01-0.13
				c0-0.05-0.03-0.09-0.08-0.11s-0.12-0.03-0.22-0.03v-0.17h0.93v0.17c-0.1,0-0.18,0.03-0.24,0.08s-0.11,0.15-0.16,0.3L159.69,61z"
				/>
		</g>
	</g>
	<g>
		<g>
			<path d="M112.67,51.46h1.75v0.28h-1.39v0.8h1.17v0.28h-1.17v0.93h1.43v0.28h-1.8V51.46z"/>
			<path d="M115.84,53.39V51.5h-0.74v-0.26h1.1v2.17c0,0.27,0.16,0.39,0.41,0.39c0.12,0,0.25-0.03,0.39-0.09l0.09,0.24
				c-0.19,0.07-0.33,0.11-0.56,0.11C116.08,54.07,115.84,53.84,115.84,53.39z"/>
			<path d="M117.65,54.8l0.07-0.26c0.06,0.02,0.12,0.03,0.19,0.03c0.29,0,0.47-0.17,0.57-0.4l0.06-0.14l-0.98-1.9h0.36l0.51,1.05
				c0.08,0.17,0.17,0.37,0.26,0.55h0.02c0.07-0.18,0.16-0.38,0.22-0.55l0.45-1.05h0.35l-0.93,2.05c-0.16,0.38-0.41,0.66-0.89,0.66
				C117.83,54.84,117.73,54.82,117.65,54.8z"/>
			<path d="M120.26,53.77l0.16-0.21c0.24,0.16,0.53,0.26,0.91,0.26c0.35,0,0.53-0.13,0.53-0.29c0-0.14-0.08-0.25-0.65-0.35
				c-0.55-0.1-0.82-0.27-0.82-0.55c0-0.3,0.3-0.54,0.87-0.54c0.32,0,0.64,0.11,0.85,0.24l-0.17,0.21c-0.19-0.12-0.44-0.2-0.7-0.2
				c-0.35,0-0.48,0.13-0.48,0.27c0,0.16,0.18,0.23,0.61,0.32c0.7,0.14,0.86,0.29,0.86,0.59c0,0.31-0.33,0.57-0.93,0.57
				C120.89,54.07,120.52,53.93,120.26,53.77z"/>
			<path d="M123.91,52.39h-0.97v-0.26h1.33v1.9h-0.36V52.39z M123.77,51.48c0-0.15,0.12-0.25,0.29-0.25s0.28,0.1,0.28,0.25
				c0,0.15-0.12,0.25-0.28,0.25S123.77,51.63,123.77,51.48z"/>
			<path class="st8" d="M125.47,53.3v-1.18h0.36v1.14c0,0.36,0.14,0.53,0.48,0.53c0.24,0,0.42-0.1,0.65-0.35v-1.32h0.36v1.9h-0.3
				L127,53.69h-0.02c-0.21,0.22-0.46,0.38-0.78,0.38C125.7,54.07,125.47,53.8,125.47,53.3z"/>
			<path d="M127.98,52.12h0.29l0.03,0.25h0.01c0.11-0.18,0.24-0.3,0.48-0.3c0.21,0,0.34,0.11,0.4,0.33c0.12-0.2,0.25-0.33,0.49-0.33
				c0.29,0,0.47,0.21,0.47,0.59v1.36h-0.35v-1.34c0-0.22-0.07-0.33-0.22-0.33c-0.15,0-0.22,0.1-0.34,0.29v1.38h-0.33v-1.34
				c0-0.22-0.06-0.33-0.22-0.33c-0.15,0-0.24,0.1-0.35,0.29v1.38h-0.35V52.12z"/>
			<path d="M131.26,52.47c0.29-0.15,0.45-0.38,0.45-0.68l-0.09-0.3l0.24,0.26c-0.07,0.07-0.17,0.12-0.27,0.12
				c-0.18,0-0.31-0.12-0.31-0.28c0-0.18,0.13-0.3,0.32-0.3c0.23,0,0.39,0.18,0.39,0.48c0,0.39-0.23,0.71-0.62,0.89L131.26,52.47z"/>
			<path d="M133.22,53.77l0.16-0.21c0.24,0.16,0.53,0.26,0.91,0.26c0.35,0,0.53-0.13,0.53-0.29c0-0.14-0.08-0.25-0.65-0.35
				c-0.55-0.1-0.82-0.27-0.82-0.55c0-0.3,0.3-0.54,0.87-0.54c0.32,0,0.64,0.11,0.85,0.24l-0.17,0.21c-0.19-0.12-0.44-0.2-0.7-0.2
				c-0.35,0-0.48,0.13-0.48,0.27c0,0.16,0.18,0.23,0.61,0.32c0.7,0.14,0.86,0.29,0.86,0.59c0,0.31-0.33,0.57-0.93,0.57
				C133.84,54.07,133.48,53.93,133.22,53.77z"/>
			<path d="M138.59,51.46h1.75v0.28h-1.39v0.8h1.17v0.28h-1.17v0.93h1.43v0.28h-1.8V51.46z"/>
			<path d="M140.94,52.12h0.29l0.03,0.25h0.01c0.11-0.18,0.24-0.3,0.48-0.3c0.21,0,0.34,0.11,0.4,0.33c0.12-0.2,0.25-0.33,0.49-0.33
				c0.29,0,0.47,0.21,0.47,0.59v1.36h-0.35v-1.34c0-0.22-0.07-0.33-0.22-0.33c-0.15,0-0.22,0.1-0.34,0.29v1.38h-0.33v-1.34
				c0-0.22-0.06-0.33-0.22-0.33c-0.15,0-0.24,0.1-0.35,0.29v1.38h-0.35V52.12z"/>
			<path d="M144.02,53.81H144l-0.03,0.21h-0.29v-2.78h0.36V52l-0.02,0.37h0.01c0.19-0.18,0.46-0.29,0.7-0.29
				c0.57,0,0.87,0.38,0.87,0.96c0,0.65-0.45,1.03-0.95,1.03C144.46,54.07,144.21,53.97,144.02,53.81z M145.25,53.05
				c0-0.42-0.17-0.7-0.59-0.7c-0.19,0-0.4,0.09-0.61,0.28v0.95c0.19,0.16,0.42,0.22,0.57,0.22
				C144.97,53.8,145.25,53.52,145.25,53.05z"/>
			<path d="M146.5,52.12h0.3l0.04,0.45h0.01c0.22-0.31,0.55-0.5,0.94-0.5c0.15,0,0.29,0.02,0.41,0.08l-0.08,0.28
				c-0.15-0.04-0.22-0.06-0.39-0.06c-0.31,0-0.61,0.14-0.86,0.54v1.11h-0.36V52.12z"/>
			<path d="M148.81,53.53c0-0.43,0.44-0.63,1.52-0.71c-0.01-0.26-0.15-0.48-0.56-0.48c-0.27,0-0.54,0.12-0.73,0.23l-0.14-0.22
				c0.22-0.12,0.57-0.27,0.94-0.27c0.57,0,0.86,0.31,0.86,0.78v1.16h-0.3l-0.03-0.26h-0.01c-0.23,0.16-0.53,0.3-0.82,0.3
				C149.14,54.07,148.81,53.87,148.81,53.53z M150.34,53.53v-0.49c-0.9,0.06-1.17,0.22-1.17,0.47c0,0.21,0.21,0.3,0.46,0.3
				C149.86,53.81,150.09,53.71,150.34,53.53z"/>
			<path d="M151.4,53.08c0-0.64,0.54-1,1.17-1c0.34,0,0.59,0.12,0.76,0.28l-0.18,0.21c-0.17-0.13-0.35-0.21-0.57-0.21
				c-0.48,0-0.81,0.29-0.81,0.73c0,0.43,0.33,0.72,0.81,0.72c0.26,0,0.47-0.11,0.65-0.24l0.16,0.21c-0.23,0.19-0.52,0.3-0.83,0.3
				C151.9,54.07,151.4,53.71,151.4,53.08z"/>
			<path d="M153.94,53.07c0-0.62,0.51-0.99,1.07-0.99c0.61,0,0.96,0.36,0.96,0.89c0,0.07-0.01,0.14-0.02,0.2h-1.77v-0.25h1.56
				L155.65,53c0-0.45-0.25-0.67-0.63-0.67c-0.39,0-0.73,0.27-0.73,0.74c0,0.49,0.36,0.74,0.82,0.74c0.25,0,0.45-0.07,0.64-0.18
				l0.13,0.21c-0.21,0.12-0.47,0.23-0.81,0.23C154.45,54.07,153.94,53.7,153.94,53.07z"/>
		</g>
	</g>
</g>
<g id="stukje_stoel">
	<path class="st22" d="M-0.15,93.74c13.3,0,25.45-0.09,45.29,0c0.09-1.88-0.35-4.27-0.89-6.04c-0.93-2.86-1.04-5.91-2.06-8.74
		c-5.07-10.43-5.93-22.79-14.43-31.66c-3.22-2.28-6.85-3.43-10.75-3.81c-3.61,0.07-6.94-1.07-10.28-2.19
		C4.07,40.86,1.68,42.91,0,44.54C-0.15,67.49-0.06,62.9-0.15,93.74z"/>
</g>
</svg>
