<?xml version="1.0" encoding="utf-8"?>
<!-- Generator: Adobe Illustrator 28.3.0, SVG Export Plug-In . SVG Version: 6.00 Build 0)  -->
<svg version="1.1" id="Laag_1" xmlns="http://www.w3.org/2000/svg" xmlns:xlink="http://www.w3.org/1999/xlink" x="0px" y="0px"
	 viewBox="0 0 28.02 16.48" style="enable-background:new 0 0 28.02 16.48;" xml:space="preserve">
<style type="text/css">
	.st0{fill:#070708;}
	.st1{fill:#B9B7A8;}
	.st2{fill:#BABEA9;}
	.st3{fill:#20211F;}
	.st4{fill:#2C2A1B;}
	.st5{fill:#E2E0D2;}
	.st6{fill:#C1C1B0;}
	.st7{fill:#060504;}
	.st8{fill:#DBD3BE;}
	.st9{fill:#5C5A3B;}
	.st10{fill:#5B5130;}
	.st11{fill:#6E6645;}
	.st12{fill:#E9E8E1;}
	.st13{fill:#53482A;}
	.st14{fill:#CFCCB9;}
	.st15{fill:#76695F;}
	.st16{fill:#9C9A8E;}
	.st17{fill:#C2C3B5;}
	.st18{fill:#F4F3EF;}
	.st19{fill:#C6C6B5;}
	.st20{fill:#DDDECC;}
	.st21{fill:#A39F91;}
	.st22{fill:#5E554C;}
	.st23{fill:#100E05;}
	.st24{fill:#575342;}
	.st25{fill:#413D2B;}
	.st26{fill:#55503D;}
	.st27{fill:#141106;}
	.st28{fill:#C3BFAC;}
	.st29{fill:#242214;}
	.st30{fill:#1B180C;}
	.st31{fill:#BCB8A0;}
	.st32{fill:#B8B69C;}
	.st33{fill:#A6A595;}
	.st34{fill:#95958C;}
	.st35{fill:#363025;}
	.st36{fill:#D2CCBB;}
	.st37{fill:#D6D3C0;}
	.st38{fill:#EFECDF;}
	.st39{fill:#E9EBD9;}
	.st40{fill:#D2CCBF;}
	.st41{fill:#BCBBA8;}
	.st42{fill:#BFBEAD;}
	.st43{fill:#C8C7BA;}
	.st44{fill:#BDBCAE;}
	.st45{fill:#C7C6BC;}
	.st46{fill:#EFEEDD;}
	.st47{fill:#F1F0E4;}
	.st48{fill:#B8B8AA;}
	.st49{fill:#2E2D1F;}
	.st50{fill:#A2A199;}
	.st51{fill:#E1E1D1;}
	.st52{fill:#B6B6AB;}
	.st53{fill:#ECE9DC;}
	.st54{fill:#E9E6DA;}
	.st55{fill:#CAC9B8;}
	.st56{fill:#B1AF98;}
	.st57{fill:#BDBBA8;}
	.st58{fill:#41381E;}
	.st59{fill:#7C7050;}
	.st60{fill:#7F7355;}
	.st61{fill:#E4E0D5;}
	.st62{fill:#AEA791;}
	.st63{fill:#F8F4ED;}
	.st64{fill:#AAA098;}
	.st65{fill:#716959;}
	.st66{fill:#A8A58F;}
	.st67{fill:#999681;}
	.st68{fill:#928C78;}
	.st69{fill:#7A7561;}
	.st70{fill:#B3B19E;}
	.st71{fill:#A3A08B;}
	.st72{fill:#AEAC98;}
	.st73{fill:#AFAC98;}
	.st74{fill:#BCBDAB;}
	.st75{fill:#ADAB92;}
	.st76{fill:#F5F2E9;}
	.st77{fill:#F1EEE1;}
	.st78{fill:#BCB8A4;}
	.st79{fill:#C0BEAB;}
	.st80{fill:#C2BEAB;}
	.st81{fill:#BDB9A6;}
	.st82{fill:#B5B098;}
	.st83{fill:#B8B7A3;}
	.st84{fill:#DBD8C6;}
	.st85{fill:#A9A895;}
	.st86{fill:#D3D2BC;}
	.st87{fill:#534A3D;}
	.st88{fill:#ADAE9C;}
	.st89{fill:#1A180D;}
	.st90{fill:#C3C3B1;}
	.st91{fill:#BBB9A8;}
	.st92{fill:#141307;}
	.st93{fill:#F5EFE5;}
	.st94{fill:#AAA88E;}
	.st95{fill:#474224;}
	.st96{fill:#C4C3B2;}
	.st97{fill:#474022;}
	.st98{fill:#A6A591;}
	.st99{fill:#B4B4A4;}
</style>
<g>
	<path class="st0" d="M24.03,8.72c-0.35,0.2-0.65,0.52-1.09,0.55c-0.03-0.03-0.05-0.06-0.08-0.09c-0.08-0.36,0.19-0.58,0.33-0.85
		c0.07-0.1,0.15-0.18,0.24-0.25c0.06-0.05,0.13-0.09,0.2-0.12c0.21-0.1,0.37-0.26,0.54-0.41c0.1-0.07,0.2-0.11,0.31-0.16
		c0.29-0.12,0.49-0.37,0.71-0.58c0.22-0.21,0.42-0.43,0.57-0.7c0.06-0.1,0.11-0.2,0.15-0.3C26,5.35,25.59,5.3,25.33,5.14
		C25,4.93,24.58,4.93,24.26,4.68c-0.44-0.48-1.25-0.38-1.6-1.01c-0.01-0.09,0.02-0.17,0.08-0.24c0.94,0.14,1.64,0.82,2.53,1.07
		c0.17,0.05,0.3,0.2,0.47,0.25c0.7,0.21,0.95,0.58,0.75,1.35"/>
	<path class="st1" d="M11.08,3.93c0.06-0.2,0.06-0.44,0.31-0.52c0.39-0.23,0.57,0.22,0.87,0.28c0.34,0.14,0.64,0.35,0.97,0.51
		c0.1,0.05,0.21,0.11,0.32,0.14c1-0.46,1.48-0.34,1.98,0.51c-0.66,0.11,0.22,0.73-0.3,0.89c-0.51,0.06-0.89-0.31-1.34-0.43
		c-0.52-0.15-0.94-0.57-1.51-0.61c-0.25-0.06-0.45-0.21-0.66-0.34c-0.16-0.1-0.31-0.23-0.5-0.28C11.15,4.06,11.1,4.01,11.08,3.93z"
		/>
	<path class="st2" d="M14.87,2.32c0.37-0.11,0.75-0.22,1.12-0.34c1.71-0.37,3.21,0.29,4.71,0.98c0.18,0.2,0.06,0.36-0.09,0.5
		c-0.38,0.12-0.74,0.01-1.1-0.08c-0.38-0.2-0.77-0.38-1.18-0.53c-0.46-0.19-0.93-0.37-1.42-0.45c-0.08,0-0.17-0.01-0.25-0.01
		c-0.26-0.02-0.5,0.04-0.75,0.11c-0.27,0.06-0.55,0.08-0.82,0C15,2.45,14.93,2.4,14.87,2.32z"/>
	<path class="st3" d="M20.73,3.09c-1.5-0.73-3.04-1.27-4.74-1.11c0.95-0.47,1.89-0.18,2.8,0.11c1.33,0.41,2.64,0.89,3.95,1.34
		c0,0.07,0,0.13-0.01,0.2c-0.1,0.11-0.22,0.15-0.36,0.17c-0.18,0.02-0.36,0-0.54-0.05C21.44,3.59,20.97,3.53,20.73,3.09z"/>
	<path class="st4" d="M11.08,3.93c0.05,0.02,0.09,0.04,0.14,0.06c0.2,0.05,0.32,0.22,0.49,0.32c0.31,0.24,0.52,0.6,0.87,0.8
		c0.13,0.09,0.27,0.19,0.35,0.34c-0.04,0.37-0.34,0.54-0.58,0.76c-0.09,0.02-0.16-0.01-0.21-0.09c0.07-0.38-0.22-0.53-0.46-0.7
		C11.18,5.04,10.94,4.56,11.08,3.93z"/>
	<path class="st5" d="M8.14,9.83C8.2,9.82,8.26,9.81,8.32,9.8C8.36,9.82,8.4,9.83,8.44,9.85c0.27,0.27,0.47,0.6,0.75,0.86
		c0.29,0.27,0.37,0.59,0.13,0.95c-0.06,0.07-0.12,0.13-0.19,0.18c-0.27,0.14-0.51,0.36-0.85,0.27c-0.22-0.1-0.54-0.38-0.38-0.49
		c0.75-0.49,0-0.97,0.06-1.44C7.98,10.04,8.04,9.93,8.14,9.83z"/>
	<path class="st6" d="M10.85,8.63c0.16,0.11,0.3,0.16,0.39-0.08c0.1-0.11,0.22-0.15,0.36-0.14c0.09,0.02,0.17,0.06,0.23,0.12
		c0.21,0.85-0.31,1.19-1,1.4c-0.24,0.03-0.43-0.05-0.55-0.26c0.13-0.37,0.38-0.69,0.39-1.1c0-0.01,0.05-0.03,0.07-0.03
		C10.8,8.52,10.83,8.55,10.85,8.63z"/>
	<path class="st7" d="M10.85,8.63c-0.11,0.38-0.11,0.81-0.55,1c-0.06,0.07-0.13,0.11-0.22,0.13c-0.6-0.03-1.17,0.28-1.77,0.12
		L8.32,9.8c0.19-0.58,0.75-0.44,1.14-0.5c0.53-0.08,1.03-0.01,1.11-0.75C10.59,8.33,10.79,8.47,10.85,8.63z"/>
	<path class="st8" d="M4.82,10.67c0.37-0.17,0.74-0.33,1.1-0.5c0.27-0.11,0.53-0.17,0.77,0.06c0.03,0.23-0.15,0.3-0.29,0.41
		c-0.3,0.14-0.59,0.31-0.84,0.54c-0.33,0.21-0.65,0.25-0.94-0.06C4.55,10.91,4.76,10.82,4.82,10.67z"/>
	<path class="st9" d="M11.39,6.35c0.06,0,0.13-0.01,0.19-0.01c0.24,0.21,0.5,0.1,0.75,0.04c0.23-0.07,0.46-0.21,0.72-0.07
		c0.16,0.32-0.09,0.48-0.25,0.69c-0.1,0.1-0.21,0.18-0.33,0.25c-0.31,0.15-0.62,0.27-0.95,0.06C11.28,7.01,11.29,6.69,11.39,6.35z"
		/>
	<path class="st10" d="M2.63,12.03c0.34-0.06,0.76,0.08,0.93-0.38c0.16-0.14,0.33-0.16,0.52-0.06c0.07,0.07,0.1,0.15,0.09,0.25
		c-0.44,0.66-1.07,0.95-1.83,0.99c-0.08-0.05-0.13-0.12-0.15-0.21C2.16,12.29,2.56,12.28,2.63,12.03z"/>
	<path class="st11" d="M6.29,10.53c0.12-0.06,0.24-0.12,0.36-0.18c0.14-0.22,0.37-0.33,0.55-0.49c0.31-0.01,0.62-0.02,0.94-0.02
		c-0.01,0.1-0.02,0.2-0.02,0.29c-0.44,0.47-0.98,0.72-1.63,0.72C6.34,10.79,6.23,10.71,6.29,10.53z"/>
	<path class="st12" d="M4.1,11.71c-0.18-0.02-0.36-0.05-0.54-0.07c-0.1-0.99,0.69-0.84,1.26-0.97c-0.05,0.15-0.11,0.29-0.16,0.44
		C4.68,11.5,4.39,11.6,4.1,11.71z"/>
	<path class="st13" d="M2.27,12.52c0,0.07,0.01,0.14,0.01,0.21c-0.02,0.51-0.61,0.99-0.08,1.53c0.08,0.1,0.14,0.21,0.18,0.34
		c0.02,0.14,0,0.26-0.11,0.35c-0.92-0.54-0.78-1.39-0.69-2.24C1.79,12.56,1.99,12.4,2.27,12.52z"/>
	<path class="st14" d="M11.62,7.27c0.3-0.07,0.6-0.14,0.9-0.21c0.19,0.24,0.07,0.43-0.08,0.63c-0.24,0.24-0.5,0.41-0.85,0.4
		c-0.3-0.07-0.24-0.35-0.32-0.54l0-0.02C11.31,7.34,11.44,7.28,11.62,7.27z"/>
	<path class="st15" d="M2.27,14.95c0-0.12,0-0.24,0-0.36c0.36-0.35,0.77-0.28,1.19-0.14c0.31,0.25,0.04,0.46-0.06,0.68
		c0,0.06,0.01,0.12,0.01,0.18c-0.07,0.05-0.14,0.1-0.21,0.15c-0.17-0.14-0.31-0.33-0.57-0.29C2.49,15.13,2.33,15.11,2.27,14.95z"/>
	<path class="st0" d="M21.47,9.82c-0.06-0.11-0.12-0.22-0.18-0.32c0.02-0.04,0.05-0.08,0.07-0.11c0.11-0.08,0.24-0.12,0.38-0.14
		c0.39,0.03,0.79-0.23,1.17,0.02c0,0,0.01,0.01,0.01,0.01C22.63,9.94,22.03,9.82,21.47,9.82z"/>
	<path class="st16" d="M12.16,3.79c-0.4,0.18-0.39-0.48-0.76-0.38c0.25-0.27,0.56-0.39,0.92-0.39c0.06,0.06,0.1,0.13,0.1,0.22
		C12.4,3.45,12.32,3.64,12.16,3.79z"/>
	<path class="st17" d="M12.33,6.53C12,6.8,11.69,6.94,11.58,6.34c0.19-0.07,0.37-0.14,0.56-0.22c0.06,0.01,0.12,0.01,0.18,0.02
		C12.43,6.27,12.44,6.4,12.33,6.53z"/>
	<path class="st18" d="M2.27,12.52c-0.25,0.01-0.42,0.28-0.69,0.19c0.04-0.7,0.77-0.34,1.05-0.68C2.73,12.35,2.35,12.32,2.27,12.52z
		"/>
	<path class="st19" d="M14.87,2.32c0.06,0.02,0.13,0.03,0.19,0.05c-0.1,0.45-0.53,0.38-0.82,0.51c-0.31,0.04-0.62,0.08-0.85-0.21
		C13.85,2.43,14.36,2.36,14.87,2.32z"/>
	<path class="st20" d="M13.38,2.67c0.32,0.01,0.64,0.02,0.96,0.03c-0.3,0.65-0.84,0.57-1.39,0.46c-0.31-0.41,0.2-0.3,0.29-0.46
		C13.28,2.64,13.33,2.63,13.38,2.67z"/>
	<path class="st21" d="M7.2,9.86c0.02,0.39-0.32,0.38-0.55,0.49c-0.19-0.25-0.48-0.11-0.72-0.17C6.35,10.07,6.78,9.97,7.2,9.86z"/>
	<path class="st7" d="M11.26,7.55c0.11,0.16,0.22,0.32,0.33,0.48c0.16,0.16,0.16,0.31,0,0.46c-0.12,0.02-0.23,0.04-0.35,0.06
		C11.25,8.22,11.26,7.88,11.26,7.55z"/>
	<path class="st19" d="M13.25,2.7c-0.12,0.12-0.24,0.24-0.36,0.36c-0.12,0.26-0.3,0.36-0.56,0.18c0-0.07-0.01-0.14-0.01-0.21
		C12.6,2.85,12.89,2.66,13.25,2.7z"/>
	<path class="st7" d="M11.62,7.27c-0.12,0.08-0.23,0.17-0.35,0.25c0.01-0.4-0.16-0.81,0.13-1.18C11.36,6.68,11.46,6.98,11.62,7.27z"
		/>
	<path class="st22" d="M2.64,15.16c0.37-0.25,0.58-0.2,0.57,0.29C2.95,15.48,2.77,15.37,2.64,15.16z"/>
	<path class="st23" d="M9.05,11.68c0.06-0.02,0.12-0.04,0.17-0.06c0.42-0.38,0.94-0.57,1.43-0.83c0.5-0.23,0.99-0.48,1.48-0.74
		c0.48-0.2,0.96-0.43,1.47-0.55c0.14-0.01,0.26,0.04,0.37,0.12c-0.75,0.87-1.8,1.24-2.79,1.73c-0.31,0.15-0.94-0.01-0.86,0.67
		c-0.48,0.15-0.96,0.23-1.46,0.18C8.74,11.96,8.95,11.84,9.05,11.68z"/>
	<path class="st24" d="M21.3,9.49c-0.92-0.46-1.93-0.58-2.92-0.79c-0.29-0.3-0.35-0.62-0.13-0.98c0.31-0.3,0.66-0.11,0.99-0.07
		c0.64,0.13,1.23,0.42,1.86,0.6c0.12,0.05,0.22,0.13,0.31,0.23c0.27,0.35,0.22,0.66-0.13,0.93L21.3,9.49z"/>
	<path class="st25" d="M18.37,7.81c-0.2,0.3,0.06,0.6,0.01,0.9c-0.61,0-1.21-0.13-1.82,0.04c-0.06-0.06-0.09-0.13-0.09-0.22
		c0.03-0.12,0.09-0.23,0.17-0.33c0.18-0.19,0.42-0.26,0.65-0.37c0.28-0.12,0.55-0.25,0.87-0.17C18.23,7.69,18.3,7.74,18.37,7.81z"/>
	<path class="st26" d="M16.54,8.53c0.01,0.07,0.01,0.14,0.02,0.22c-0.01,0.31-0.02,0.61-0.21,0.87c-0.69,0.09-1.3,0.04-1.33-0.88
		C15.01,8.6,15.08,8.5,15.2,8.43c0.08-0.04,0.16-0.06,0.24-0.07C15.82,8.34,16.19,8.33,16.54,8.53z"/>
	<path class="st27" d="M15.08,8.73c0.22,0.59,0.7,0.8,1.27,0.89c-0.8,0.33-1.57,0.15-2.33-0.16c-0.13-0.39,0.26-0.34,0.41-0.49
		C14.65,8.89,14.79,8.61,15.08,8.73z"/>
	<path class="st28" d="M14.54,9.11c-0.09,0.25-0.46,0.06-0.52,0.34c-0.03,0.05-0.05,0.1-0.05,0.16c-0.12,0-0.24,0-0.35,0
		C13.42,9.35,13.58,9.18,13.75,9c0.24-0.16,0.49-0.29,0.79-0.14C14.61,8.95,14.61,9.03,14.54,9.11z"/>
	<path class="st29" d="M9.05,11.68c-0.06,0.17-0.12,0.34-0.19,0.52c-0.52,0.48-1.2,0.65-1.83,0.91c-0.49,0.32-0.91,0.79-1.59,0.62
		c-0.2-0.51,0.28-0.54,0.52-0.74c0.22-0.1,0.46-0.16,0.68-0.27c0.07-0.04,0.14-0.07,0.21-0.1c0.13-0.06,0.27-0.13,0.4-0.19
		c0.2-0.1,0.4-0.19,0.58-0.31c0.09-0.07,0.19-0.12,0.3-0.15c0.08-0.02,0.14,0.01,0.19,0.07C8.66,12.12,8.77,11.72,9.05,11.68z"/>
	<path class="st30" d="M5.33,13.63c0.69,0.21,1.12-0.4,1.7-0.52c-0.13,0.36-0.51,0.46-0.73,0.73c-0.48-0.07-0.82,0.34-1.28,0.37
		C5,14.18,4.97,14.15,4.95,14.13c-0.04-0.11-0.04-0.21,0.01-0.32C5.05,13.69,5.17,13.61,5.33,13.63z"/>
	<path class="st31" d="M23.67,8.17l-0.04,0.05l-0.06-0.02c-0.29,0.03-0.59,0.13-0.88,0.01c-0.29-0.4-0.79-0.3-1.16-0.5
		c-0.31-0.43-0.02-0.55,0.33-0.64c0.33-0.05,0.66,0.16,1,0.04c0.23-0.07,0.42-0.24,0.66-0.31c0.17-0.02,0.32,0.02,0.4,0.19
		c0.02,0.22-0.01,0.45,0.04,0.67C23.92,7.86,23.77,8,23.67,8.17z"/>
	<path class="st32" d="M23.85,7.64c-0.11-0.19-0.12-0.37,0-0.56c0.12-0.16,0.28-0.27,0.43-0.38c0.26-0.29-0.02-0.83,0.45-1.03
		c0.08-0.03,0.17-0.05,0.25-0.06c0.33,0,0.63,0.07,0.76,0.43c-0.01,0.33-0.29,0.5-0.47,0.73c-0.19,0.3-0.49,0.52-0.68,0.83
		c-0.11,0.02-0.21,0.03-0.32,0.05C24.13,7.73,23.99,7.74,23.85,7.64z"/>
	<path class="st33" d="M24.39,4.52c0.56,0.13,1.07,0.39,1.56,0.68c0.39,0.23,0.4,0.49,0.11,0.8c-0.31-0.07-0.52-0.35-0.83-0.41
		c-0.29-0.11-0.57-0.27-0.85-0.4c-0.25-0.14-0.5-0.24-0.78-0.3c-0.09-0.02-0.17-0.05-0.25-0.09c-0.16-0.1-0.31-0.21-0.26-0.43
		C23.57,3.96,23.95,4.48,24.39,4.52z"/>
	<path class="st34" d="M24.39,4.52c-0.43,0.17-0.85-0.4-1.29-0.02c-0.09,0.11-0.2,0.12-0.33,0.09c-0.21-0.13-0.37-0.3-0.44-0.54
		c0.17-0.13-0.03-0.3,0.05-0.44c0.12,0,0.24,0.01,0.36,0.01C23.23,4.04,23.94,4.03,24.39,4.52z"/>
	<path class="st35" d="M22.93,9.26c-0.42,0.11-0.83,0.27-1.28,0.18c-0.04-0.14,0.04-0.23,0.14-0.32c0.33-0.2,0.48-0.57,0.78-0.81
		c0.26-0.05,0.52-0.2,0.75,0.06C23.18,8.67,23.05,8.97,22.93,9.26z"/>
	<path class="st36" d="M23.31,8.38c-0.25,0.02-0.54-0.13-0.75,0.14c-0.13,0.15-0.3,0.16-0.48,0.11C22,8.58,21.95,8.52,21.93,8.43
		c-0.01-0.22,0.11-0.33,0.3-0.4c0.19-0.04,0.36,0,0.51,0.12c0.29-0.18,0.56-0.08,0.83,0.04C23.49,8.26,23.4,8.32,23.31,8.38z"/>
	<path class="st37" d="M25.31,5.43c0.28,0.15,0.61,0.24,0.75,0.58c-0.05,0.06-0.11,0.11-0.16,0.17c-0.08,0.07-0.15,0.06-0.23-0.01
		c-0.13-0.34-0.42-0.38-0.72-0.39C24.88,5.45,25.21,5.56,25.31,5.43z"/>
	<path class="st38" d="M25.67,6.16c0.08,0,0.15,0.01,0.23,0.01c0.02,0.41-0.36,0.55-0.56,0.8c-0.12-0.04-0.14-0.16-0.18-0.26
		C25.23,6.44,25.45,6.3,25.67,6.16z"/>
	<path class="st39" d="M25.16,6.72c0.06,0.09,0.12,0.17,0.18,0.26c-0.19,0.28-0.4,0.53-0.75,0.61C24.54,7.14,25.02,7.04,25.16,6.72z
		"/>
	<path class="st40" d="M23.85,7.64c0.14,0,0.28,0,0.42,0c-0.03,0.37-0.33,0.43-0.6,0.53C23.73,7.99,23.79,7.82,23.85,7.64z"/>
	<path class="st41" d="M15.26,5.62c-0.16-0.3-0.27-0.59,0.18-0.73c0.23-0.14,0.52-0.16,0.7-0.4c0.29-0.38,0.66-0.37,1.06-0.17
		c0.4,0.21,0.82,0.19,1.24,0.07c0.27-0.08,0.49-0.29,0.79-0.3c0.21-0.05,0.24,0.42,0.51,0.18c0.31,0.02,0.55,0.17,0.73,0.42
		C20.64,5.2,21,5.54,21.47,5.79c0,0.28-0.12,0.56-0.01,0.85C20.9,7.25,20.36,7.3,19.53,7c-0.93-0.34-1.82-0.96-2.89-0.83
		c-0.42-0.25-0.88,0.28-1.3-0.08C15.24,5.95,15.16,5.8,15.26,5.62z"/>
	<path class="st42" d="M18.55,4.52c-0.12,0.17-0.3,0.16-0.48,0.19c-0.7,0.11-1.58-0.84-2.13,0.33c-0.01,0.02-0.32-0.1-0.49-0.15
		c-0.47-0.54-0.94-1.07-1.63-0.25c-0.1,0.12-0.28,0.01-0.38-0.12c-0.01-0.41,0.16-0.77,0.29-1.15c0.71-0.45,1.61-0.48,2.27-1.05
		c0.19-0.26,0.48-0.16,0.73-0.18c0.15,0.24,0.08,0.51,0.16,0.76c0.23,0.78,0.6,0.01,0.89,0.07C18.92,3.3,19.02,3.49,18.55,4.52z"/>
	<path class="st43" d="M15.99,2.33c-0.42,0.99-1.39,0.86-2.19,1.1c-0.15,0.33-0.08,0.78-0.55,0.91C12.8,4.32,12.51,4,12.16,3.79
		c-0.01-0.2-0.06-0.42,0.17-0.55c0.19-0.06,0.37-0.12,0.56-0.18c0.52,0.01,1.01-0.1,1.46-0.36c0.15-0.29,0.54-0.08,0.71-0.33
		C15.37,2.35,15.68,2.34,15.99,2.33z"/>
	<path class="st44" d="M15.26,5.62c0.06,0.12,0.12,0.24,0.18,0.37c-0.13,0.16-0.31,0.23-0.49,0.32c-0.21,0.1-0.37,0.32-0.64,0.27
		c-0.36-0.4-0.83-0.12-1.24-0.22c-0.25,0.06-0.49,0.12-0.74,0.18c0-0.13-0.01-0.26-0.01-0.39c-0.07-0.42,0.42-0.41,0.53-0.69
		c0.06-0.06,0.13-0.1,0.22-0.11c0.32-0.03,0.67,0.07,0.9-0.27C14.41,5.24,14.78,5.56,15.26,5.62z"/>
	<path class="st45" d="M13.98,5.07c0.01,0.9-0.55,0.39-0.91,0.36c-0.16-0.17-0.34-0.29-0.53-0.43c-0.13-0.14-0.34-0.25-0.19-0.49
		C13,4.37,13.38,5.04,13.98,5.07z"/>
	<path class="st46" d="M12.35,4.51c0.12,0.12,0.23,0.25,0.35,0.37c0.09,0.19-0.01,0.28-0.18,0.35c-0.48-0.12-0.66-0.57-0.97-0.87
		c0.03-0.12,0.15-0.14,0.23-0.2C11.97,4.28,12.16,4.4,12.35,4.51z"/>
	<path class="st19" d="M13.25,4.34c0.18-0.3,0.37-0.61,0.55-0.91c0.01,0.41,0.05,0.83-0.37,1.09C13.37,4.46,13.31,4.4,13.25,4.34z"
		/>
	<path class="st47" d="M11.78,4.16c-0.08,0.07-0.15,0.13-0.23,0.2c-0.18-0.06-0.29-0.18-0.33-0.37C11.52,3.69,11.59,4.14,11.78,4.16
		z"/>
	<path class="st48" d="M16.72,2.88c-0.17-0.24-0.16-0.49,0-0.73c0.08,0.01,0.15,0.01,0.23,0.02c0.42,0.33,0.94,0.4,1.43,0.53
		c0.39,0.13,0.85,0.11,1.09,0.54c0.14,0.35,0.07,0.65-0.18,0.92c-0.25,0.1-0.41,0.39-0.73,0.37c0.23-0.82-0.17-1.25-0.91-1.46
		C17.26,3.32,16.98,3.19,16.72,2.88z"/>
	<path class="st49" d="M19.28,4.15c0-0.32-0.06-0.65,0.18-0.92c0.38-0.04,0.75,0,1.1,0.16c0.18-0.09,0.33-0.09,0.42,0.13
		c0.08,0.12-0.3,0.25,0.03,0.39c0.46,0.19,0.92,0.37,1.38,0.57c0.05,0.09,0.04,0.17-0.01,0.25c-0.42,0.3-0.88,0.23-1.34,0.12
		c-0.44-0.22-0.82-0.63-1.38-0.53C19.4,4.53,19.39,4.22,19.28,4.15z"/>
	<path class="st50" d="M20.92,3.61c-0.12-0.07-0.24-0.14-0.37-0.21c0.06-0.1,0.11-0.2,0.17-0.31c0.37,0.15,0.75,0.31,1.12,0.46
		c0.09,0.13,0.1,0.26,0.03,0.4C21.46,4.14,21.16,3.97,20.92,3.61z"/>
	<path class="st51" d="M18.38,2.69c-0.55,0.01-1.1,0.02-1.43-0.53C17.44,2.3,17.95,2.39,18.38,2.69z"/>
	<path class="st52" d="M21.84,3.94c0-0.13,0.01-0.26,0.01-0.39c0.18,0.02,0.35,0.04,0.53,0.07c0.03,0.13,0.19,0.27-0.03,0.38
		c-0.09,0.09-0.21,0.11-0.33,0.09C21.94,4.06,21.88,4.01,21.84,3.94z"/>
	<path class="st53" d="M12.52,5.23C12.58,5.12,12.64,5,12.7,4.89c0.25,0.1,0.38,0.27,0.37,0.55c-0.07,0-0.14,0.01-0.21,0.01
		C12.72,5.43,12.57,5.41,12.52,5.23z"/>
	<path class="st54" d="M8.32,12.03l-0.05,0.04L8.2,12.03c-0.26,0.11-0.53,0.06-0.79,0.08c-0.07,0.03-0.14,0.06-0.21,0.09
		c-0.15,0.07-0.29,0.12-0.46,0.09c-0.08-0.02-0.15-0.06-0.21-0.11c-0.21-0.22-0.24-0.49-0.2-0.77c0.04-0.17,0.08-0.35,0.06-0.53
		c0.01-0.08,0.05-0.12,0.13-0.13c0.53-0.21,1.06-0.42,1.58-0.63c0.07,0.2,0.08,0.47,0.22,0.57c0.55,0.4,0.67,0.6-0.14,0.82
		C7.76,11.64,8.31,11.84,8.32,12.03z"/>
	<path class="st55" d="M10.7,10.93c-0.47,0.28-0.93,0.57-1.48,0.68c0.13-0.34,0.1-0.65-0.24-0.84c-0.37-0.2-0.5-0.57-0.68-0.9
		c0.59-0.22,1.17-0.56,1.83-0.21C10.26,10.11,11.12,10.24,10.7,10.93z"/>
	<path class="st30" d="M3.41,15.12c-0.08-0.22,0.12-0.37,0.15-0.55c-0.06-0.31,0.19-0.38,0.39-0.49c0.13-0.05,0.27-0.08,0.42-0.08
		c0.25-0.01,0.47,0.04,0.66,0.21c0,0,0,0,0,0C4.78,15.03,3.81,14.59,3.41,15.12z"/>
	<path class="st56" d="M13.8,9.09c-0.06,0.17-0.12,0.34-0.18,0.52c-0.48,0.2-0.96,0.41-1.44,0.61c-0.48,0.02-0.94-0.04-1.3-0.41
		c0.48-0.3,0.88-0.65,0.91-1.27C11.85,8.5,11.92,8.49,12,8.51c0.06,0.05,0.12,0.1,0.17,0.16c0.37,0.35,0.5-0.13,0.74-0.21
		c0.12-0.04,0.24-0.03,0.36,0.01C13.47,8.66,13.85,8.69,13.8,9.09z"/>
	<path class="st57" d="M10.88,9.82c0.48-0.01,0.88,0.23,1.3,0.41c-0.45,0.32-0.95,0.54-1.47,0.71c-0.09-0.33-0.08-0.68-0.58-0.78
		c-0.44-0.09-0.13-0.32,0.02-0.49c0.05-0.02,0.11-0.04,0.16-0.04C10.49,9.69,10.68,9.75,10.88,9.82z"/>
	<path class="st58" d="M11.93,8.45c-0.06,0.02-0.1,0.05-0.14,0.09c-0.07-0.02-0.13-0.04-0.2-0.05c0-0.15,0-0.31,0-0.46
		c0.25-0.14,0.5-0.28,0.75-0.43c0.03,0.03,0.05,0.07,0.08,0.1c0.04,0.13,0.03,0.25-0.03,0.36C12.28,8.24,12.15,8.41,11.93,8.45z"/>
	<path class="st59" d="M4.1,11.71c0.01-0.37,0.42-0.36,0.56-0.6c0.31,0.01,0.61,0.24,0.92-0.01c0.01,0.05,0.02,0.1,0.03,0.14
		c-0.51,0.74-0.84,0.85-1.51,0.5L4.1,11.71z"/>
	<path class="st60" d="M6.53,10.76c-0.02,0.05-0.04,0.1-0.06,0.15c-0.16,0.26-0.39,0.35-0.68,0.33c-0.09-0.03-0.16-0.07-0.22-0.14
		c0,0,0.01,0.01,0.01,0.01c0.04-0.43,0.36-0.52,0.71-0.57C6.37,10.6,6.45,10.68,6.53,10.76z"/>
	<path class="st61" d="M13.08,6.34c0.47-0.23,0.97-0.68,1.28,0.18c0.01,0.16-0.05,0.29-0.13,0.42c-0.06,0.1-0.14,0.19-0.23,0.26
		c-0.13,0.11-0.28,0.18-0.44,0.21c-0.17,0.03-0.34,0.01-0.51-0.05c-0.17-0.11-0.44-0.16-0.34-0.47C12.83,6.72,12.95,6.53,13.08,6.34
		z"/>
	<path class="st62" d="M12.71,6.91c0.12,0.13,0.24,0.26,0.35,0.39c0.03,0.14-0.05,0.23-0.16,0.31c-0.19,0.12-0.38,0.18-0.59,0.06
		l0.02-0.07c0.06-0.18,0.12-0.36,0.17-0.54C12.58,7.01,12.65,6.96,12.71,6.91z"/>
	<path class="st63" d="M5.57,11.09c0.06,0.02,0.13,0.04,0.19,0.06c0.18,0.16,0.49-0.07,0.62,0.22c0.03,0.3-0.1,0.65,0.28,0.83l0,0
		c0.22,0.14,0.38,0.3,0.2,0.57l0.01-0.01c-0.27,0.07-0.53,0.15-0.76,0.33c-0.26,0.18-0.53,0.36-0.79,0.54
		c-0.1,0.07-0.2,0.14-0.31,0.22c-0.22,0.23-0.52,0.24-0.8,0.33c-0.09,0.01-0.19,0.03-0.28,0.04c-0.6,0.25-1.22,0.35-1.87,0.18
		c-0.59-0.66-0.53-1.16,0.2-1.68c0.67-0.2,1.29-0.52,1.82-0.98C4.74,11.87,5.18,11.53,5.57,11.09z"/>
	<path class="st64" d="M2.08,14.41c0.62-0.06,1.24-0.12,1.87-0.18c-0.13,0.11-0.26,0.23-0.39,0.34c-0.43,0.01-0.86,0.01-1.29,0.02
		C2.21,14.53,2.14,14.47,2.08,14.41z"/>
	<path class="st65" d="M21.83,9.26c-0.06,0.06-0.12,0.12-0.18,0.18c-0.12-0.01-0.24-0.01-0.36-0.02c0.05-0.29,0.26-0.58,0-0.87
		c0.24-0.25,0.5-0.2,0.77-0.05l-0.03,0.03C22.16,8.83,22.01,9.05,21.83,9.26z"/>
	<path class="st66" d="M18.37,7.81c-0.06-0.01-0.12-0.02-0.18-0.03c-0.33-0.28-0.79,0-1.13-0.26c-0.15-0.13-0.25-0.28-0.19-0.49
		c0.28-0.42,0.75-0.34,1.16-0.45c0.71,0.18,1.48,0.18,2.03,0.77c-0.13,0.37-0.48,0.38-0.78,0.47C18.97,7.81,18.67,7.81,18.37,7.81z"
		/>
	<path class="st67" d="M19.28,7.82c0.13-0.34,0.42-0.39,0.73-0.38c0.54-0.26,0.95,0.14,1.42,0.28c0.08,0.06,0.12,0.14,0.12,0.24
		c-0.07,0.22-0.11,0.48-0.46,0.4C20.44,8.34,19.88,8.01,19.28,7.82z"/>
	<path class="st68" d="M21.1,8.36c0.13-0.13,0.25-0.25,0.38-0.38c0.29-0.16,0.58-0.3,0.71,0.18c-0.13,0.08-0.15,0.2-0.14,0.33
		c-0.26,0.02-0.51,0.04-0.77,0.05C21.22,8.49,21.16,8.43,21.1,8.36z"/>
	<path class="st69" d="M18.89,8.29c-0.03,0.05-0.07,0.14-0.13,0.17c-0.1,0.05-0.17-0.03-0.15-0.12c0.01-0.07,0.06-0.16,0.13-0.19
		C18.86,8.08,18.87,8.18,18.89,8.29z"/>
	<path class="st70" d="M16.9,7.08c0.06,0.12,0.12,0.24,0.19,0.37C17.2,7.61,17.26,7.8,17.29,8c-0.1,0.29-0.48,0.1-0.6,0.36
		c-0.3,0.18-0.61,0.01-0.92,0.02c-0.2-0.57-0.05-1.04,0.41-1.42c0.06-0.05,0.13-0.09,0.21-0.12C16.6,6.82,16.78,6.89,16.9,7.08z"/>
	<path class="st71" d="M17.29,8c-0.47-0.04-0.33-0.3-0.2-0.55c0.37,0.1,0.88-0.26,1.09,0.33C17.89,7.85,17.59,7.92,17.29,8z"/>
	<path class="st72" d="M15.79,8.33c0.3-0.2,0.6-0.04,0.9,0.02c-0.05,0.06-0.1,0.12-0.15,0.18c-0.36-0.01-0.73-0.02-1.09-0.03
		C15.46,8.25,15.6,8.24,15.79,8.33z"/>
	<path class="st73" d="M11.93,8.45c-0.03-0.3,0.28-0.31,0.41-0.48c0.15-0.14,0.33-0.22,0.5-0.32c0.26-0.11,0.49-0.29,0.79-0.26
		c0.53,0.22,1.03,0.52,1.58,0.69c0.14,0.14,0.2,0.29,0.05,0.46c-0.06,0.06-0.12,0.13-0.18,0.19c-0.2,0.1-0.19,0.49-0.54,0.39
		c-0.01-0.08-0.01-0.15-0.02-0.23c-0.4-0.2-0.86-0.21-1.28-0.35c-0.12,0-0.24,0-0.36,0c-0.29,0.13-0.54,0.45-0.91,0.18
		C11.96,8.63,11.94,8.54,11.93,8.45z"/>
	<path class="st74" d="M15.26,8.54c-0.01-0.15-0.04-0.29-0.19-0.36c-0.1-0.1-0.1-0.21-0.04-0.33c0.03-0.05,0.07-0.08,0.13-0.08
		C15.06,7.7,15.08,7.86,15,7.85c-0.52-0.04-0.88-0.29-1.06-0.79c0.07-0.06,0.13-0.12,0.2-0.17c0.08-0.06,0.17-0.09,0.27-0.09
		c0.64,0.22,1.32-0.33,1.95,0.11c-0.36,0.41-0.45,0.93-0.56,1.43c-0.12,0.06-0.23,0.12-0.35,0.17C15.38,8.52,15.32,8.53,15.26,8.54z
		"/>
	<path class="st75" d="M13.25,8.54c0.54-0.3,0.92-0.02,1.28,0.35c-0.24,0.07-0.48,0.14-0.72,0.21C13.68,8.85,13.21,8.94,13.25,8.54z
		"/>
	<path class="st54" d="M8.01,12.22c-0.22,0.2-0.48,0.33-0.78,0.38c-0.19-0.19-0.14-0.39-0.01-0.58l0,0
		C7.55,11.82,7.76,12.08,8.01,12.22z"/>
	<path class="st76" d="M7.22,12.01c0,0.19,0.01,0.39,0.01,0.58c-0.12,0.06-0.24,0.12-0.36,0.17c-0.07-0.19-0.13-0.38-0.2-0.57
		C6.85,12.13,7.03,12.07,7.22,12.01z"/>
	<path class="st77" d="M8.01,12.22c-0.26-0.07-0.53-0.14-0.79-0.21c0.34-0.4,0.66,0.07,0.99,0.02C8.14,12.1,8.07,12.16,8.01,12.22z"
		/>
	<path class="st76" d="M6.12,13.09c0.16-0.33,0.44-0.38,0.76-0.33C6.66,12.95,6.42,13.09,6.12,13.09z"/>
	<path class="st29" d="M4.23,14.18c0.23-0.19,0.46-0.4,0.8-0.33c0,0.12,0,0.24,0,0.35C4.76,14.19,4.49,14.19,4.23,14.18z"/>
	<path class="st78" d="M21.46,7.82c-0.54,0.09-0.95-0.31-1.45-0.38C19.39,7.06,18.68,6.92,18,6.71c-0.18,0.08-0.33-0.02-0.49-0.07
		c-0.28-0.29-0.88-0.1-0.98-0.66c1.21-0.18,2.25,0.41,3.23,0.91c0.81,0.41,1.14-0.27,1.71-0.37c0.34,0.12,0.62,0.3,0.55,0.73
		c-0.19,0.06-0.62-0.13-0.37,0.37C21.7,7.8,21.66,7.89,21.46,7.82z"/>
	<path class="st79" d="M24.4,6.9c-0.18,0.06-0.37,0.12-0.55,0.18c-0.08-0.15-0.22-0.18-0.37-0.18c-0.56,0.08-0.77-0.52-1.23-0.63
		c-0.07-0.06-0.09-0.13-0.09-0.21c0.18-0.29,0.56-0.34,0.75-0.63C23.94,5.41,24.5,5.96,24.4,6.9z"/>
	<path class="st80" d="M22.02,7.26c-0.18-0.24-0.37-0.49-0.55-0.73c-0.37-0.24-0.18-0.49,0-0.73c0.03-0.02,0.06-0.05,0.09-0.07
		c0.36-0.06,0.47,0.23,0.64,0.44v0c0.33,0.31,0.84,0.5,0.73,1.1C22.63,7.66,22.33,7.22,22.02,7.26z"/>
	<path class="st81" d="M22.94,7.26c-0.17-0.41-0.62-0.64-0.73-1.1c0.63-0.1,0.83,0.53,1.28,0.73C23.38,7.14,23.2,7.26,22.94,7.26z"
		/>
	<path class="st82" d="M21.46,7.82c0.06-0.06,0.13-0.13,0.19-0.19c0.42,0.05,0.99-0.2,1.09,0.53c-0.19,0-0.37,0.01-0.56,0.01
		C22,7.91,21.72,8.02,21.48,7.99C21.47,7.93,21.47,7.88,21.46,7.82z"/>
	<path class="st83" d="M24.4,6.9c-0.18-0.83-0.7-1.29-1.46-1.28c-0.44,0.44-1-0.08-1.46,0.18c0,0,0,0,0,0
		c-0.76,0.06-1.03-0.39-1.1-1.06c0.06-0.07,0.14-0.1,0.23-0.08c0.95,0.4,1.9,0.55,2.86,0.04c0.06,0,0.13,0,0.19,0
		c0.23,0.24,0.53,0.37,0.82,0.51c0.23,0.13,0.5,0.23,0.3,0.57c-0.27,0.19-0.22,0.45-0.13,0.7C24.76,6.76,24.65,6.87,24.4,6.9z"/>
	<path class="st84" d="M24.78,5.79c0.01-0.27-0.27-0.35-0.38-0.55c-0.05-0.04-0.06-0.07-0.05-0.11c0.01-0.04,0.03-0.06,0.04-0.06
		c0.35,0.01,0.62,0.21,0.92,0.36c-0.12,0.11-0.24,0.23-0.36,0.34C24.9,5.78,24.84,5.79,24.78,5.79z"/>
	<path class="st85" d="M23.47,4.7c-0.07,0.48-0.44,0.53-0.81,0.54c-0.75,0.02-1.5,0.06-2.11-0.51c0.1-0.13,0.23-0.14,0.36-0.06
		c0.51,0.03,1.02,0.09,1.5-0.12c0.11-0.13,0.23-0.15,0.36-0.03c0.11-0.01,0.22-0.02,0.32-0.02C23.23,4.57,23.35,4.63,23.47,4.7z"/>
	<path class="st86" d="M24.4,5.07c0,0.06,0,0.11,0.01,0.17c-0.34-0.05-0.68-0.1-0.74-0.54C23.95,4.74,24.22,4.82,24.4,5.07z"/>
	<path class="st49" d="M22.78,4.53c-0.12,0.01-0.24,0.02-0.36,0.03c-0.03-0.03-0.06-0.05-0.08-0.08c-0.18-0.11-0.39-0.2-0.32-0.48
		c0.11,0,0.22,0,0.33,0C22.49,4.18,22.8,4.22,22.78,4.53z"/>
	<path class="st87" d="M21.83,9.26c-0.02-0.27,0.07-0.5,0.2-0.73c0.18,0,0.36-0.01,0.53-0.01C22.36,8.81,22.28,9.22,21.83,9.26z"/>
	<path class="st88" d="M16.54,5.98c0.3,0.31,0.85,0.13,1.1,0.54c-0.3,0.57-0.9,0.09-1.28,0.37c0,0,0,0.01,0,0.01
		c-0.67-0.09-1.34,0.49-2.01,0c0.1-0.3,0.61-0.31,0.55-0.73c0.13-0.21,0.35-0.17,0.55-0.18C15.81,6.21,16.17,5.54,16.54,5.98z"/>
	<path class="st89" d="M20.92,4.68c-0.12,0.02-0.24,0.04-0.36,0.06c-0.06,0-0.12,0-0.18,0.01c-0.24-0.14-0.49-0.28-0.73-0.42
		C20.19,4.01,20.6,4.19,20.92,4.68z"/>
	<path class="st90" d="M16.72,2.88c0.3,0.06,0.61,0.12,0.91,0.18c-0.07,0.39-0.33,0.57-0.69,0.45C16.69,3.42,16.54,3.18,16.72,2.88z
		"/>
	<path class="st91" d="M15.89,3.66c0.2,0.1,0.41,0.13,0.32,0.39c-0.06,0.14-0.14,0.27-0.32,0.25c-0.24-0.03-0.25-0.21-0.24-0.4
		C15.65,3.72,15.77,3.67,15.89,3.66z"/>
	<path class="st41" d="M14.89,6.16c0.35,0.49,0.34,0.51-0.55,0.73c-0.07,0-0.13-0.01-0.2-0.01c0.03-0.15,0.07-0.29,0.22-0.36
		C14.54,6.41,14.61,6.14,14.89,6.16z"/>
	<path class="st92" d="M22.02,4c0.11,0.16,0.21,0.32,0.32,0.48c-0.33,0.02-0.71,0.14-0.94-0.16c-0.24-0.31-0.64-0.17-0.88-0.41
		c0.06-0.21,0.27-0.21,0.41-0.31c0.31,0.11,0.61,0.22,0.92,0.34C21.9,3.96,21.96,3.98,22.02,4z"/>
	<path class="st93" d="M6.3,11.28c-0.22,0.13-0.42,0.13-0.54-0.14c0.24-0.08,0.47-0.16,0.71-0.24c0.19,0.12,0.21,0.24,0.01,0.37
		C6.43,11.37,6.36,11.37,6.3,11.28z"/>
	<path class="st76" d="M6.3,11.28c0.06,0,0.12,0,0.18,0c-0.02,0.32,0.01,0.63,0.18,0.91C6.08,12.08,6.38,11.6,6.3,11.28z"/>
	<path class="st75" d="M11.97,8.72c0.33,0.07,0.55-0.4,0.91-0.18C12.69,9.15,12.42,9.39,11.97,8.72z"/>
	<path class="st94" d="M13.37,9.37c-0.14,0.02-0.23,0.06-0.29,0.04c-0.05-0.02-0.06-0.13-0.09-0.2c0.05-0.02,0.12-0.06,0.15-0.05
		C13.21,9.2,13.26,9.27,13.37,9.37z"/>
	<path class="st95" d="M12.88,7.72c-0.16,0.14-0.31,0.29-0.55,0.25c0-0.1-0.01-0.2-0.01-0.3c0.19-0.06,0.38-0.12,0.56-0.19
		C12.95,7.57,12.95,7.65,12.88,7.72z"/>
	<path class="st96" d="M15.08,7.81c0,0.12,0,0.24,0,0.36c-0.61,0.01-1.07-0.31-1.47-0.74c-0.06-0.05-0.08-0.09-0.06-0.13
		c0.02-0.04,0.05-0.05,0.07-0.05c0.11-0.06,0.21-0.13,0.32-0.2C14.32,7.31,14.7,7.56,15.08,7.81L15.08,7.81z"/>
	<path class="st97" d="M13.62,7.26c-0.01,0.06-0.01,0.12-0.02,0.18c-0.24,0.1-0.49,0.19-0.73,0.29c0-0.08,0-0.16,0-0.24
		c0.06-0.06,0.12-0.13,0.18-0.19C13.25,7.28,13.44,7.27,13.62,7.26z"/>
	<path class="st98" d="M16.36,6.89c0.04-0.33,0.23-0.42,0.51-0.28c0.29,0.15,0.53,0.05,0.77-0.08c0.12,0.06,0.24,0.12,0.36,0.19
		c-0.3,0.33-0.78,0.08-1.1,0.36C16.72,7.02,16.54,6.95,16.36,6.89z"/>
	<path class="st99" d="M15.08,7.81c0.02-0.16-0.07-0.39,0.16-0.45c0.19-0.05,0.26,0.14,0.25,0.27C15.47,7.91,15.22,7.77,15.08,7.81
		C15.08,7.81,15.08,7.81,15.08,7.81z"/>
	<path class="st41" d="M21.47,5.8c0.42-0.59,0.99,0.02,1.46-0.18c0,0.51-0.58,0.24-0.73,0.55C21.96,6.04,21.72,5.92,21.47,5.8z"/>
</g>
</svg>
