<?xml version="1.0" encoding="utf-8"?>
<!-- Generator: Adobe Illustrator 28.3.0, SVG Export Plug-In . SVG Version: 6.00 Build 0)  -->
<svg version="1.1" id="Laag_1" xmlns="http://www.w3.org/2000/svg" xmlns:xlink="http://www.w3.org/1999/xlink" x="0px" y="0px"
	 viewBox="0 0 145.78 272.67" style="enable-background:new 0 0 145.78 272.67;" xml:space="preserve">
<style type="text/css">
	.st0{fill:#738B99;}
	.st1{fill:#44545E;}
	.st2{fill:#4C3A2C;}
	.st3{fill:#4A382D;}
	.st4{fill:#9FB6C1;}
	.st5{fill:#7F95A0;}
</style>
<path class="st0" d="M77,13.22c9.21,1.2,18.71-1.62,27.74,1.99c-4.06,3.62-4.99,7.64-3.2,13.06c5.25,15.91,7.36,32.28,6.62,49.1
	c-0.49,11.14-2.13,21.76-8.73,31.47c10.05,3.25,21.37-3.15,30.23,4.89c-14.09,3.12-28.4,2.05-42.58,1.64
	c-7.77-0.22-10.7,1.64-10.58,9.76c0.14,9.68,1.25,19.51-1.24,29.12c-5.86-4.4-3.09-10.82-3.91-16.42c-1.09-7.4,3-15.62-3.45-22.18
	c-18.46-0.72-36.91-1.71-55.38-2.05c-8.12-0.15-9.58-3.19-7.41-10.5c7.82-26.36,15.44-52.78,22.71-79.29
	c1.69-6.16,4.72-8.56,10.91-8.61c5.62-0.05,11.34-1.97,16.84-1.38c7.66,0.83,10.41-3.19,12.23-9.25C71.04,7.26,73.87,10.41,77,13.22
	z"/>
<path class="st1" d="M129.66,113.74c-12.27,0-24.54,0-37.73,0c21.63-30.63,11.07-70.06,2.75-97.52c3.43-0.34,6.75-0.68,10.07-1.01
	c5.97-0.36,9.5,1.64,11.45,8.07c7.66,25.24,16.04,50.26,24.02,75.41C144.7,112.84,144.59,112.87,129.66,113.74z"/>
<path class="st1" d="M290.18,113.74c-12.27,0-24.54,0-37.73,0c21.63-30.63,11.07-70.06,2.75-97.52c3.43-0.34,6.75-0.68,10.07-1.01
	c5.97-0.36,9.5,1.64,11.45,8.07c7.66,25.24,16.04,50.26,24.02,75.41C305.23,112.84,305.11,112.87,290.18,113.74z"/>
<path class="st2" d="M75.06,258.72c-0.85,2.74,0.59,6.1-4.08,9.77c-2.59-25.28,0.89-49.59-2.67-73.46
	c-0.14-26.45-0.28-52.91-0.42-79.36c5.86-1.1,6.93,2.08,6.91,7.08c-0.06,10.51,0.28,21.02,0.46,31.52
	C75.19,189.08,75.13,223.9,75.06,258.72z"/>
<path class="st3" d="M77,13.22c-6.95,1.26-10.16-1.48-9.22-8.64C77.39,0.48,76.98,7.08,77,13.22z"/>
<polygon class="st4" points="275.92,21.06 189.3,21.06 165.63,103.12 302.12,103.12 "/>
<path class="st1" d="M310.44,219.86c-2.03-6.39-4.08-12.76-6.14-19.14l7.32,22.94C311.29,222.51,310.89,221.26,310.44,219.86z"/>
<path class="st1" d="M286.43,144.45c-0.23-0.75-0.48-1.44-0.75-2.07l3.05,9.55C287.96,149.44,287.19,146.94,286.43,144.45z"/>
<path class="st4" d="M285.63,142.24h-0.01c0.02,0.05,0.04,0.1,0.06,0.14L285.63,142.24z"/>
<path class="st4" d="M96.51,22.37H28.32L4.65,104.42h92.91C109.88,77.56,103.54,46.26,96.51,22.37z"/>
<path class="st4" d="M311.83,224.29l-0.2-0.64c0.07,0.22,0.13,0.43,0.19,0.64H311.83z"/>
<path class="st5" d="M141.68,103.44l-7.2-22.61c-5.25-16.25-10.61-32.63-15.65-48.94l-2.94-9.52c-0.02-0.05,0.02,0.05,0,0H96.51
	c7.03,23.89,13.38,55.2,1.06,82.05h44.4C141.9,104.21,141.75,103.65,141.68,103.44z"/>
</svg>
