<?xml version="1.0" encoding="utf-8"?>
<!-- Generator: Adobe Illustrator 28.3.0, SVG Export Plug-In . SVG Version: 6.00 Build 0)  -->
<svg version="1.1" id="Laag_1" xmlns="http://www.w3.org/2000/svg" xmlns:xlink="http://www.w3.org/1999/xlink" x="0px" y="0px"
	 viewBox="0 0 80 80" style="enable-background:new 0 0 80 80;" xml:space="preserve">
<g>
	<path d="M11.58,32.85c0.46-1.56,1.27-2.85,2.69-3.71c0.86-0.52,1.79-0.82,2.79-0.83c3.55-0.02,7.1,0,10.65-0.02
		c0.51,0,0.71,0.17,0.7,0.69c-0.12,5.68-0.23,11.36-0.33,17.04c-0.03,1.63-0.05,3.26-0.03,4.89c0.01,0.63-0.21,0.82-0.84,0.82
		c-3.22-0.03-6.43-0.01-9.65-0.01c-2.92,0-4.96-1.48-5.87-4.26c-0.03-0.1-0.07-0.19-0.11-0.29C11.58,42.38,11.58,37.62,11.58,32.85z
		"/>
	<path d="M49.87,40.01c0,7.5,0,15.01,0,22.51c0,0.95-0.28,1.74-1.19,2.16c-0.85,0.4-1.58,0.11-2.26-0.44
		c-2.61-2.1-5.22-4.19-7.82-6.28c-2.17-1.74-4.33-3.48-6.51-5.21c-0.35-0.28-0.48-0.57-0.48-1.01c0.11-6.44,0.18-12.87,0.31-19.31
		c0.03-1.5,0.06-3.01,0.07-4.51c0-0.44,0.16-0.74,0.5-1.01c4.65-3.72,9.3-7.44,13.95-11.17c0.7-0.56,1.45-0.84,2.32-0.4
		c0.85,0.43,1.12,1.18,1.12,2.08C49.87,24.96,49.87,32.48,49.87,40.01z"/>
	<g>
		<path d="M67.71,46.95L67.71,46.95c-0.95,0.95-2.5,0.95-3.46,0L53.8,36.5c-0.95-0.95-0.95-2.5,0-3.46h0c0.95-0.95,2.5-0.95,3.46,0
			l10.45,10.45C68.66,44.44,68.66,45.99,67.71,46.95z"/>
		<path d="M54.05,47.19L54.05,47.19c-0.99-0.92-1.04-2.47-0.12-3.46L64,32.93c0.92-0.99,2.47-1.04,3.46-0.12v0
			c0.99,0.92,1.04,2.47,0.12,3.46L57.5,47.07C56.58,48.06,55.04,48.11,54.05,47.19z"/>
	</g>
</g>
</svg>
