<?xml version="1.0" encoding="utf-8"?>
<!-- Generator: Adobe Illustrator 28.3.0, SVG Export Plug-In . SVG Version: 6.00 Build 0)  -->
<svg version="1.1" id="Laag_1" xmlns="http://www.w3.org/2000/svg" xmlns:xlink="http://www.w3.org/1999/xlink" x="0px" y="0px"
	 viewBox="0 0 212.57 230.04" style="enable-background:new 0 0 212.57 230.04;" xml:space="preserve">
<style type="text/css">
	.st0{fill:#60391D;}
	.st1{fill:#4B403C;}
	.st2{fill:#85848D;}
	.st3{fill:#706755;}
	.st4{fill:#7C7265;}
	.st5{fill:#643F23;}
	.st6{fill:#847461;}
	.st7{fill:#7E5F3C;}
	.st8{fill:#745737;}
	.st9{fill:#725C49;}
	.st10{fill:#746352;}
	.st11{fill:#9D9B97;}
	.st12{fill:#6A6E78;}
	.st13{fill:#707382;}
	.st14{fill:#636B75;}
	.st15{fill:#35271B;}
	.st16{fill:#38302D;}
	.st17{fill:#BFBDBB;}
	.st18{fill:#37302E;}
</style>
<path class="st0" d="M181.33,92.88c1.32-0.12,2.65-0.24,3.97-0.36c10.28,3.56,11.84,10.87,11.48,19.01
	c1.23,29.28-3.23,58.79,6.52,87.74c4.21,12.51-2.29,19.09-18.63,17.23c-6.15-0.7-12.42-0.57-18.64-0.82
	c-0.6-1.84-0.14-3.46,1.38-4.87c22.45-12.77,14.39-31.54,12.1-48.37c-2.4-17.61-6.93-35-5.82-52.89
	C174.07,103.28,173.7,96.78,181.33,92.88z"/>
<path class="st1" d="M53.36,33.12c0,0,3.51-3.94,21.45,6.51c3.79,2.21,5.97,6.42,5.61,10.79c-0.79,9.5-1.67,16.16-4.39,30.83
	c-16.74,3.35-12.95,2.6-19.08-15.55c2.57,8.16,5.11,16.32,1.45,24.79c-0.92,1.45-2.17,2.62-3.75,3.57c-2.7,1.17-5.51,1.36-8.42,0.73
	c-2.72-0.9-4.78-2.45-6.26-4.55c-2.54-10.55-1.29-21.51-4.58-32.01c-0.8-6.35,13.16-9.94,8.34-13.3"/>
<path class="st2" d="M28.85,25.08"/>
<path class="st2" d="M55.83,32.67c0,0,0.87-14.25,6.53-14.16c6.36-3.84,11.82-3.32,16.22,2.36c2.35,5.6-2.64,10.88-0.96,16.47
	c0.4,2.88-1.25,5.36-2.18,7.99c-0.57,1.84-1.54,5.63-3.91,3.18"/>
<path class="st3" d="M140.16,221.93c-21.18,2.01-42.39,1.31-63.59,0.5c-7.14-5.47-8.38-12.7-8.46-20.27
	c-0.33-30.12-0.08-60.24-0.17-90.35c-0.02-6.14,1.38-11.52,7.24-15.59c21-6.28,41.94-6.98,62.8,0.51c5.53,5.01,5.94,11.2,6.1,17.64
	c0.79,31.51-1.96,63.07,1.58,94.54C146.23,214.02,143.52,218.05,140.16,221.93z"/>
<path class="st4" d="M42.71,89.2c1.26,1.09,2.51,2.17,3.77,3.26c7.61,30.92,12.77,62.16,6.63,93.54c-1.94,9.94,4.18,21.61-7.08,30
	c-2.28,0.35-4.56,0.71-6.84,1.06c-21.11,3.82-26.2,1.46-24.67-15.98c3.08-35.16,3.1-70.35,4.39-105.53
	c-0.45-5.63,4.77-5.74,9.15-6.68c1.59-0.54,3.19-1.09,4.78-1.63C36.8,85.49,39.53,88.16,42.71,89.2z"/>
<path class="st5" d="M76.22,99.34c0.12,41.03,0.23,82.06,0.35,123.09c-3.77-0.84-7.55-1.68-11.33-2.53
	c-9.3-2.82-14.26-8.22-13.36-16.73c3.42-32.48,1.69-64.83-2.76-97.16c-0.65-4.72,1.34-9.33,4.68-13.32l0.69-0.67
	c9.25-4.85,14.62,1.46,20.89,5.18C75.66,97.92,75.94,98.63,76.22,99.34z"/>
<path class="st6" d="M166.81,213.47c-0.3,0.73-0.56,1.46-0.78,2.21c-3.44,0.33-6.87,0.66-10.31,0.99
	c-14.8-2.13-11.06-12.71-11.31-19.99c-0.94-27.35-0.85-54.74-0.07-82.09c0.23-7.92-7.29-16.57,2.03-23.98
	c1.54-1.56,3.43-2.68,5.67-3.41c6.6-1.12,11.51,1.06,15.28,5.51c6.76,15.64,2.44,32.44,7.07,48.41c1.91,6.6,2.47,13.53,4.72,20.15
	C185.63,180.45,179.18,197.45,166.81,213.47z"/>
<path class="st7" d="M151.38,89.86c-6.7,7.99,0.61,15.91,0.38,23.92c-0.79,28.29-0.36,56.6-0.22,84.9
	c0.03,6.16-1.62,12.72,4.17,17.98c-5.18,1.76-10.37,3.51-15.56,5.27c-6.52-41.01-2.49-82.26-3.89-123.38
	C136.29,89.45,141.39,86.64,151.38,89.86z"/>
<path class="st8" d="M18.95,93.34c5.59,5.84,4.64,12.82,4.62,19.58c-0.09,28.76,1.03,57.56-3.62,86.18
	c-2.05,12.61,3.86,18.82,19.24,17.97c-6.58,6.78-14.76,6.61-23.55,3.89C5.76,217.89,9.13,210.72,9,204.9
	c-0.27-11.99,0.04-23.99,0.12-35.99c5.48-17.02,2.38-34.43,3.15-51.65c0.35-7.92,0.51-15.72,3.52-23.29
	C16.41,92.22,17.45,91.93,18.95,93.34z"/>
<path class="st9" d="M53.8,92.7c1.01,34.55,5.71,69.02,3.61,103.64c-0.53,8.75,1.05,16.7,7.83,23.57
	c-7.96,4.17-12.44-3.87-19.21-3.9c2.86-37.14,6.19-74.27-2-111.3c-0.84-3.82,1.55-8.15,2.44-12.25
	C48.92,92.54,51.36,92.62,53.8,92.7z"/>
<path class="st10" d="M166.81,213.47c-0.21-9.44-0.79-18.7,5.32-27.55c3.83-5.54,2.85-12.46,0.55-18.52
	c-9.28-24.4-10.49-49.49-9.76-74.79c-1.32-5.11,1.04-7.17,7.14-6.11c3.76,2.13,7.52,4.25,11.27,6.38
	c-2.92,34.16,7.61,67.51,8.75,101.52C190.66,211.44,184.51,215.69,166.81,213.47z"/>
<path class="st11" d="M149,26.53c-4.82,2.6-19.57,24.34-27.21,15.48c0,0-0.01-0.03-0.01-0.03c2.63-4.81,8.24-8.41,8.09-14.34
	c-0.26-3.52-0.94-7.14,3.37-9.5c2.61-0.61,4.97-0.43,6.74,1.56"/>
<path class="st12" d="M170.06,86.49c-2.38,2.04-4.76,4.07-7.14,6.11c-3.68-1.06-7.36-2.12-11.04-3.18
	c2.31-10.73-5.21-22.13,3.1-32.45c10.28-2.49,14.45,1.35,14.5,9.77C169.52,73.32,169.85,79.91,170.06,86.49z"/>
<path class="st13" d="M42.71,89.2c-4.72,4.42-7.06,0.32-9.89-1.96c-1.61-9.82-3.32-19.65,2.56-29.01
	C48.83,66.7,46.27,77.87,42.71,89.2z"/>
<path class="st14" d="M139.98,19.7c-2.4-0.09-4.8-0.19-7.2-0.28c-6.67,6.57-15.49,0.08-22.82,2.66c-2.68-0.33-5.2-1.03-7.45-2.34
	c-3.55,0.09-7.1,0.18-10.64,0.28c-4.81,2.36-9.13,6.75-15.51,2.68c-3.55-4.05-9.56-2.28-14-4.2c2.8-11.78,15.64-8.96,23.96-10.17
	C105.62,5.51,125.78,3.71,139.98,19.7z"/>
<path class="st15" d="M76.12,79.65c0.68,6.28-12.43,12.7,0.28,18.85c-8.89,1.66-14.46-4.7-21.92-6.47
	c0.07-13.35-1.85-26.59-5.23-40.84C64.68,58.11,56.98,77.47,76.12,79.65z"/>
<path class="st16" d="M76.35,22.7c5.17-0.89,10.34-1.79,15.51-2.68c-0.7,10.67-20.44,7.1-19.76,18.8
	C60.97,31.09,75.85,28.25,76.35,22.7z"/>
<path class="st16" d="M102.51,19.75c2.64-0.13,5.29-0.27,7.93-0.4c11.41-3.02,18.7,2.94,26.15,8.55
	c-4.05,5.36-7.46,11.2-14.81,14.08c2.22-7.57,2.71-14.29-9.54-15.78C107.76,25.66,104.74,22.99,102.51,19.75z"/>
<path class="st17" d="M136.59,27.9c-10.71,1.48-16.05-8.71-26.15-8.55c7.49-7.69,14.89,1.22,22.34,0.08
	C134.05,22.25,135.32,25.08,136.59,27.9z"/>
<path class="st18" d="M209.18,77.85"/>
<path class="st18" d="M149,26.53l-19.91,9.6c-2.55,1.23-2.9,4.72-0.64,6.43l24.91,18.87c14.75,5.45,4.85,19.15,12.7,26.92
	c3.4,4.32,7.96,6.85,14.34,6.54c1.92-0.38,3.55-1.17,4.9-2.38c-1.42-10.08-18.85-37.78-18.85-37.78"/>
</svg>
